<svg width="446" height="366" viewBox="0 0 446 366" fill="none" xmlns="http://www.w3.org/2000/svg">
<path d="M73.289 173.51C121.169 229.798 164.652 220.985 184.371 206.756C186.855 204.963 189.893 203.93 192.844 204.63C212.224 209.231 242.016 226.422 235.472 266.97C228.369 310.977 170.082 311.78 141.826 306.68C29.8221 286.009 35.915 216.464 57.2154 174.795C60.3842 168.595 68.8409 168.281 73.289 173.51Z" fill="#EF6390" stroke="black" stroke-width="2"/>
<path d="M63.5342 181.368C112.011 256.948 163.248 250.264 182.807 237.474L214.128 292.964C111.165 314.455 70.8309 227.521 63.5342 181.368Z" fill="#FFB3D3" stroke="black" stroke-width="2"/>
<path d="M158.442 161.826C173.481 169.132 218.169 179.017 274.028 160.536C315.565 191.195 379.56 255.95 313.56 280.019C307.257 281.308 293.536 280.362 289.067 266.265C286.203 293.199 282.622 348.356 245.239 343.198C235.831 342.77 218.845 336.723 217.33 290.561C217.825 309.979 208.914 335.954 188.52 341.479C164.888 344.058 155.091 335.376 150.278 266.265C137.244 280.448 99.1452 289.044 95.278 249.073C92.5233 237.899 110.317 187.613 158.442 161.826Z" fill="#FFB3D3"/>
<path d="M289.067 266.265C293.536 280.362 307.257 281.308 313.56 280.019C379.56 255.95 315.565 191.195 274.028 160.536C218.169 179.017 173.481 169.132 158.442 161.826C110.317 187.613 92.5233 237.899 95.278 249.073C99.1452 289.044 137.244 280.448 150.278 266.265M289.067 266.265C296.515 255.95 303.935 223.63 274.028 176.868M289.067 266.265C286.203 293.199 282.622 348.356 245.239 343.198C235.786 342.768 218.684 336.665 217.309 289.904M217.309 289.904C218.026 309.388 209.145 335.892 188.52 341.479C164.888 344.058 155.091 335.376 150.278 266.265M217.309 289.904C210.955 289.623 192.113 289.904 183.09 283.681M217.309 289.904C224.849 289.835 250.598 289.526 254.848 283.681M150.278 266.265C139.393 260.105 126.301 233.257 161.02 175.149" stroke="black" stroke-width="2"/>
<ellipse cx="217.965" cy="225.116" rx="45.9614" ry="51.116" fill="#FFF0F6"/>
<path opacity="0.8" d="M178.004 278.536C210.004 318.536 183.504 333.703 172.004 339.036C203.504 350.536 217.004 312.536 216.504 288.536C223.504 344.036 237.504 344.036 258.004 341.536C234.504 338.536 240.837 305.869 248.004 288.536C278.004 278.536 238.004 256.536 217.004 256.536C185.004 257.736 173.604 273.036 178.004 278.536Z" fill="#7E3F53" fill-opacity="0.4"/>
<path d="M290.004 266.653C298.778 290.011 327.681 278.84 338.004 262.591C290.933 269.497 304.111 251.758 316.326 241.264L295.165 224C296.714 247.358 296.197 258.021 290.004 266.653Z" fill="#7E3F53" fill-opacity="0.4"/>
<path d="M149.004 265.834C128.708 284.486 103.208 277.428 98.0039 261.801C145.465 268.657 132.177 251.046 119.861 240.628L138.596 225C134.953 248.694 140.157 258.776 149.004 265.834Z" fill="#7E3F53" fill-opacity="0.4"/>
<path d="M279.004 165.546C225.119 197.157 171.885 178.717 152.004 165.546L157.504 161C199.872 180.047 252.552 168.936 275.004 161L279.004 165.546Z" fill="#7E3F53" fill-opacity="0.4"/>
</svg>
