<svg width="449" height="366" viewBox="0 0 449 366" fill="none" xmlns="http://www.w3.org/2000/svg">
<path d="M206.035 249.756V171C178.016 172 148.255 142.047 131.325 132.724C65.6694 113.292 18.0958 158.486 2.51599 183.512C31.0748 171.44 45.8204 198.11 49.6234 212.954C75.8269 194.405 105.686 213.567 117.34 225.467C151.199 191.608 190.578 227.552 206.035 249.756Z" fill="#36353B" stroke="black" stroke-width="2"/>
<path d="M127.275 154.018C116.676 160.2 115.253 206.278 116.97 224.679C123.153 166.973 135.891 154.631 142.516 154.018L206.033 182V171C181.016 173.5 149.847 142.61 131.691 132.673C97.4649 120.528 37.3293 130.318 2.88206 182.725C19.0752 167.356 59.779 137.743 97.4649 139.298C104.523 138.194 112.925 140.513 122.494 144.561C78.3304 157.516 53.6697 196.832 49.6214 211.798C74.3528 172.051 112.431 154.14 127.275 154.018Z" fill="#36353B" stroke="black" stroke-width="2"/>
<path d="M238.518 250.756V172C266.537 173 296.298 143.047 313.227 133.724C378.883 114.292 426.457 159.486 442.037 184.512C413.478 172.44 398.732 199.11 394.929 213.954C368.726 195.405 338.867 214.567 327.212 226.467C293.354 192.608 253.975 228.552 238.518 250.756Z" fill="#36353B" stroke="black" stroke-width="2"/>
<path d="M317.278 155.018C327.877 161.2 329.3 207.278 327.582 225.679C321.4 167.973 308.662 155.631 302.037 155.018L238.52 183V172C263.537 174.5 294.705 143.61 312.861 133.673C347.088 121.528 407.223 131.318 441.671 183.725C425.478 168.356 384.774 138.743 347.088 140.298C340.03 139.194 331.628 141.513 322.059 145.561C366.222 158.516 390.883 197.832 394.931 212.798C370.2 173.051 332.121 155.14 317.278 155.018Z" fill="#36353B" stroke="black" stroke-width="2"/>
<path d="M160.956 161.856C175.995 169.162 220.683 179.047 276.542 160.566C318.079 191.225 382.074 255.98 316.074 280.049C309.772 281.338 296.05 280.393 291.582 266.295C288.717 293.229 285.136 348.386 247.753 343.228C238.345 342.801 221.359 336.753 219.844 290.591C220.339 310.009 211.429 335.984 191.035 341.509C167.402 344.088 157.605 335.406 152.792 266.295C139.758 280.479 101.659 289.074 97.7922 249.104C95.0375 237.929 112.831 187.643 160.956 161.856Z" fill="#36353B"/>
<path d="M291.582 266.295C296.05 280.393 309.772 281.338 316.074 280.049C382.074 255.98 318.079 191.225 276.542 160.566C220.683 179.047 175.995 169.162 160.956 161.856C112.831 187.643 95.0375 237.929 97.7922 249.104C101.659 289.074 139.758 280.479 152.792 266.295M291.582 266.295C299.029 255.98 306.449 223.66 276.542 176.899M291.582 266.295C288.717 293.229 285.136 348.386 247.753 343.228C238.3 342.799 221.199 336.696 219.824 289.934M219.824 289.934C220.54 309.418 211.66 335.922 191.035 341.509C167.402 344.088 157.605 335.406 152.792 266.295M219.824 289.934C213.47 289.654 194.628 289.934 185.604 283.711M219.824 289.934C227.363 289.865 253.113 289.556 257.362 283.711M152.792 266.295C141.907 260.135 128.816 233.287 163.534 175.179" stroke="black" stroke-width="2"/>
<ellipse cx="221.479" cy="224.116" rx="45.9614" ry="51.116" fill="#3E3E3F"/>
<path opacity="0.8" d="M180.518 278.565C212.518 318.565 186.018 333.732 174.518 339.065C206.018 350.565 219.518 312.565 219.018 288.565C226.018 344.065 240.018 344.065 260.518 341.565C237.018 338.565 243.351 305.899 250.518 288.565C280.518 278.565 240.518 256.565 219.518 256.565C187.518 257.765 176.118 273.065 180.518 278.565Z" fill="black" fill-opacity="0.4"/>
<path d="M292.518 266.682C301.292 290.04 330.195 278.869 340.518 262.62C293.447 269.526 306.626 251.788 318.841 241.294L297.679 224.029C299.228 247.387 298.712 258.05 292.518 266.682Z" fill="black" fill-opacity="0.4"/>
<path d="M152.518 265.863C132.222 284.515 106.722 277.458 101.518 261.83C148.979 268.686 135.692 251.075 123.375 240.657L142.11 225.029C138.467 248.723 143.671 258.805 152.518 265.863Z" fill="black" fill-opacity="0.4"/>
<path d="M282.518 165.575C228.633 197.186 175.399 178.747 155.518 165.575L161.018 161.029C203.386 180.077 256.066 168.966 278.518 161.029L282.518 165.575Z" fill="black" fill-opacity="0.4"/>
</svg>
