<svg width="446" height="366" viewBox="0 0 446 366" fill="none" xmlns="http://www.w3.org/2000/svg">
<path d="M158.438 162.289C173.477 169.596 218.165 179.481 274.024 161C315.561 191.659 379.556 256.414 313.556 280.482C307.254 281.772 293.532 280.826 289.063 266.729C286.199 293.663 282.618 348.819 245.235 343.662C235.827 343.234 218.841 337.186 217.326 291.025C217.821 310.443 208.911 336.418 188.516 341.943C164.884 344.522 155.087 335.84 150.274 266.729C137.24 280.912 99.1413 289.508 95.2741 249.537C92.5194 238.363 110.313 188.077 158.438 162.289Z" fill="#503D33"/>
<path d="M289.063 266.729C293.532 280.826 307.254 281.772 313.556 280.482C379.556 256.414 315.561 191.659 274.024 161C218.165 179.481 173.477 169.596 158.438 162.289C110.313 188.077 92.5194 238.363 95.2741 249.537C99.1413 289.508 137.24 280.912 150.274 266.729M289.063 266.729C296.511 256.414 303.931 224.094 274.024 177.332M289.063 266.729C286.199 293.663 282.618 348.819 245.235 343.662C235.782 343.232 218.681 337.129 217.306 290.368M217.306 290.368C218.022 309.852 209.142 336.355 188.516 341.943C164.884 344.522 155.087 335.84 150.274 266.729M217.306 290.368C210.952 290.087 192.11 290.368 183.086 284.145M217.306 290.368C224.845 290.299 250.595 289.99 254.844 284.145M150.274 266.729C139.389 260.569 126.298 233.721 161.016 175.613" stroke="black" stroke-width="2"/>
<path d="M264.923 227.116C264.923 255.347 244.345 278.232 218.961 278.232C193.578 278.232 173 255.347 173 227.116C173 198.885 193.578 176 218.961 176C244.345 176 264.923 198.885 264.923 227.116Z" fill="#80685B"/>
<path opacity="0.8" d="M178 280.536C210 320.536 183.5 335.703 172 341.036C203.5 352.536 217 314.536 216.5 290.536C223.5 346.036 237.5 346.036 258 343.536C234.5 340.536 240.833 307.869 248 290.536C278 280.536 238 258.536 217 258.536C185 259.736 173.6 275.036 178 280.536Z" fill="black" fill-opacity="0.4"/>
<path d="M290 266.653C298.774 290.011 327.677 278.84 338 262.591C290.929 269.497 304.108 251.758 316.323 241.264L295.161 224C296.71 247.358 296.194 258.021 290 266.653Z" fill="black" fill-opacity="0.4"/>
<path d="M149 266.834C128.704 285.486 103.204 278.428 98 262.801C145.461 269.657 132.173 252.046 119.857 241.628L138.592 226C134.949 249.694 140.153 259.776 149 266.834Z" fill="black" fill-opacity="0.4"/>
<path d="M279 165.546C225.115 197.157 171.881 178.717 152 165.546L157.5 161C199.868 180.047 252.548 168.936 275 161L279 165.546Z" fill="black" fill-opacity="0.4"/>
</svg>
