<svg width="446" height="366" viewBox="0 0 446 366" fill="none" xmlns="http://www.w3.org/2000/svg">
<path d="M158.438 161.289C173.477 168.596 218.165 178.481 274.024 160C315.561 190.659 379.556 255.414 313.556 279.482C307.254 280.772 293.532 279.826 289.063 265.729C286.199 292.663 282.618 347.819 245.235 342.662C235.827 342.234 218.841 336.186 217.326 290.025C217.821 309.443 208.911 335.418 188.516 340.943C164.884 343.522 155.087 334.84 150.274 265.729C137.24 279.912 99.1413 288.508 95.2741 248.537C92.5194 237.363 110.313 187.077 158.438 161.289Z" fill="#B9AEAA"/>
<path d="M289.063 265.729C293.532 279.826 307.254 280.772 313.556 279.482C379.556 255.414 315.561 190.659 274.024 160C218.165 178.481 173.477 168.596 158.438 161.289C110.313 187.077 92.5194 237.363 95.2741 248.537C99.1413 288.508 137.24 279.912 150.274 265.729M289.063 265.729C296.511 255.414 303.931 223.094 274.024 176.332M289.063 265.729C286.199 292.663 282.618 347.819 245.235 342.662C235.782 342.232 218.681 336.129 217.306 289.368M217.306 289.368C218.022 308.852 209.142 335.355 188.516 340.943C164.884 343.522 155.087 334.84 150.274 265.729M217.306 289.368C210.952 289.087 192.11 289.368 183.086 283.145M217.306 289.368C224.845 289.299 250.595 288.99 254.844 283.145M150.274 265.729C139.389 259.569 126.298 232.721 161.016 174.613" stroke="black" stroke-width="2"/>
<path d="M264.923 226.116C264.923 254.346 244.345 277.232 218.961 277.232C193.577 277.232 173 254.346 173 226.116C133.5 131.5 193.577 175 218.961 175C244.345 175 305.5 122 264.923 226.116Z" fill="#EBE2DD"/>
<path opacity="0.8" d="M178 279.536C210 319.536 183.5 334.703 172 340.036C203.5 351.536 217 313.536 216.5 289.536C223.5 345.036 237.5 345.036 258 342.536C234.5 339.536 240.833 306.869 248 289.536C278 279.536 238 257.536 217 257.536C185 258.736 173.6 274.036 178 279.536Z" fill="black" fill-opacity="0.4"/>
<path d="M290 265.653C298.774 289.011 327.677 277.84 338 261.591C290.929 268.497 304.108 250.758 316.323 240.264L295.161 223C296.71 246.358 296.194 257.021 290 265.653Z" fill="black" fill-opacity="0.4"/>
<path d="M149 265.834C128.704 284.486 103.204 277.428 98 261.801C145.461 268.657 132.173 251.046 119.857 240.628L138.592 225C134.949 248.694 140.153 258.776 149 265.834Z" fill="black" fill-opacity="0.4"/>
<path d="M279 166.546C225.115 198.157 171.881 179.717 152 166.546L157.5 162C199.868 181.047 252.548 169.936 275 162L279 166.546Z" fill="black" fill-opacity="0.4"/>
</svg>
