<svg width="446" height="366" viewBox="0 0 446 366" fill="none" xmlns="http://www.w3.org/2000/svg">
<path d="M162.438 162.514C177.477 169.82 222.165 179.706 278.024 161.225C319.561 191.883 383.556 256.639 317.556 280.707C311.254 281.996 297.532 281.051 293.063 266.954C290.199 293.887 286.618 349.044 249.235 343.887C239.827 343.459 222.841 337.411 221.326 291.25C221.821 310.667 212.911 336.643 192.516 342.167C168.884 344.746 159.087 336.064 154.274 266.954C141.24 281.137 103.141 289.733 99.2741 249.762C96.5194 238.587 114.313 188.302 162.438 162.514Z" fill="#C2C6D2"/>
<path d="M293.063 266.954C297.532 281.051 311.254 281.996 317.556 280.707C383.556 256.639 319.561 191.883 278.024 161.225C222.165 179.706 177.477 169.82 162.438 162.514C114.313 188.302 96.5194 238.587 99.2741 249.762C103.141 289.733 141.24 281.137 154.274 266.954M293.063 266.954C300.511 256.639 307.931 224.318 278.024 177.557M293.063 266.954C290.199 293.887 286.618 349.044 249.235 343.887C239.782 343.457 222.681 337.354 221.306 290.592M221.306 290.592C222.022 310.076 213.142 336.58 192.516 342.167C168.884 344.746 159.087 336.064 154.274 266.954M221.306 290.592C214.952 290.312 196.11 290.592 187.086 284.369M221.306 290.592C228.845 290.524 254.595 290.214 258.844 284.369M154.274 266.954C143.389 260.793 130.298 233.946 165.016 175.838" stroke="black" stroke-width="2"/>
<ellipse cx="223" cy="232.225" rx="46" ry="51" fill="#EFF0F4"/>
<path opacity="0.8" d="M182.097 278.66C213.924 318.443 187.567 333.527 176.13 338.831C207.459 350.269 220.886 312.475 220.388 288.606C227.35 343.804 241.274 343.804 261.663 341.318C238.291 338.334 244.59 305.845 251.717 288.606C281.554 278.66 241.772 256.779 220.886 256.779C189.059 257.973 177.721 273.19 182.097 278.66Z" fill="#6F727B" fill-opacity="0.4"/>
<path d="M293.489 266.842C302.216 290.072 330.962 278.962 341.229 262.801C294.413 269.67 307.52 252.028 319.669 241.591L298.622 224.42C300.162 247.651 299.649 258.256 293.489 266.842Z" fill="#6F727B" fill-opacity="0.4"/>
<path d="M153.254 266.027C133.069 284.578 107.707 277.558 102.531 262.015C149.735 268.834 136.519 251.319 124.27 240.957L142.903 225.415C139.28 248.98 144.455 259.007 153.254 266.027Z" fill="#6F727B" fill-opacity="0.4"/>
<path d="M282.549 166.283C228.956 197.722 176.012 179.383 156.238 166.283L161.708 161.762C203.846 180.706 256.24 169.655 278.571 161.762L282.549 166.283Z" fill="#6F727B" fill-opacity="0.4"/>
</svg>
