<svg width="446" height="366" viewBox="0 0 446 366" fill="none" xmlns="http://www.w3.org/2000/svg">
<path d="M44.6189 209.658C144.16 162.662 179.728 215.041 185.069 247.105C201.447 283.656 172.862 302.721 156.523 307.684C79.6615 320.17 49.8947 247.536 44.6189 209.658Z" fill="#EF9B46" stroke="black" stroke-width="2"/>
<path d="M45.0677 209.476C43.8185 218.623 57.3056 256.597 69.2554 271.461C83.5227 272.061 81.7849 251.463 74.6855 242.246C95.9384 238.17 93.115 222.815 86.8053 218.369C102.249 212.369 103.509 198.75 102.208 192.691C94.8999 188.865 57.4544 202.576 45.0677 209.476Z" fill="white" stroke="black" stroke-width="2" stroke-linecap="round"/>
<path d="M167.791 292.209C128.33 313.847 80.3138 278.091 61.2383 257.508C85.0097 309.145 135.112 312.551 157.191 307.799L164.085 304.961L167.791 292.209Z" fill="#82611A" fill-opacity="0.4"/>
<path d="M158.536 164.022C173.531 171.305 218.085 181.158 273.778 162.737C315.191 193.297 378.995 257.843 313.192 281.834C306.908 283.119 293.228 282.177 288.772 268.125C285.916 294.972 282.346 349.951 245.075 344.81C235.694 344.384 218.759 338.356 217.249 292.343C217.742 311.698 208.858 337.59 188.525 343.097C164.963 345.667 155.195 337.013 150.397 268.125C137.402 282.263 99.4161 290.831 95.5604 250.989C92.8139 239.85 110.555 189.727 158.536 164.022Z" fill="#EF9B46"/>
<path d="M288.772 268.125C293.228 282.177 306.908 283.119 313.192 281.834C378.995 257.843 315.191 193.297 273.778 162.737C218.085 181.158 173.531 171.305 158.536 164.022C110.555 189.727 92.8139 239.85 95.5604 250.989C99.4161 290.831 137.402 282.263 150.397 268.125M288.772 268.125C296.198 257.843 303.595 225.627 273.778 179.016M288.772 268.125C285.916 294.972 282.346 349.951 245.075 344.81C235.65 344.382 218.599 338.298 217.228 291.688M217.228 291.688C217.942 311.109 209.089 337.527 188.525 343.097C164.963 345.667 155.195 337.013 150.397 268.125M217.228 291.688C210.893 291.408 192.107 291.688 183.111 285.485M217.228 291.688C224.745 291.619 250.418 291.311 254.655 285.485M150.397 268.125C139.544 261.985 126.491 235.223 161.107 177.303" stroke="black" stroke-width="2"/>
<ellipse cx="218.559" cy="233.687" rx="45.4859" ry="50.5871" fill="white"/>
<path d="M289.1 268.856C297.784 291.972 326.388 280.917 336.604 264.836C290.02 271.67 303.062 254.116 315.15 243.73L294.208 226.645C295.74 249.761 295.23 260.313 289.1 268.856Z" fill="#82611A" fill-opacity="0.4"/>
<path d="M149.559 268.045C129.473 286.505 104.237 279.52 99.0869 264.054C146.057 270.839 132.907 253.411 120.718 243.1L139.259 227.634C135.654 251.083 140.804 261.061 149.559 268.045Z" fill="#82611A" fill-opacity="0.4"/>
<path opacity="0.8" d="M178.259 280.452C209.928 320.038 183.702 335.047 172.321 340.326C203.495 351.707 216.856 314.1 216.361 290.348C223.288 345.274 237.144 345.274 257.431 342.8C234.175 339.831 240.442 307.502 247.535 290.348C277.225 280.452 237.638 258.679 216.856 258.679C185.187 259.867 173.905 275.008 178.259 280.452Z" fill="#82611A" fill-opacity="0.4"/>
<path d="M279.204 167.806C225.876 199.09 173.193 180.841 153.518 167.806L156.062 164.297C197.991 183.147 253.025 171.161 275.245 163.307L279.204 167.806Z" fill="#82611A" fill-opacity="0.4"/>
</svg>
