<svg width="446" height="366" viewBox="0 0 446 366" fill="none" xmlns="http://www.w3.org/2000/svg">
<path d="M158.438 161.219C173.477 168.526 218.165 178.411 274.024 159.93C315.561 190.588 379.556 255.344 313.556 279.412C307.254 280.701 293.532 279.756 289.063 265.659C286.199 292.592 282.618 347.749 245.235 342.592C235.827 342.164 218.841 336.116 217.326 289.955C217.821 309.372 208.911 335.348 188.516 340.872C164.884 343.451 155.087 334.769 150.274 265.659C137.24 279.842 99.1413 288.438 95.2741 248.467C92.5194 237.292 110.313 187.007 158.438 161.219Z" fill="#BB856E"/>
<path d="M274.618 159.125C295.419 174.478 321.941 198.434 334.988 221.652C341.508 233.256 344.761 244.851 342.03 255.156C339.283 265.521 330.573 274.27 313.898 280.352L313.828 280.377L313.755 280.392C310.454 281.067 305.249 281.156 300.262 279.238C296.164 277.662 292.23 274.732 289.649 269.719C288.29 283.015 286.451 301.406 281.035 316.497C278.044 324.831 273.927 332.265 268.105 337.291C262.255 342.341 254.748 344.899 245.151 343.588C240.234 343.357 233.345 341.638 227.526 334.031C222.95 328.05 219.092 318.498 217.297 303.328C216.242 309.386 214.378 315.506 211.652 321.063C206.859 330.833 199.344 338.975 188.778 341.838L188.702 341.858L188.624 341.866C182.67 342.516 177.445 342.477 172.912 340.869C168.336 339.246 164.571 336.063 161.469 330.646C158.385 325.261 155.946 317.65 153.973 307.113C152.082 297.015 150.611 284.17 149.432 267.916C142.38 274.461 130.332 279.39 119.244 278.366C113.226 277.811 107.451 275.496 102.937 270.695C98.4373 265.91 95.2735 258.743 94.2845 248.626C93.9162 247.062 93.9132 244.942 94.2308 242.441C94.5564 239.878 95.2276 236.841 96.2562 233.456C98.3138 226.686 101.817 218.474 106.913 209.815C117.106 192.5 133.709 173.335 157.965 160.338L158.415 160.097L158.874 160.319C173.663 167.504 218.08 177.385 273.709 158.98L274.202 158.817L274.618 159.125ZM273.842 161.041C218.542 179.193 174.141 169.718 158.467 162.34C134.839 175.125 118.622 193.868 108.637 210.83C103.614 219.363 100.178 227.43 98.1703 234.037C97.1662 237.341 96.5234 240.267 96.2152 242.693C95.9239 244.987 95.9394 246.77 96.1908 247.991L96.2445 248.228L96.2621 248.298L96.2689 248.371C97.2205 258.206 100.265 264.934 104.394 269.325C108.518 273.712 113.809 275.856 119.428 276.375C130.256 277.375 142.156 272.317 148.695 265.853C143.218 262.135 137.823 253.669 137.543 239.601C137.245 224.601 142.744 203.175 160.158 174.029L161.874 175.056C144.57 204.018 139.254 225.07 139.542 239.562C139.831 254.052 145.708 261.926 150.766 264.788L151.234 265.053L151.271 265.589C152.473 282.85 153.985 296.308 155.939 306.745C157.895 317.193 160.283 324.551 163.204 329.652C166.108 334.722 169.524 337.545 173.581 338.984C177.665 340.433 182.502 340.516 188.33 339.886C198.118 337.205 205.231 329.612 209.857 320.183C214.448 310.823 216.527 299.764 216.33 290.263C212.978 290.153 207.154 290.088 201.085 289.408C194.437 288.664 187.25 287.161 182.518 283.897L183.654 282.251C187.945 285.21 194.691 286.68 201.308 287.421C207.888 288.158 214.098 288.155 217.336 288.297C221.124 288.262 229.374 288.166 237.205 287.357C241.138 286.952 244.929 286.369 247.983 285.538C249.509 285.122 250.825 284.651 251.869 284.124C252.925 283.591 253.635 283.036 254.035 282.486L255.653 283.662C254.99 284.574 253.965 285.307 252.77 285.91C251.564 286.519 250.111 287.031 248.508 287.468C245.303 288.341 241.389 288.936 237.41 289.347C230.105 290.101 222.461 290.241 218.338 290.286C219.129 313.044 223.713 325.755 229.115 332.815C234.335 339.639 240.399 341.287 244.854 341.569L245.28 341.593L245.326 341.595L245.371 341.601C254.44 342.852 261.383 340.451 266.797 335.777C272.25 331.07 276.217 323.999 279.152 315.821C285.027 299.451 286.63 279.077 288.069 265.553L288.096 265.289L288.252 265.073C295.38 255.201 302.95 223.348 273.181 176.801L274.867 175.723C304.526 222.099 297.82 254.645 290.169 265.82C292.351 272.25 296.563 275.673 300.981 277.372C305.512 279.115 310.281 279.046 313.285 278.445C329.561 272.494 337.582 264.134 340.097 254.645C342.631 245.081 339.664 234.057 333.243 222.632C320.494 199.942 294.512 176.355 273.842 161.041Z" fill="black"/>
<path d="M267.683 231.136C267.683 259.367 247.105 282.252 221.721 282.252C196.337 282.252 175.76 259.367 175.76 231.136C175.76 202.905 196.337 180.02 221.721 180.02C247.105 180.02 267.683 202.905 267.683 231.136Z" fill="#D3A08A"/>
<path opacity="0.8" d="M178 277.93C210 317.93 183.5 333.096 172 338.43C203.5 349.93 217 311.93 216.5 287.93C223.5 343.43 237.5 343.43 258 340.93C234.5 337.93 240.833 305.263 248 287.93C278 277.93 238 255.93 217 255.93C185 257.13 173.6 272.43 178 277.93Z" fill="black" fill-opacity="0.4"/>
<path d="M290 266.047C298.774 289.404 327.677 278.233 338 261.984C290.929 268.89 304.108 251.152 316.323 240.658L295.161 223.394C296.71 246.751 296.194 257.414 290 266.047Z" fill="black" fill-opacity="0.4"/>
<path d="M149 265.227C128.704 283.88 103.204 276.822 98 261.194C145.461 268.05 132.173 250.44 119.857 240.021L138.592 224.394C134.949 248.087 140.153 258.17 149 265.227Z" fill="black" fill-opacity="0.4"/>
<path d="M279 164.94C225.115 196.55 171.881 178.111 152 164.94L157.5 160.394C199.868 179.441 252.548 168.33 275 160.394L279 164.94Z" fill="black" fill-opacity="0.4"/>
<path d="M278.17 166.163C224.285 197.774 171.051 179.334 151.17 166.163L156.67 161.617C199.038 180.664 251.718 169.553 274.17 161.617L278.17 166.163Z" fill="black" fill-opacity="0.4"/>
</svg>
