<svg width="446" height="366" viewBox="0 0 446 366" fill="none" xmlns="http://www.w3.org/2000/svg">
<path d="M350.277 250.791C327.877 279.591 285.843 282.124 276.51 281.291C264.176 281.291 249.963 295.742 277.51 295.291C308.01 294.791 339.944 271.957 350.277 250.791Z" fill="#E4AA51" stroke="black"/>
<path d="M340.128 249.77C338.128 258.17 343.628 260.27 346.628 260.27C353.55 267.77 358.624 258.27 360.124 258.27C371.453 258.348 370.513 254.302 367.126 251.27C377.125 249.771 369.961 244.103 367.128 243.77C369.126 235.77 367.128 233.27 362.626 236.77C361.793 233.436 359.526 225.17 353.126 236.77C352.96 231.77 350.726 225.87 343.126 242.27C341.461 240.77 338.529 240.17 340.128 249.77Z" fill="#BE5818" stroke="black"/>
<path d="M158.438 161.289C173.477 168.596 218.165 178.481 274.024 160C315.561 190.659 379.556 255.414 313.556 279.482C307.254 280.772 293.532 279.826 289.063 265.729C286.199 292.663 282.618 347.819 245.235 342.662C235.827 342.234 218.841 336.186 217.326 290.025C217.821 309.443 208.911 335.418 188.516 340.943C164.884 343.522 155.087 334.84 150.274 265.729C137.24 279.912 99.1413 288.508 95.2741 248.537C92.5194 237.363 110.313 187.077 158.438 161.289Z" fill="#E4AA51"/>
<path d="M289.063 265.729C293.532 279.826 307.254 280.772 313.556 279.482C379.556 255.414 315.561 190.659 274.024 160C218.165 178.481 173.477 168.596 158.438 161.289C110.313 187.077 92.5194 237.363 95.2741 248.537C99.1413 288.508 137.24 279.912 150.274 265.729M289.063 265.729C296.511 255.414 303.931 223.094 274.024 176.332M289.063 265.729C286.199 292.663 282.618 347.819 245.235 342.662C235.782 342.232 218.681 336.129 217.306 289.368M217.306 289.368C218.022 308.852 209.142 335.355 188.516 340.943C164.884 343.522 155.087 334.84 150.274 265.729M217.306 289.368C210.952 289.087 192.11 289.368 183.086 283.145M217.306 289.368C224.845 289.299 250.595 288.99 254.844 283.145M150.274 265.729C139.389 259.569 126.298 232.721 161.016 174.613" stroke="black" stroke-width="2"/>
<ellipse cx="218.627" cy="224.906" rx="45.9614" ry="51.116" fill="#F3CB83"/>
<path opacity="0.8" d="M178 278C210 318 183.5 333.167 172 338.5C203.5 350 217 312 216.5 288C223.5 343.5 237.5 343.5 258 341C234.5 338 240.833 305.333 248 288C278 278 238 256 217 256C185 257.2 173.6 272.5 178 278Z" fill="#5C4D35" fill-opacity="0.2"/>
<path d="M290 266.117C298.774 289.475 327.677 278.304 338 262.055C290.929 268.961 304.108 251.222 316.323 240.728L295.161 223.464C296.71 246.822 296.194 257.485 290 266.117Z" fill="#5C4D35" fill-opacity="0.2"/>
<path d="M149 265.297C128.704 283.95 103.204 276.892 98 261.265C145.461 268.121 132.173 250.51 119.857 240.092L138.592 224.464C134.949 248.157 140.153 258.24 149 265.297Z" fill="#5C4D35" fill-opacity="0.2"/>
<path d="M279 165.01C225.115 196.621 171.881 178.181 152 165.01L157.5 160.464C199.868 179.511 252.548 168.4 275 160.464L279 165.01Z" fill="#5C4D35" fill-opacity="0.2"/>
</svg>
