<svg width="446" height="366" viewBox="0 0 446 366" fill="none" xmlns="http://www.w3.org/2000/svg">
<path d="M157.438 161.758C172.477 169.065 217.165 178.95 273.024 160.469C314.561 191.127 378.556 255.883 312.556 279.951C306.254 281.241 292.532 280.295 288.063 266.198C285.199 293.131 281.618 348.288 244.235 343.131C234.827 342.703 217.841 336.655 216.326 290.494C216.821 309.911 207.911 335.887 187.516 341.412C163.884 343.99 154.087 335.308 149.274 266.198C136.24 280.381 98.1413 288.977 94.2741 249.006C91.5194 237.831 109.313 187.546 157.438 161.758Z" fill="#221E1D"/>
<path d="M288.063 266.198C292.532 280.295 306.254 281.241 312.556 279.951C378.556 255.883 314.561 191.127 273.024 160.469C217.165 178.95 172.477 169.065 157.438 161.758C109.313 187.546 91.5194 237.831 94.2741 249.006C98.1413 288.977 136.24 280.381 149.274 266.198M288.063 266.198C295.511 255.883 302.931 223.562 273.024 176.801M288.063 266.198C285.199 293.131 281.618 348.288 244.235 343.131C234.782 342.701 217.681 336.598 216.306 289.836M216.306 289.836C217.022 309.32 208.142 335.824 187.516 341.412C163.884 343.99 154.087 335.308 149.274 266.198M216.306 289.836C209.952 289.556 191.11 289.836 182.086 283.613M216.306 289.836C223.845 289.768 249.595 289.459 253.844 283.613M149.274 266.198C138.389 260.037 125.298 233.19 160.016 175.082" stroke="black" stroke-width="2"/>
<path d="M263.923 188.016C263.923 159.785 243.345 188.016 217.961 188.016C192.578 188.016 172 159.785 172 188.016C172 216.246 192.578 239.132 217.961 239.132C243.345 239.132 263.923 216.246 263.923 188.016Z" fill="#F19848"/>
<path opacity="0.8" d="M177 280.005C209 320.005 182.5 335.172 171 340.505C202.5 352.005 216 314.005 215.5 290.005C222.5 345.505 236.5 345.505 257 343.005C233.5 340.005 239.833 307.338 247 290.005C277 280.005 237 258.005 216 258.005C184 259.205 172.6 274.505 177 280.005Z" fill="black" fill-opacity="0.4"/>
<path d="M289 266.122C297.774 289.48 326.677 278.308 337 262.06C289.929 268.965 303.108 251.227 315.323 240.733L294.161 223.469C295.71 246.826 295.194 257.49 289 266.122Z" fill="black" fill-opacity="0.4"/>
<path d="M148 266.302C127.704 284.955 102.204 277.897 97 262.269C144.461 269.125 131.173 251.515 118.857 241.096L137.592 225.469C133.949 249.162 139.153 259.245 148 266.302Z" fill="black" fill-opacity="0.4"/>
<path d="M278 167.015C224.115 198.626 170.881 180.186 151 167.015L156.5 162.469C198.868 181.516 251.548 170.405 274 162.469L278 167.015Z" fill="black" fill-opacity="0.4"/>
</svg>
