<svg width="446" height="366" viewBox="0 0 446 366" fill="none" xmlns="http://www.w3.org/2000/svg">
<path d="M127.608 221.507C136.408 256.307 151.275 262.673 157.608 261.507C177.275 270.173 206.308 288.507 165.108 292.507C123.908 296.507 111.466 228.007 111.466 221.507C93.8662 102.712 86.9662 121 56.9661 155.5C38.9662 176.2 22.7748 148.34 35.6081 134.507C106.808 51.3067 126.608 157.84 127.608 221.507Z" fill="#E8A344" stroke="black"/>
<path d="M158.904 160.826C173.943 168.132 218.631 178.017 274.49 159.536C316.027 190.195 380.022 254.95 314.021 279.019C307.719 280.308 293.998 279.362 289.529 265.265C286.665 292.199 283.084 347.356 245.701 342.198C236.293 341.77 219.307 335.723 217.792 289.561C218.287 308.979 209.376 334.954 188.982 340.479C165.349 343.058 155.552 334.376 150.74 265.265C137.706 279.448 99.6071 288.044 95.7399 248.073C92.9852 236.899 110.779 186.613 158.904 160.826Z" fill="#E8A344"/>
<path d="M289.529 265.265C293.998 279.362 307.719 280.308 314.022 279.019C380.022 254.95 316.027 190.195 274.49 159.536C218.631 178.017 173.943 168.132 158.904 160.826C110.779 186.613 92.9852 236.899 95.7399 248.073C99.6071 288.044 137.706 279.448 150.74 265.265M289.529 265.265C296.977 254.95 304.396 222.63 274.49 175.868M289.529 265.265C286.665 292.199 283.084 347.356 245.701 342.198C236.248 341.768 219.146 335.665 217.771 288.904M217.771 288.904C218.487 308.388 209.607 334.892 188.982 340.479C165.349 343.058 155.552 334.376 150.74 265.265M217.771 288.904C211.417 288.623 192.575 288.904 183.552 282.681M217.771 288.904C225.311 288.835 251.06 288.526 255.31 282.681M150.74 265.265C139.855 259.105 126.763 232.257 161.482 174.149" stroke="black" stroke-width="2"/>
<ellipse cx="217.427" cy="233.116" rx="45.9614" ry="51.116" fill="#F5D3A5"/>
<path opacity="0.8" d="M178.466 277.536C210.466 317.536 183.966 332.703 172.466 338.036C203.966 349.536 217.466 311.536 216.966 287.536C223.966 343.036 237.966 343.036 258.466 340.536C234.966 337.536 241.299 304.869 248.466 287.536C278.466 277.536 238.466 255.536 217.466 255.536C185.466 256.736 174.066 272.036 178.466 277.536Z" fill="black" fill-opacity="0.4"/>
<path d="M290.466 265.653C299.24 289.011 328.143 277.84 338.466 261.591C291.395 268.497 304.573 250.758 316.788 240.264L295.627 223C297.175 246.358 296.659 257.021 290.466 265.653Z" fill="black" fill-opacity="0.4"/>
<path d="M150.466 265.834C130.17 284.486 104.67 277.428 99.4658 261.801C146.927 268.657 133.639 251.046 121.323 240.628L140.058 225C136.415 248.694 141.619 258.776 150.466 265.834Z" fill="black" fill-opacity="0.4"/>
<path d="M279.466 164.546C225.581 196.157 172.347 177.717 152.466 164.546L157.966 160C200.333 179.047 253.014 167.936 275.466 160L279.466 164.546Z" fill="black" fill-opacity="0.4"/>
</svg>
