<svg width="446" height="366" viewBox="0 0 446 366" fill="none" xmlns="http://www.w3.org/2000/svg">
<path d="M248.193 364C216.414 344.779 241.633 316.412 259.227 329.204C306.307 360.686 279.825 364.828 265.848 344.945C274.087 373.445 258.982 359.581 250.4 349.087C256.873 357.041 251.626 362.343 248.193 364Z" fill="#F0A144" stroke="black" stroke-width="2"/>
<path d="M174.521 364C206.899 344.779 181.204 316.412 163.278 329.204C115.309 360.686 142.291 364.828 156.532 344.945C148.138 373.445 163.528 359.581 172.272 349.087C165.676 357.041 171.023 362.343 174.521 364Z" fill="#F0A144" stroke="black" stroke-width="2"/>
<path d="M158.417 162.289C173.496 169.596 218.303 179.481 274.31 161C315.957 191.659 364.411 259.289 338.926 287.533C332.607 288.822 293.87 280.826 289.39 266.729C286.517 293.663 282.927 348.819 245.445 343.662C236.011 343.234 218.981 337.186 217.461 291.025C217.958 310.443 209.023 336.418 188.575 341.943C164.879 344.522 155.056 335.84 150.231 266.729C137.163 280.912 90.4892 290.234 82.1718 276.944C79.4098 265.77 110.164 188.077 158.417 162.289Z" fill="#DF8D47"/>
<path d="M289.39 266.729C293.87 280.826 332.607 288.822 338.926 287.533C364.411 259.289 315.957 191.659 274.31 161C218.303 179.481 173.496 169.596 158.417 162.289C110.164 188.077 79.4098 265.77 82.1718 276.944C90.4892 290.234 137.163 280.912 150.231 266.729M289.39 266.729C296.857 256.414 304.296 224.094 274.31 177.332M289.39 266.729C286.517 293.663 282.927 348.819 245.445 343.662C235.967 343.232 218.819 337.129 217.441 290.368M217.441 290.368C218.159 309.852 209.255 336.355 188.575 341.943C164.879 344.522 155.056 335.84 150.231 266.729M217.441 290.368C211.07 290.087 192.178 290.368 183.13 284.145M217.441 290.368C225 290.299 250.818 289.99 255.079 284.145M150.231 266.729C139.317 260.569 126.191 233.721 161.002 175.613" stroke="black" stroke-width="2"/>
<ellipse cx="216.5" cy="224.5" rx="46.5" ry="51.5" fill="#F1D4A5"/>
<path d="M195.304 204.793C196.886 208.606 201.526 213.945 207.432 204.793" stroke="#D4A072" stroke-width="2" stroke-linecap="round"/>
<path d="M225.624 204.793C227.206 208.606 231.846 213.945 237.752 204.793" stroke="#D4A072" stroke-width="2" stroke-linecap="round"/>
<path d="M193.282 242.188C194.864 246.001 199.504 251.34 205.41 242.188" stroke="#D4A072" stroke-width="2" stroke-linecap="round"/>
<path d="M209.453 255.327C211.035 259.14 215.675 264.479 221.581 255.327" stroke="#D4A072" stroke-width="2" stroke-linecap="round"/>
<path d="M223.603 242.188C225.184 246.001 229.825 251.34 235.73 242.188" stroke="#D4A072" stroke-width="2" stroke-linecap="round"/>
<path d="M209.453 221.975C211.035 225.788 215.675 231.127 221.581 221.975" stroke="#D4A072" stroke-width="2" stroke-linecap="round"/>
<path d="M180.144 222.985C181.725 226.798 186.366 232.137 192.272 222.985" stroke="#D4A072" stroke-width="2" stroke-linecap="round"/>
<path d="M237.751 221.975C239.333 225.788 243.974 231.127 249.879 221.975" stroke="#D4A072" stroke-width="2" stroke-linecap="round"/>
<path d="M149.319 266.951C129.611 285.648 88.6773 290.196 83.624 274.531C129.71 281.403 132.98 252.128 121.021 241.684L139.212 226.019C135.675 249.77 140.728 259.876 149.319 266.951Z" fill="#8B5719" fill-opacity="0.4"/>
<path d="M290.812 266.951C300.917 279.585 318.604 287.165 338.817 287.165C311.529 268.973 304.625 252.128 316.584 241.685L295.866 224.503C297.382 247.749 296.876 258.361 290.812 266.951Z" fill="#8B5719" fill-opacity="0.4"/>
<path d="M279.695 164.874C226.736 196.406 174.417 178.012 154.878 164.874L157.405 161.336C199.044 180.337 253.586 169.253 275.652 161.336L279.695 164.874Z" fill="#8B5719" fill-opacity="0.4"/>
<path opacity="0.8" d="M178.124 279.585C210.465 320.011 183.682 335.34 172.06 340.73C203.895 352.352 217.539 313.947 217.034 289.691C224.109 345.783 238.258 345.783 258.977 343.256C235.226 340.224 241.627 307.209 248.87 289.691C279.19 279.585 238.763 257.35 217.539 257.35C185.198 258.563 173.677 274.026 178.124 279.585Z" fill="#8B5719" fill-opacity="0.4"/>
</svg>
