<svg width="446" height="366" viewBox="0 0 446 366" fill="none" xmlns="http://www.w3.org/2000/svg">
<path d="M248.715 364.107C216.444 345.092 242.054 317.028 259.921 329.683C307.73 360.828 280.838 364.926 266.644 345.255C275.011 373.45 259.672 359.735 250.956 349.354C257.53 357.222 252.201 362.467 248.715 364.107Z" fill="#AFB4B7" stroke="black" stroke-width="2"/>
<path d="M174.484 364.107C206.755 345.092 181.146 317.028 163.279 329.683C115.469 360.828 142.361 364.926 156.555 345.255C148.189 373.45 163.528 359.735 172.243 349.354C165.669 357.222 170.998 362.467 174.484 364.107Z" fill="#AFB4B7" stroke="black" stroke-width="2"/>
<path d="M158.291 162.295C173.394 169.63 217 174 275.5 161.5C317.214 192.282 364.615 259.684 339.089 288.042C332.76 289.336 293.961 281.308 289.473 267.154C286.596 294.196 283 349.575 245.458 344.397C236.009 343.967 218.951 337.895 217.429 291.548C217.927 311.044 208.978 337.124 188.497 342.671C164.763 345.26 154.925 336.543 150.092 267.154C137.002 281.395 90.2538 290.753 81.9231 277.411C79.1567 266.191 109.96 188.186 158.291 162.295Z" fill="#FF9D08"/>
<path d="M289.473 267.154C293.961 281.308 332.76 289.336 339.089 288.042C364.615 259.684 317.214 192.282 275.5 161.5C217 174 173.394 169.63 158.291 162.295C109.96 188.186 79.1567 266.191 81.9231 277.411C90.2538 290.753 137.002 281.395 150.092 267.154M289.473 267.154C296.953 256.798 304.404 224.347 274.37 177.398M289.473 267.154C286.596 294.196 283 349.575 245.458 344.397C235.964 343.965 218.79 337.838 217.409 290.888M217.409 290.888C218.128 310.45 209.21 337.061 188.497 342.671C164.763 345.26 154.925 336.543 150.092 267.154M217.409 290.888C211.028 290.606 192.105 290.888 183.043 284.64M217.409 290.888C224.98 290.819 250.84 290.509 255.108 284.64M150.092 267.154C139.16 260.969 126.013 234.013 160.88 175.672" stroke="black" stroke-width="2"/>
<path d="M351.492 321.605C358.049 310.177 340.58 246.66 333.822 231.549L323.292 261.905C333.137 302.943 346.194 318.804 351.492 321.605Z" fill="#355DD3" stroke="#2748A7"/>
<path d="M340.67 311.959C347.227 300.531 329.759 237.014 323.001 221.902L312.471 252.258C322.316 293.297 335.373 309.158 340.67 311.959Z" fill="#355DD3" stroke="#2748A7"/>
<path d="M332.165 305.134C338.722 293.706 321.253 230.189 314.495 215.077L307.754 246.893C317.599 287.931 326.867 302.333 332.165 305.134Z" fill="#355DD3" stroke="#2748A7"/>
<path d="M323.93 297.333C330.487 285.905 318.542 220.896 311.784 205.784L309.057 242.527C318.902 283.566 318.633 294.532 323.93 297.333Z" fill="#355DD3" stroke="#2748A7"/>
<path d="M295.047 253.11C311.753 283.483 329.471 290.064 340.102 288.546C368.957 256.653 299.657 174.137 275.358 161.481L262.648 164.013C261.838 166.848 271.254 173.439 275.358 179.706C297.632 213.725 296.566 232.86 295.047 253.11Z" fill="#08A1B9" stroke="black" stroke-width="2"/>
<path d="M72.0642 318.026C66.9821 305.87 92.229 245.025 100.817 230.873L107.483 262.304C92.6008 301.797 77.6696 315.907 72.0642 318.026Z" fill="#355DD3" stroke="#2748A7"/>
<path d="M84.0027 309.803C78.9206 297.647 104.167 236.802 112.756 222.65L119.421 254.081C104.539 293.573 89.6081 307.684 84.0027 309.803Z" fill="#355DD3" stroke="#2748A7"/>
<path d="M93.2908 304.09C88.2086 291.934 113.456 231.089 122.044 216.938L124.768 249.345C109.886 288.837 98.8961 301.972 93.2908 304.09Z" fill="#355DD3" stroke="#2748A7"/>
<path d="M102.434 297.377C97.3517 285.221 117.304 222.207 125.893 208.055L124.02 244.851C109.138 284.343 108.039 295.258 102.434 297.377Z" fill="#355DD3" stroke="#2748A7"/>
<path d="M72.0642 318.026C66.9821 305.87 92.229 245.025 100.817 230.873L107.483 262.304C92.6008 301.797 77.6696 315.907 72.0642 318.026Z" fill="#355DD3" stroke="#2748A7"/>
<path d="M84.0027 309.803C78.9206 297.647 104.167 236.802 112.756 222.65L119.421 254.081C104.539 293.573 89.6081 307.684 84.0027 309.803Z" fill="#355DD3" stroke="#2748A7"/>
<path d="M93.2908 304.09C88.2086 291.934 113.456 231.089 122.044 216.938L124.768 249.345C109.886 288.837 98.8961 301.972 93.2908 304.09Z" fill="#355DD3" stroke="#2748A7"/>
<path d="M102.434 297.377C97.3517 285.221 117.304 222.207 125.893 208.055L124.02 244.851C109.138 284.343 108.039 295.258 102.434 297.377Z" fill="#355DD3" stroke="#2748A7"/>
<path d="M139 250C122.294 280.374 92.0489 278.421 81.418 276.903C91.0364 225.267 133.56 174.644 157.859 161.988L172.54 167.556C173.35 170.391 164.778 174.812 160.39 176.669C138.116 210.687 136.638 239.875 139 250Z" fill="#08A1B9" stroke="black" stroke-width="2"/>
<path d="M92.0745 257.157C87.9955 258.17 73.821 292.087 100.652 264.244" stroke="#118391" stroke-width="2" stroke-linecap="round"/>
<path d="M112.14 253.469C108.061 254.482 93.8865 288.399 120.717 260.556" stroke="#118391" stroke-width="2" stroke-linecap="round"/>
<path d="M103.028 236.259C98.9491 237.271 84.7747 271.189 111.605 243.346" stroke="#118391" stroke-width="2" stroke-linecap="round"/>
<path d="M119.228 213.985C115.149 214.997 100.974 248.915 127.805 221.072" stroke="#118391" stroke-width="2" stroke-linecap="round"/>
<path d="M130.366 190.698C126.287 191.711 112.112 225.629 138.943 197.786" stroke="#118391" stroke-width="2" stroke-linecap="round"/>
<path d="M133.924 220.606C132.037 221.074 125.479 236.768 137.893 223.885" stroke="#118391" stroke-width="2" stroke-linecap="round"/>
<path d="M120.761 244.905C118.874 245.374 112.316 261.067 124.73 248.184" stroke="#118391" stroke-width="2" stroke-linecap="round"/>
<path d="M120.761 244.905C118.874 245.374 112.316 261.067 124.73 248.184" stroke="#118391" stroke-width="2" stroke-linecap="round"/>
<path d="M135.95 206.432C134.062 206.9 127.504 222.593 139.918 209.711" stroke="#118391" stroke-width="2" stroke-linecap="round"/>
<path d="M145.062 188.206C143.175 188.675 136.616 204.368 149.03 191.485" stroke="#118391" stroke-width="2" stroke-linecap="round"/>
<path d="M141.011 177.07C139.124 177.539 132.566 193.232 144.98 180.349" stroke="#118391" stroke-width="2" stroke-linecap="round"/>
<path d="M334.632 263.122C338.612 264.471 349.91 299.452 325.494 269.47" stroke="#118391" stroke-width="2" stroke-linecap="round"/>
<path d="M314.945 257.774C318.925 259.123 330.223 294.104 305.807 264.122" stroke="#118391" stroke-width="2" stroke-linecap="round"/>
<path d="M325.46 241.383C329.441 242.732 340.739 277.713 316.323 247.731" stroke="#118391" stroke-width="2" stroke-linecap="round"/>
<path d="M311.173 217.837C315.154 219.186 326.452 254.167 302.035 224.185" stroke="#118391" stroke-width="2" stroke-linecap="round"/>
<path d="M302.015 193.704C305.996 195.053 317.294 230.034 292.877 200.051" stroke="#118391" stroke-width="2" stroke-linecap="round"/>
<path d="M307.067 248.521C308.909 249.145 314.136 265.331 302.839 251.458" stroke="#118391" stroke-width="2" stroke-linecap="round"/>
<path d="M307.067 248.521C308.909 249.145 314.136 265.331 302.839 251.458" stroke="#118391" stroke-width="2" stroke-linecap="round"/>
<path d="M299.692 212.398C301.534 213.022 306.761 229.207 295.464 215.335" stroke="#118391" stroke-width="2" stroke-linecap="round"/>
<path d="M290.581 190.123C292.357 190.455 296.485 201.735 286.227 192.498" stroke="#118391" stroke-width="2" stroke-linecap="round"/>
<path d="M292.541 179.235C294.383 179.859 299.61 196.044 288.313 182.172" stroke="#118391" stroke-width="2" stroke-linecap="round"/>
<path d="M178.393 192.521C175.815 192.521 168 172.075 168 166C168 166 194.453 169.512 211.493 169.5C232.693 169.486 265.5 164 265.5 164C261.786 170.354 262.451 172.764 261.13 184.768C259.81 196.772 245.654 184.275 242.353 176.705C239.052 187.249 233.816 199.821 230.799 205.093C224.857 215.475 214.382 188.601 211.493 175.894C197.463 229.831 193.75 201.1 193.75 194.549C193.75 193.738 191.048 186.843 189.122 180.355C187.471 190.493 179.219 192.521 178.393 192.521Z" fill="#FAC703" stroke="black" stroke-width="2"/>
<path d="M289.98 268.476C300.209 281.336 318.115 289.052 338.578 289.052C310.953 270.534 303.963 253.387 316.071 242.756L295.096 225.267C296.63 248.929 296.119 259.731 289.98 268.476Z" fill="#4A310B" fill-opacity="0.4"/>
<path d="M150.26 267.003C129.606 285.606 86.7079 290.131 81.4121 274.545C129.71 281.382 133.137 252.256 120.603 241.865L139.668 226.279C135.961 249.909 141.257 259.965 150.26 267.003Z" fill="#4A310B" fill-opacity="0.4"/>
<path d="M279.358 165.027C226.305 196.616 173.893 178.189 154.318 165.027L156.85 161.483C198.563 180.518 253.202 169.414 275.308 161.483L279.358 165.027Z" fill="#4A310B" fill-opacity="0.4"/>
<path opacity="0.8" d="M177.604 279.942C210.003 320.44 183.173 335.796 171.529 341.196C203.422 352.839 217.09 314.366 216.584 290.066C223.671 346.258 237.846 346.258 258.601 343.727C234.808 340.69 241.221 307.616 248.477 290.066C278.851 279.942 238.352 257.667 217.09 257.667C184.691 258.882 173.149 274.373 177.604 279.942Z" fill="#4A310B" fill-opacity="0.4"/>
</svg>
