<svg width="446" height="366" viewBox="0 0 446 366" fill="none" xmlns="http://www.w3.org/2000/svg">
<path d="M246.685 363C214.466 344.088 240.035 316.176 257.873 328.762C305.606 359.739 278.757 363.815 264.585 344.251C272.939 372.293 257.624 358.652 248.923 348.327C255.486 356.152 250.166 361.37 246.685 363Z" fill="#F2BC41" stroke="black" stroke-width="2"/>
<path d="M173.584 362.011C205.803 343.099 180.235 315.187 162.396 327.773C114.663 358.75 141.512 362.826 155.684 343.262C147.33 371.304 162.645 357.664 171.346 347.338C164.783 355.164 170.103 360.381 173.584 362.011Z" fill="#F2BC41" stroke="black" stroke-width="2"/>
<path d="M157.417 161.288C172.496 168.584 217.303 178.455 273.31 160C314.957 190.616 363.411 258.152 337.926 286.356C331.607 287.644 292.87 279.659 288.39 265.582C285.517 292.478 281.927 347.558 244.445 342.408C235.011 341.98 217.981 335.941 216.461 289.844C216.958 309.235 208.023 335.174 187.575 340.691C163.879 343.266 154.056 334.596 149.231 265.582C136.163 279.745 89.4892 289.054 81.1718 275.783C78.4098 264.624 109.164 187.039 157.417 161.288Z" fill="#434343"/>
<path d="M288.39 265.582C292.87 279.659 331.607 287.644 337.926 286.356C363.411 258.152 314.957 190.616 273.31 160C217.303 178.455 172.496 168.584 157.417 161.288C109.164 187.039 78.4098 264.624 81.1718 275.783C89.4892 289.054 136.163 279.745 149.231 265.582M288.39 265.582C295.857 255.281 303.296 223.006 273.31 176.309M288.39 265.582C285.517 292.478 281.927 347.558 244.445 342.408C234.967 341.978 217.819 335.884 216.441 289.187M216.441 289.187C217.159 308.644 208.255 335.111 187.575 340.691C163.879 343.266 154.056 334.596 149.231 265.582M216.441 289.187C210.07 288.907 191.178 289.187 182.13 282.973M216.441 289.187C224 289.119 249.818 288.81 254.079 282.973M149.231 265.582C138.317 259.43 125.191 232.62 160.002 174.593" stroke="black" stroke-width="2"/>
<path d="M279.803 218.382C279.803 257.035 278.115 289.881 216.453 288.371C160.351 286.997 153.447 257.035 153.447 218.382C153.447 179.729 181.68 171.664 216.572 171.664C251.464 171.664 279.803 179.729 279.803 218.382Z" fill="#FFFEFE"/>
<path d="M147.89 265.713C128.179 284.343 87.2378 288.874 82.1836 273.266C128.278 280.114 131.548 250.944 119.587 240.538L137.782 224.93C134.244 248.594 139.298 258.664 147.89 265.713Z" fill="#272522" fill-opacity="0.4"/>
<path d="M289.408 265.713C299.515 278.301 317.205 285.853 337.421 285.853C310.129 267.727 303.223 250.944 315.185 240.538L294.462 223.419C295.979 246.58 295.473 257.154 289.408 265.713Z" fill="#272522" fill-opacity="0.4"/>
<path opacity="0.8" d="M176.699 278.301C209.046 318.581 182.259 333.854 170.634 339.225C202.476 350.805 216.122 312.539 215.617 288.371C222.693 344.26 236.845 344.26 257.567 341.742C233.812 338.721 240.214 305.826 247.458 288.371C277.784 278.301 237.35 256.147 216.122 256.147C183.775 257.355 172.252 272.763 176.699 278.301Z" fill="#272522" fill-opacity="0.4"/>
<path d="M278.289 164.006C225.321 195.424 172.993 177.097 153.45 164.006L155.977 160.481C197.624 179.413 252.176 168.37 274.246 160.481L278.289 164.006Z" fill="#272522" fill-opacity="0.4"/>
</svg>
