<svg width="446" height="366" viewBox="0 0 446 366" fill="none" xmlns="http://www.w3.org/2000/svg">
<path d="M157.438 163.402C172.477 170.708 217.165 180.593 273.024 162.112C314.561 192.771 378.556 257.526 312.556 281.595C306.254 282.884 292.532 281.939 288.063 267.841C285.199 294.775 281.618 349.932 244.235 344.774C234.827 344.347 217.841 338.299 216.326 292.137C216.821 311.555 207.911 337.53 187.516 343.055C163.884 345.634 154.087 336.952 149.274 267.841C136.24 282.025 98.1413 290.62 94.2741 250.65C91.5194 239.475 109.313 189.189 157.438 163.402Z" fill="#FFA9C9"/>
<path d="M273.618 161.308C294.419 176.661 320.941 200.617 333.988 223.835C340.508 235.439 343.761 247.033 341.03 257.339C338.283 267.704 329.573 276.453 312.898 282.534L312.828 282.56L312.755 282.574C309.454 283.25 304.249 283.339 299.262 281.421C295.164 279.845 291.23 276.915 288.649 271.901C287.29 285.198 285.451 303.589 280.035 318.68C277.044 327.013 272.927 334.448 267.105 339.474C261.255 344.524 253.748 347.082 244.151 345.771C239.234 345.54 232.345 343.821 226.526 336.214C221.95 330.232 218.092 320.68 216.297 305.511C215.242 311.569 213.378 317.689 210.652 323.246C205.859 333.016 198.344 341.158 187.778 344.021L187.702 344.041L187.624 344.049C181.67 344.699 176.445 344.659 171.912 343.052C167.336 341.428 163.571 338.246 160.469 332.829C157.385 327.444 154.946 319.833 152.973 309.296C151.082 299.198 149.611 286.352 148.432 270.099C141.38 276.643 129.332 281.572 118.244 280.549C112.226 279.993 106.451 277.678 101.937 272.878C97.4373 268.093 94.2735 260.926 93.2845 250.809C92.9162 249.244 92.9132 247.125 93.2308 244.624C93.5564 242.061 94.2276 239.023 95.2562 235.639C97.3138 228.868 100.817 220.656 105.913 211.998C116.106 194.682 132.709 175.518 156.965 162.521L157.415 162.279L157.874 162.502C172.663 169.687 217.08 179.568 272.709 161.163L273.202 161L273.618 161.308ZM272.842 163.224C217.542 181.376 173.141 171.9 157.467 164.522C133.839 177.308 117.622 196.051 107.637 213.013C102.614 221.546 99.1782 229.613 97.1703 236.22C96.1662 239.524 95.5234 242.449 95.2152 244.876C94.9239 247.169 94.9394 248.953 95.1908 250.174L95.2445 250.41L95.2621 250.48L95.2689 250.554C96.2205 260.388 99.2646 267.116 103.394 271.508C107.518 275.894 112.809 278.039 118.428 278.558C129.256 279.557 141.156 274.5 147.695 268.035C142.218 264.317 136.823 255.852 136.543 241.783C136.245 226.783 141.744 205.357 159.158 176.212L160.874 177.238C143.57 206.201 138.254 227.253 138.542 241.744C138.831 256.235 144.708 264.108 149.766 266.971L150.234 267.235L150.271 267.771C151.473 285.032 152.985 298.49 154.939 308.928C156.895 319.376 159.283 326.733 162.204 331.835C165.108 336.905 168.524 339.728 172.581 341.167C176.665 342.615 181.502 342.699 187.33 342.068C197.118 339.388 204.231 331.794 208.857 322.365C213.448 313.005 215.527 301.946 215.33 292.445C211.978 292.336 206.154 292.27 200.085 291.591C193.437 290.846 186.25 289.344 181.518 286.08L182.654 284.434C186.945 287.393 193.691 288.862 200.308 289.604C206.888 290.34 213.098 290.337 216.336 290.479C220.124 290.445 228.374 290.348 236.205 289.54C240.138 289.134 243.929 288.552 246.983 287.721C248.509 287.305 249.825 286.834 250.869 286.307C251.925 285.774 252.635 285.218 253.035 284.669L254.653 285.845C253.99 286.756 252.965 287.49 251.77 288.093C250.564 288.701 249.111 289.214 247.508 289.65C244.303 290.523 240.389 291.119 236.41 291.529C229.105 292.283 221.461 292.424 217.338 292.469C218.129 315.227 222.713 327.938 228.115 334.998C233.335 341.822 239.399 343.47 243.854 343.752L244.28 343.775L244.326 343.777L244.371 343.783C253.44 345.034 260.383 342.633 265.797 337.96C271.25 333.253 275.217 326.181 278.152 318.004C284.027 301.634 285.63 281.26 287.069 267.735L287.096 267.472L287.252 267.256C294.38 257.384 301.95 225.53 272.181 178.983L273.867 177.905C303.526 224.281 296.82 256.828 289.169 268.003C291.351 274.433 295.563 277.856 299.981 279.555C304.512 281.298 309.281 281.229 312.285 280.628C328.561 274.677 336.582 266.317 339.097 256.827C341.631 247.264 338.664 236.24 332.243 224.814C319.494 202.125 293.512 178.538 272.842 163.224Z" fill="black"/>
<path d="M277 324.076C270.833 331.91 248 343.676 224 330.076C226 343.076 261.8 359.676 277 324.076Z" fill="#EE95B5"/>
<path d="M276.608 323.767C273.61 327.576 266.468 332.426 257.074 334.627C247.703 336.823 236.125 336.372 224.247 329.642L223.35 329.133L223.507 330.152C224.036 333.59 226.768 337.168 230.693 340.033C234.635 342.91 239.854 345.125 245.492 345.798C251.135 346.471 257.21 345.602 262.842 342.292C268.475 338.982 273.627 333.252 277.461 324.272L276.608 323.767ZM275.265 326.646C271.674 333.879 267.162 338.593 262.335 341.43C256.917 344.614 251.067 345.456 245.61 344.805C240.149 344.153 235.092 342.005 231.283 339.226C227.892 336.751 225.551 333.819 224.734 331.052C236.514 337.403 247.974 337.786 257.303 335.601C265.131 333.767 271.48 330.116 275.265 326.646Z" fill="black"/>
<path d="M157.5 322.576C163.667 330.41 182 342.676 206 329.076C196.167 341.743 172.7 358.176 157.5 322.576Z" fill="#EE95B5"/>
<path d="M157.892 322.267C163.951 329.963 182.026 342.087 205.753 328.642L206.394 329.383C201.448 335.754 193.019 343.154 183.83 344.422C179.211 345.059 174.413 344.143 169.812 340.796C165.224 337.457 160.86 331.722 157.039 322.772L157.892 322.267ZM159.287 325.314C162.726 332.482 166.515 337.159 170.401 339.987C174.783 343.175 179.317 344.035 183.693 343.431C191.599 342.339 199.033 336.46 204.007 330.713C183.164 341.314 166.794 332.762 159.287 325.314Z" fill="black"/>
<path d="M340.5 251.576C320.5 276.076 302.333 265.41 293 257.076L289 268.076C291 281.276 305.833 282.91 312.5 282.076C337.7 273.676 341.667 258.243 340.5 251.576Z" fill="#EE95B5"/>
<path d="M340.992 251.49C342.212 258.459 338.032 274.093 312.658 282.551L312.611 282.566L312.562 282.572C309.165 282.997 303.7 282.795 298.812 280.802C293.902 278.799 289.539 274.968 288.506 268.151L288.486 268.025L288.53 267.905L292.782 256.212L293.333 256.703C297.971 260.844 304.744 265.508 312.789 266.141C320.793 266.77 330.187 263.418 340.112 251.26L340.804 250.413L340.992 251.49ZM340.143 252.787C330.335 264.406 320.916 267.782 312.711 267.137C304.66 266.503 297.902 262.004 293.22 257.932L289.515 268.123C290.515 274.429 294.545 277.982 299.188 279.876C303.86 281.781 309.116 281.986 312.389 281.585C336.001 273.698 340.644 259.673 340.143 252.787Z" fill="black"/>
<path d="M140.5 257.576C128 274.076 103 263.076 94.5 247.576C100.9 294.776 134.167 280.576 150 267.576C144 266.376 141.833 261.91 140.5 257.576Z" fill="#EE95B5"/>
<path d="M94.9375 247.336C99.1209 254.964 107.386 261.507 116.141 264.097C124.878 266.681 134.011 265.313 140.101 257.274L140.689 256.496L140.977 257.429C142.296 261.718 144.38 265.943 150.097 267.086L151.132 267.293L150.316 267.963C146.329 271.237 141.243 274.587 135.751 277.03C130.262 279.472 124.335 281.02 118.679 280.65C113.005 280.28 107.621 277.978 103.261 272.763C98.9125 267.561 95.6111 259.496 94.0039 247.644L94.9375 247.336ZM95.3613 249.966C97.0575 260.364 100.143 267.473 104.028 272.121C108.2 277.111 113.322 279.298 118.744 279.652C124.184 280.008 129.943 278.519 135.345 276.116C140.389 273.873 145.093 270.844 148.895 267.824C143.77 266.398 141.612 262.481 140.311 258.62C133.909 266.418 124.6 267.641 115.857 265.056C107.693 262.641 99.9499 256.892 95.3613 249.966Z" fill="black"/>
<path opacity="0.8" d="M176.878 280.884C208.225 321.444 182.265 336.823 171 342.231C201.857 353.892 216.49 315.912 216 291.576C222.857 347.853 235.163 347.301 255.245 344.766C232.225 341.724 238.429 308.6 245.449 291.024C274.837 280.884 235.653 258.576 215.082 258.576C183.735 259.793 172.567 275.307 176.878 280.884Z" fill="#875E6D" fill-opacity="0.4"/>
<path d="M288.5 268.576C297.274 291.934 326.677 281.416 337 265.167C289.929 272.073 303.108 254.335 315.323 243.841L294.161 226.576C295.71 249.934 292.5 258.076 288.5 268.576Z" fill="#875E6D" fill-opacity="0.4"/>
<path d="M149 268.41C128.704 287.062 103.204 280.005 98 264.377C145.461 271.233 132.173 253.622 119.857 243.204L138.592 227.576C134.949 251.27 140.153 261.352 149 268.41Z" fill="#875E6D" fill-opacity="0.4"/>
<path d="M278 167.122C224.115 198.733 170.881 180.293 151 167.122L156.5 162.576C198.868 181.624 251.548 170.513 274 162.576L278 167.122Z" fill="#875E6D" fill-opacity="0.4"/>
</svg>
