<svg width="446" height="366" viewBox="0 0 446 366" fill="none" xmlns="http://www.w3.org/2000/svg">
<path d="M158.438 162.289C173.477 169.596 218.165 179.481 274.024 161C315.561 191.659 379.556 256.414 313.556 280.482C307.254 281.772 293.532 280.826 289.063 266.729C286.199 293.663 282.618 348.819 245.235 343.662C235.827 343.234 218.841 337.186 217.326 291.025C217.821 310.443 208.911 336.418 188.516 341.943C164.884 344.522 155.087 335.84 150.274 266.729C137.24 280.912 99.1413 289.508 95.2741 249.537C92.5194 238.363 110.313 188.077 158.438 162.289Z" fill="#BF8FD7"/>
<path d="M289.063 266.729C293.532 280.826 307.254 281.772 313.556 280.482C379.556 256.414 315.561 191.659 274.024 161C218.165 179.481 173.477 169.596 158.438 162.289C110.313 188.077 92.5194 238.363 95.2741 249.537C99.1413 289.508 137.24 280.912 150.274 266.729M289.063 266.729C296.511 256.414 303.931 224.094 274.024 177.332M289.063 266.729C286.199 293.663 282.618 348.819 245.235 343.662C235.782 343.232 218.681 337.129 217.306 290.368M217.306 290.368C218.022 309.852 209.142 336.355 188.516 341.943C164.884 344.522 155.087 335.84 150.274 266.729M217.306 290.368C210.952 290.087 192.11 290.368 183.086 284.145M217.306 290.368C224.845 290.299 250.595 289.99 254.844 284.145M150.274 266.729C139.389 260.569 126.298 233.721 161.016 175.613" stroke="black" stroke-width="2"/>
<ellipse cx="218.721" cy="232.214" rx="45.9614" ry="51.116" fill="#D19AEC"/>
<path opacity="0.8" d="M178 279C210 319 183.5 334.167 172 339.5C203.5 351 217 313 216.5 289C223.5 344.5 237.5 344.5 258 342C234.5 339 240.833 306.333 248 289C278 279 238 257 217 257C185 258.2 173.6 273.5 178 279Z" fill="#A06CBA" fill-opacity="0.6"/>
<path d="M290 267.117C298.774 290.475 327.677 279.304 338 263.055C290.929 269.961 304.108 252.222 316.323 241.728L295.161 224.464C296.71 247.822 296.194 258.485 290 267.117Z" fill="#A06CBA" fill-opacity="0.6"/>
<path d="M149 266.297C128.704 284.95 103.204 277.892 98 262.265C145.461 269.121 132.173 251.51 119.857 241.092L138.592 225.464C134.949 249.157 140.153 259.24 149 266.297Z" fill="#A06CBA" fill-opacity="0.6"/>
<path d="M279 166.01C225.115 197.621 171.881 179.181 152 166.01L157.5 161.464C199.868 180.511 252.548 169.4 275 161.464L279 166.01Z" fill="#A06CBA" fill-opacity="0.6"/>
</svg>
