<svg width="446" height="366" viewBox="0 0 446 366" fill="none" xmlns="http://www.w3.org/2000/svg">
<path d="M158.438 162.289C173.477 169.596 218.165 179.481 274.024 161C315.561 191.659 379.556 256.414 313.556 280.482C307.254 281.772 293.532 280.826 289.063 266.729C286.199 293.663 282.618 348.819 245.235 343.662C235.827 343.234 218.841 337.186 217.326 291.025C217.821 310.443 208.911 336.418 188.516 341.943C164.884 344.522 155.087 335.84 150.274 266.729C137.24 280.912 99.1413 289.508 95.2741 249.537C92.5194 238.363 110.313 188.077 158.438 162.289Z" fill="white"/>
<path d="M289.063 266.729C293.532 280.826 307.254 281.772 313.556 280.482C379.556 256.414 315.561 191.659 274.024 161C218.165 179.481 173.477 169.596 158.438 162.289C110.313 188.077 92.5194 238.363 95.2741 249.537C99.1413 289.508 137.24 280.912 150.274 266.729M289.063 266.729C296.511 256.414 303.931 224.094 274.024 177.332M289.063 266.729C286.199 293.663 282.618 348.819 245.235 343.662C235.782 343.232 218.681 337.129 217.306 290.368M217.306 290.368C218.022 309.852 209.142 336.355 188.516 341.943C164.884 344.522 155.087 335.84 150.274 266.729M217.306 290.368C210.952 290.087 192.11 290.368 183.086 284.145M217.306 290.368C224.845 290.299 250.595 289.99 254.844 284.145M150.274 266.729C139.389 260.569 126.298 233.721 161.016 175.613" stroke="black" stroke-width="2"/>
<path opacity="0.8" d="M177.971 279.196C209.959 319.34 183.469 334.561 171.973 339.913C203.462 351.454 216.957 313.318 216.457 289.232C223.455 344.931 237.45 344.931 257.942 342.422C234.451 339.411 240.782 306.628 247.946 289.232C277.935 279.196 237.949 257.118 216.957 257.118C184.968 258.322 173.572 273.677 177.971 279.196Z" fill="black" fill-opacity="0.4"/>
<path d="M289.931 267.271C298.702 290.712 327.595 279.501 337.914 263.194C290.86 270.124 304.034 252.323 316.244 241.791L295.09 224.465C296.638 247.906 296.122 258.608 289.931 267.271Z" fill="black" fill-opacity="0.4"/>
<path d="M148.982 266.449C128.693 285.168 103.202 278.085 98 262.402C145.445 269.282 132.161 251.609 119.849 241.153L138.578 225.469C134.936 249.248 140.138 259.366 148.982 266.449Z" fill="black" fill-opacity="0.4"/>
<path d="M278.935 165.802C225.069 197.526 171.854 179.02 151.979 165.802L157.478 161.24C199.83 180.355 252.492 169.205 274.936 161.24L278.935 165.802Z" fill="black" fill-opacity="0.4"/>
</svg>
