<svg width="446" height="366" viewBox="0 0 446 366" fill="none" xmlns="http://www.w3.org/2000/svg">
<path d="M213.78 161C236.795 161 264.016 176.692 284.939 197.367C295.38 207.684 304.196 219.189 310.093 230.495C315.998 241.818 318.927 252.848 317.739 262.255C315.528 279.769 302.571 290.208 284.065 296.29C265.548 302.376 241.726 304 218.344 304C195.035 304 170.55 300.191 151.439 293.004C141.883 289.41 133.716 284.988 127.713 279.812C121.733 274.658 117.95 268.802 117 262.305C117.017 253.253 120.137 242.401 125.596 231.17C131.063 219.921 138.845 208.357 148.087 197.941C166.612 177.062 190.806 161 213.78 161Z" fill="#507E4D" stroke="black" stroke-width="2"/>
<path d="M158.438 161.826C173.477 169.132 218.165 179.017 274.024 160.536C315.561 191.195 379.556 255.95 313.556 280.019C307.254 281.308 293.532 280.362 289.063 266.265C286.199 293.199 282.618 348.356 245.235 343.198C235.827 342.77 218.841 336.723 217.326 290.561C217.821 309.979 208.911 335.954 188.516 341.479C164.884 344.058 155.087 335.376 150.274 266.265C137.24 280.448 99.1413 289.044 95.2741 249.073C92.5194 237.899 110.313 187.613 158.438 161.826Z" fill="#AACA96"/>
<path d="M289.063 266.265C293.532 280.362 307.254 281.308 313.556 280.019C379.556 255.95 315.561 191.195 274.024 160.536C218.165 179.017 173.477 169.132 158.438 161.826C110.313 187.613 92.5194 237.899 95.2741 249.073C99.1413 289.044 137.24 280.448 150.274 266.265M289.063 266.265C296.511 255.95 303.931 223.63 274.024 176.868M289.063 266.265C286.199 293.199 282.618 348.356 245.235 343.198C235.782 342.768 218.681 336.665 217.306 289.904M217.306 289.904C218.022 309.388 209.142 335.892 188.516 341.479C164.884 344.058 155.087 335.376 150.274 266.265M217.306 289.904C210.952 289.623 192.11 289.904 183.086 283.681M217.306 289.904C224.845 289.835 250.595 289.526 254.844 283.681M150.274 266.265C139.389 260.105 126.298 233.257 161.016 175.149" stroke="black" stroke-width="2"/>
<path d="M218 289.535C253.899 289.535 314 285 289.5 210.5C282.095 187.984 290.5 183 295 178.5C291.881 176 287.5 171.5 274 161.5C229.5 174 248 165.5 216.5 160C176.5 166.5 194.5 176 159 162C141.813 172.192 137 177.5 135 179.5C138.5 184.5 148.902 189.49 145 210.5C119 274.5 182.102 289.535 218 289.535Z" fill="#EBD290"/>
<path d="M213 182.036C212.5 183.369 212.5 197.536 212.5 205.536M213 224.036C212.833 230.203 212.2 251.336 213 252.536M214 264.536C215 266.536 215 277.536 215 286.536M151 241.536C157.167 243.536 193.6 251.636 198 250.036M230 252.536C237.5 252.536 269.2 248.836 276 246.036M159 200.036C165.5 203.369 200.6 215.236 205 212.036M225.5 213.536C235.833 214.036 272.8 209.136 276 205.536" stroke="black" stroke-linecap="square"/>
<path opacity="0.8" d="M178.098 277.66C209.925 317.443 183.568 332.527 172.131 337.831C203.46 349.269 216.887 311.475 216.389 287.606C223.351 342.804 237.275 342.804 257.664 340.318C234.292 337.334 240.591 304.845 247.718 287.606C277.555 277.66 237.773 255.779 216.887 255.779C185.06 256.973 173.722 272.19 178.098 277.66Z" fill="#6F727B" fill-opacity="0.4"/>
<path d="M289.489 265.842C298.216 289.072 326.962 277.962 337.229 261.801C290.413 268.67 303.52 251.028 315.669 240.591L294.622 223.42C296.162 246.651 295.649 257.256 289.489 265.842Z" fill="#6F727B" fill-opacity="0.4"/>
<path d="M149.255 265.027C129.07 283.578 103.708 276.558 98.5322 261.015C145.736 267.834 132.52 250.319 120.271 239.957L138.904 224.415C135.281 247.98 140.456 258.007 149.255 265.027Z" fill="#6F727B" fill-opacity="0.4"/>
<path d="M278.549 165.283C224.956 196.722 172.012 178.383 152.238 165.283L157.708 160.762C199.846 179.706 252.24 168.655 274.571 160.762L278.549 165.283Z" fill="#6F727B" fill-opacity="0.4"/>
</svg>
