<svg width="172" height="187" viewBox="0 0 172 187" fill="none" xmlns="http://www.w3.org/2000/svg">
<path d="M34.7754 100.429C35.705 98.6175 38.295 98.6175 39.2246 100.429L46.7178 115.028C47.238 116.042 48.2194 116.739 49.3477 116.896L65.9043 119.21C67.9852 119.501 68.8014 122.073 67.2686 123.51L55.4404 134.596C54.5762 135.406 54.1797 136.599 54.3877 137.765L57.2012 153.532C57.5631 155.562 55.451 157.132 53.6113 156.202L38.5791 148.604C37.5863 148.102 36.4137 148.102 35.4209 148.604L20.3887 156.202C18.549 157.132 16.4369 155.562 16.7988 153.532L19.6123 137.765C19.8203 136.599 19.4238 135.406 18.5596 134.596L6.73145 123.51C5.19862 122.073 6.01483 119.501 8.0957 119.21L24.6523 116.896C25.7806 116.739 26.762 116.042 27.2822 115.028L34.7754 100.429Z" stroke="black"/>
<path d="M38.3139 11.0578C6.77055 10.4783 4.14194 36.0908 6.77055 48.9695C2.63372 66.4523 24.783 71.0645 36.504 70.7023C67.8405 70.0261 70.1589 55.6101 67.2717 48.9695C71.4086 16.805 49.6902 10.2932 38.3139 11.0578Z" stroke="black"/>
<path d="M24.6235 54.8428C28.4872 60.9935 38.8639 69.6045 49.4613 54.8428" stroke="black" stroke-linecap="round"/>
<ellipse cx="26.0602" cy="40.8572" rx="5.04138" ry="5.47047" fill="black"/>
<ellipse cx="27.5845" cy="39.9821" rx="1.64138" ry="2.18819" fill="#FEFFFF"/>
<ellipse cx="24.7707" cy="43.5922" rx="0.937932" ry="1.42232" fill="#4F515E"/>
<ellipse cx="48.3361" cy="40.8572" rx="5.04138" ry="5.47047" fill="black"/>
<ellipse cx="49.6258" cy="43.5922" rx="0.937932" ry="1.42232" fill="#4F515E"/>
<ellipse cx="46.5775" cy="39.9821" rx="1.64138" ry="2.18819" fill="#FEFFFF"/>
<path d="M23.1215 32.0437C25.2318 32.1896 29.3353 31.8905 28.8663 29.5273C28.0847 28.2508 25.8415 26.9671 23.1215 32.0437Z" fill="#212531" stroke="black"/>
<path d="M51.6482 32.0437C49.5378 32.1896 45.4344 31.8905 45.9034 29.5273C46.685 28.2508 48.9282 26.9671 51.6482 32.0437Z" fill="#212531" stroke="black"/>
<path d="M107.624 143.843C111.487 149.993 121.864 158.604 132.461 143.843" stroke="black" stroke-linecap="round"/>
<ellipse cx="109.06" cy="129.857" rx="5.04138" ry="5.47047" fill="black"/>
<ellipse cx="110.584" cy="128.982" rx="1.64138" ry="2.18819" fill="#FEFFFF"/>
<ellipse cx="107.771" cy="132.592" rx="0.937932" ry="1.42232" fill="#4F515E"/>
<ellipse cx="131.336" cy="129.857" rx="5.04138" ry="5.47047" fill="black"/>
<ellipse cx="132.626" cy="132.592" rx="0.937932" ry="1.42232" fill="#4F515E"/>
<ellipse cx="129.578" cy="128.982" rx="1.64138" ry="2.18819" fill="#FEFFFF"/>
<path d="M106.121 121.044C108.232 121.19 112.335 120.891 111.866 118.527C111.085 117.251 108.841 115.967 106.121 121.044Z" fill="#212531" stroke="black"/>
<path d="M134.648 121.044C132.538 121.19 128.434 120.891 128.903 118.527C129.685 117.251 131.928 115.967 134.648 121.044Z" fill="#212531" stroke="black"/>
<path d="M121.314 100.058C89.7706 99.4783 87.1419 125.091 89.7706 137.969C85.6337 155.452 107.783 160.064 119.504 159.702C150.841 159.026 153.159 144.61 150.272 137.969C154.409 105.805 132.69 99.2932 121.314 100.058Z" stroke="black"/>
<path d="M117.775 13.4287C118.705 11.6175 121.295 11.6175 122.225 13.4287L129.718 28.0283C130.238 29.0419 131.219 29.7388 132.348 29.8965L148.904 32.21C150.985 32.5007 151.801 35.0729 150.269 36.5098L138.44 47.5957C137.576 48.4057 137.18 49.5986 137.388 50.7646L140.201 66.5322C140.563 68.5615 138.451 70.1321 136.611 69.2021L121.579 61.6035C120.586 61.1016 119.414 61.1016 118.421 61.6035L103.389 69.2021C101.549 70.1321 99.4369 68.5615 99.7988 66.5322L102.612 50.7646C102.82 49.5986 102.424 48.4057 101.56 47.5957L89.7314 36.5098C88.1986 35.0729 89.0148 32.5007 91.0957 32.21L107.652 29.8965C108.781 29.7388 109.762 29.0419 110.282 28.0283L117.775 13.4287Z" stroke="black"/>
</svg>


