<svg width="92" height="91" viewBox="0 0 92 91" fill="none" xmlns="http://www.w3.org/2000/svg">
<g filter="url(#filter0_d_1385_732)">
<path d="M45.0102 80.8903L25.5233 61.3164H14C8.47715 61.3164 4 56.8392 4 51.3164V37.9052C4 32.3824 8.47715 27.9052 14 27.9052H25.5233L45.026 8.48954C48.1791 5.35058 53.5536 7.58384 53.5536 12.033V77.3627C53.5536 81.8226 48.1568 84.051 45.0102 80.8903Z" fill="white"/>
<path d="M60.2115 52.7936C60.2115 54.5673 61.6851 56.0523 63.368 55.4918C64.9997 54.9484 66.5008 53.9864 67.7313 52.668C69.7257 50.5311 70.8461 47.633 70.8461 44.611C70.8461 41.5891 69.7257 38.6909 67.7313 36.5541C66.5008 35.2357 64.9997 34.2737 63.368 33.7302C61.6851 33.1698 60.2115 34.6547 60.2115 36.4285C60.2115 38.2022 61.8127 39.5934 63.1472 40.7618C63.2668 40.8665 63.3819 40.978 63.4921 41.0961C64.3622 42.0283 64.851 43.2927 64.851 44.611C64.851 45.9294 64.3622 47.1937 63.4921 48.126C63.3819 48.244 63.2668 48.3555 63.1472 48.4602C61.8127 49.6287 60.2115 51.0198 60.2115 52.7936Z" fill="white"/>
<path d="M69.5746 65.8884C69.9973 67.7724 71.9081 68.9575 73.6793 68.1887C77.4033 66.5722 80.6846 63.9345 83.1741 60.5154C86.3835 56.1078 88.0847 50.6656 87.9968 45.0883C87.9088 39.5111 86.0368 34.1328 82.6903 29.8426C80.093 26.5129 76.7283 23.9933 72.9532 22.5113C71.159 21.807 69.2935 23.0533 68.9314 24.9464C68.5817 26.7746 69.7778 28.5154 71.4733 29.2833C73.8829 30.3748 76.0302 32.0671 77.7238 34.2383C80.1308 37.3241 81.4773 41.1925 81.5406 45.2039C81.6038 49.2154 80.3802 53.1297 78.0719 56.2999C76.4435 58.5363 74.3442 60.3079 71.9628 61.4849C70.3004 62.3066 69.1686 64.079 69.5746 65.8884Z" fill="white"/>
</g>
<defs>
<filter id="filter0_d_1385_732" x="0" y="7.02344" width="92" height="83.3496" filterUnits="userSpaceOnUse" color-interpolation-filters="sRGB">
<feFlood flood-opacity="0" result="BackgroundImageFix"/>
<feColorMatrix in="SourceAlpha" type="matrix" values="0 0 0 0 0 0 0 0 0 0 0 0 0 0 0 0 0 0 127 0" result="hardAlpha"/>
<feOffset dy="4"/>
<feGaussianBlur stdDeviation="2"/>
<feComposite in2="hardAlpha" operator="out"/>
<feColorMatrix type="matrix" values="0 0 0 0 0 0 0 0 0 0 0 0 0 0 0 0 0 0 0.25 0"/>
<feBlend mode="normal" in2="BackgroundImageFix" result="effect1_dropShadow_1385_732"/>
<feBlend mode="normal" in="SourceGraphic" in2="effect1_dropShadow_1385_732" result="shape"/>
</filter>
</defs>
</svg>
