<svg width="446" height="345" viewBox="0 0 446 345" fill="none" xmlns="http://www.w3.org/2000/svg">
<path d="M278.116 79.7639L267 92.615L301.517 130C338.024 123.925 326.479 117.733 316.143 115.397C340.949 110.256 329.209 100.793 320.239 96.7041C353.937 86.4232 337.79 81.1269 325.504 79.7639C342.353 72.2868 334.865 65.7446 329.014 63.4082C363.649 42.8465 347.735 39.2638 335.45 40.0426C350.427 12.4713 339.35 14.9247 331.939 19.5978C334.28 13.5228 330.964 6.94149 329.014 4.41021C307.953 1.13904 303.857 18.2347 304.443 27.1915C291.338 11.7702 292.742 30.1121 295.082 41.2107C271.212 29.528 280.066 49.5834 287.476 61.0715C261.267 64.3426 270.315 74.8961 278.116 79.7639Z" fill="#EF6390" stroke="black" stroke-width="2"/>
<path d="M324.681 122.042L305.893 123.276L294.161 178.122C323.106 201.499 321.308 187.947 316.79 178.249C337.377 193.364 338.419 177.179 336.366 167.197C367.322 185.228 361.757 168.828 355.105 158.374C372.701 165.615 373.825 154.907 372.187 148.648C413.064 159.591 406.096 144.671 397.502 135.843C432.114 126.393 422.778 119.764 413.784 117.63C420.794 114.812 424.632 107.274 425.675 103.857C415.119 85.2259 396.99 95.065 389.246 102.313C394.813 80.5584 379.086 95.56 370.526 105.78C365.793 78.6101 353.295 100.624 347.637 115.027C327.844 97.4159 324.086 112.365 324.681 122.042Z" fill="#EF6390" stroke="black" stroke-width="2"/>
<path d="M342.43 181.52L330.359 167.071L279.138 189.922C277.316 227.084 287.203 217.643 292.375 208.278C292.299 233.817 305.987 225.119 312.841 217.577C316.522 253.212 326.491 239.049 331.014 227.513C335.537 245.996 344.849 240.592 348.94 235.579C364.195 275.051 372.14 260.627 374.206 248.481C402.241 270.871 402.094 259.422 398.516 250.898C404.924 254.9 413.276 253.557 416.651 252.385C425.479 232.876 406.845 224.032 396.424 222.048C417.28 213.722 395.891 209.86 382.59 208.969C401.748 189.131 376.598 192.01 361.628 195.93C364.188 169.56 349.896 175.336 342.43 181.52Z" fill="#EF6390" stroke="black" stroke-width="2"/>
<path d="M152.405 86.7639L163.521 99.615L129.003 137C92.4967 130.925 104.042 124.733 114.377 122.397C89.5715 117.256 101.311 107.793 110.282 103.704C76.5837 93.4232 92.7307 88.1269 105.017 86.7639C88.1674 79.2868 95.6559 72.7446 101.506 70.4082C66.872 49.8465 82.7851 46.2638 95.0709 47.0426C80.0939 19.4713 91.1706 21.9247 98.5811 26.5978C96.241 20.5228 99.5562 13.9415 101.506 11.4102C122.568 8.13904 126.663 25.2347 126.078 34.1915C139.183 18.7702 137.779 37.1121 135.439 48.2107C159.308 36.528 150.455 56.5834 143.044 68.0715C169.254 71.3426 160.205 81.8961 152.405 86.7639Z" fill="#EF6390" stroke="black" stroke-width="2"/>
<path d="M114.029 137.387L131.489 137.51L139.36 189.122C111.042 213.025 113.48 200.008 118.239 190.512C98.1834 206.072 98.1188 190.706 100.593 181.078C70.6997 199.998 76.8119 184.055 83.6048 173.719C66.7808 181.607 66.3332 171.465 68.2124 165.408C29.459 178.13 36.7975 163.52 45.3109 154.624C13.5471 147.56 22.6294 140.718 31.141 138.18C24.7585 135.888 21.6002 128.919 20.8188 125.721C31.7129 107.373 48.0753 115.733 54.8947 122.207C50.9203 101.786 64.7531 115.201 72.1663 124.461C78.1062 98.3013 88.5327 118.58 93.0035 131.99C112.458 114.096 115.127 128.132 114.029 137.387Z" fill="#EF6390" stroke="black" stroke-width="2"/>
<path d="M92.7395 187.367L103.621 173.213L151.382 196.923C153.767 233.946 144.453 224.362 139.497 214.943C140.049 240.364 127.236 231.449 120.761 223.813C118.031 259.211 108.553 244.927 104.155 233.36C100.325 251.671 91.6181 246.116 87.7435 241.05C74.3917 280.05 66.778 265.543 64.6401 253.415C39.1568 275.172 39.077 263.779 42.2226 255.363C36.3764 259.225 28.6337 257.731 25.4931 256.501C16.9679 236.917 34.0195 228.465 43.611 226.687C24.1826 218.007 43.8739 214.566 56.1481 213.931C38.0711 193.824 61.365 197.164 75.2716 201.348C72.4092 175.053 85.7242 181.071 92.7395 187.367Z" fill="#EF6390" stroke="black" stroke-width="2"/>
<path d="M384.122 116.672C323.957 141.55 304.706 146.163 298.134 145.592C308.204 148.653 300.07 158.852 294.744 163.568C437.74 106.496 410.932 108.679 384.122 116.672Z" fill="url(#paint0_linear_1917_533)" stroke="black" stroke-width="2"/>
<path d="M314.983 35.9895C292.365 93.605 275.131 114.5 269.341 117.745C280.418 114.8 284.258 128.925 284.793 136.355C340.625 1.32345 328.183 13.1815 314.983 35.9895Z" fill="url(#paint1_linear_1917_533)" stroke="black" stroke-width="2"/>
<path d="M376.079 232.768C335.853 208.878 315.759 205.266 310.74 206.445C318.844 202.118 314.703 191.012 311.62 186C407.618 240.412 394.592 239.851 376.079 232.768Z" fill="url(#paint2_linear_1917_533)" stroke="black" stroke-width="2"/>
<path d="M54.0714 130.216C109.641 152.428 127.349 156.722 133.348 156.384C124.204 158.74 131.864 167.488 136.837 171.568C4.80809 120.503 29.3755 122.917 54.0714 130.216Z" fill="url(#paint3_linear_1917_533)" stroke="black" stroke-width="2"/>
<path d="M116.598 43.9895C139.217 101.605 156.45 122.5 162.24 125.745C151.163 122.8 147.323 136.925 146.788 144.355C90.9559 9.32345 103.398 21.1815 116.598 43.9895Z" fill="url(#paint4_linear_1917_533)" stroke="black" stroke-width="2"/>
<path d="M55.5025 240.768C95.7294 216.878 115.823 213.266 120.842 214.445C112.738 210.118 116.879 199.012 119.962 194C23.9638 248.412 36.9898 247.851 55.5025 240.768Z" fill="url(#paint5_linear_1917_533)" stroke="black" stroke-width="2"/>
<path d="M219.581 83.2063C114.568 81.1388 105.817 172.51 114.568 218.455C100.796 280.824 174.534 297.278 213.555 295.986C317.879 293.573 325.597 242.145 315.985 218.455C329.757 103.709 257.454 80.4784 219.581 83.2063Z" fill="#FFB3D3" stroke="black" stroke-width="2"/>
<path d="M174.003 239.41C186.866 261.353 221.411 292.072 256.692 239.41" stroke="black" stroke-width="5" stroke-linecap="round"/>
<ellipse cx="178.786" cy="189.516" rx="16.7835" ry="19.5157" fill="black"/>
<ellipse cx="183.861" cy="186.393" rx="5.46439" ry="7.80627" fill="#FEFFFF"/>
<ellipse cx="174.493" cy="199.273" rx="3.12251" ry="5.07408" fill="#4F515E"/>
<ellipse cx="252.946" cy="189.516" rx="16.7835" ry="19.5157" fill="black"/>
<ellipse cx="257.239" cy="199.273" rx="3.12251" ry="5.07408" fill="#4F515E"/>
<ellipse cx="247.091" cy="186.393" rx="5.46439" ry="7.80627" fill="#FEFFFF"/>
<path d="M169.003 158.07C176.029 158.591 189.69 157.524 188.128 149.093C185.526 144.54 178.058 139.96 169.003 158.07Z" fill="#212531" stroke="black" stroke-width="2"/>
<path d="M263.973 158.07C256.947 158.591 243.286 157.524 244.847 149.093C247.449 144.54 254.917 139.96 263.973 158.07Z" fill="#212531" stroke="black" stroke-width="2"/>
<ellipse cx="180.503" cy="95.5" rx="7.5" ry="5.5" fill="#EBA1BE"/>
<ellipse cx="179.884" cy="110.383" rx="12.1711" ry="9.20667" transform="rotate(-24.297 179.884 110.383)" fill="#EBA1BE"/>
<ellipse cx="251.206" cy="97.7028" rx="7.67633" ry="5.48309" transform="rotate(19.2024 251.206 97.7028)" fill="#EBA1BE"/>
<ellipse cx="245.04" cy="125.256" rx="13.3419" ry="10.4492" transform="rotate(19.2024 245.04 125.256)" fill="#EBA1BE"/>
<ellipse cx="219.336" cy="107.86" rx="18.9824" ry="15.6586" transform="rotate(-5.23862 219.336 107.86)" fill="#EBA1BE"/>
<ellipse cx="180.405" cy="128.766" rx="7.67633" ry="5.48309" transform="rotate(-30.8793 180.405 128.766)" fill="#EBA1BE"/>
<ellipse cx="285.065" cy="223.724" rx="14.5" ry="11" transform="rotate(16.8139 285.065 223.724)" fill="#FA6FA3"/>
<ellipse cx="14.5" cy="11" rx="14.5" ry="11" transform="matrix(-0.957249 0.289265 0.289265 0.957249 162.763 209)" fill="#FA6FA3"/>
<defs>
<linearGradient id="paint0_linear_1917_533" x1="404" y1="114" x2="291.872" y2="152.95" gradientUnits="userSpaceOnUse">
<stop stop-color="#EF6390"/>
<stop offset="1" stop-color="#FFB3D3"/>
</linearGradient>
<linearGradient id="paint1_linear_1917_533" x1="281" y1="122.5" x2="324" y2="24" gradientUnits="userSpaceOnUse">
<stop stop-color="#FFB3D3"/>
<stop offset="1" stop-color="#EF6390"/>
</linearGradient>
<linearGradient id="paint2_linear_1917_533" x1="316.676" y1="197.607" x2="369.137" y2="254.945" gradientUnits="userSpaceOnUse">
<stop stop-color="#FFB3D3"/>
<stop offset="1" stop-color="#EF6390"/>
</linearGradient>
<linearGradient id="paint3_linear_1917_533" x1="35.8313" y1="127.54" x2="138.733" y2="164.116" gradientUnits="userSpaceOnUse">
<stop stop-color="#EF6390"/>
<stop offset="1" stop-color="#FFB3D3"/>
</linearGradient>
<linearGradient id="paint4_linear_1917_533" x1="150.581" y1="130.5" x2="107.581" y2="32" gradientUnits="userSpaceOnUse">
<stop stop-color="#FFB3D3"/>
<stop offset="1" stop-color="#EF6390"/>
</linearGradient>
<linearGradient id="paint5_linear_1917_533" x1="114.906" y1="205.607" x2="62.445" y2="262.945" gradientUnits="userSpaceOnUse">
<stop stop-color="#FFB3D3"/>
<stop offset="1" stop-color="#EF6390"/>
</linearGradient>
</defs>
</svg>
