<svg width="446" height="345" viewBox="0 0 446 345" fill="none" xmlns="http://www.w3.org/2000/svg">
<path d="M127.448 125.925L137.191 111.312C146.543 91.8275 133.294 78.838 125.5 74.7788C102.119 88.8075 117.057 114.722 127.448 125.925Z" fill="#232321" stroke="black" stroke-width="2"/>
<path d="M147.907 66.4992C159.598 78.6767 161.546 84.0351 172.263 89.7779C168.756 101.079 156.747 98.0589 150.577 95.6233C137.912 87.5049 81.5885 58.7412 93.7627 58.7413C102.761 58.7414 137.558 55.7184 147.907 66.4992Z" fill="#1C1E1B" stroke="black" stroke-width="2"/>
<path d="M149.856 76.2394C158.137 86.9559 158.624 89.3912 164.956 92.1578C155.604 103.069 145.147 110.343 141.088 112.616C132.904 112.616 132.482 98.9773 133.294 92.1578C127.059 69.9457 121.928 82.9028 120.142 92.1578C114.297 113.103 130.372 119.436 128.91 132.101C127.741 142.232 123.552 152.715 120.142 153.689C112.738 153.3 111.861 147.844 109.913 138.92C94.3256 128.204 73.0615 39.5723 93.2646 54.7412C109.913 67.2411 135.73 56.2682 149.856 76.2394Z" fill="#36353B" stroke="black" stroke-width="2"/>
<path d="M302.076 126.166L292.334 111.553C282.981 92.0687 296.231 79.0792 304.024 75.02C327.406 89.0487 312.468 114.963 302.076 126.166Z" fill="#232321" stroke="black" stroke-width="2"/>
<path d="M281.617 66.7404C269.926 78.9179 267.978 84.2763 257.262 90.0191C260.769 101.32 272.777 98.3001 278.947 95.8646C291.612 87.7461 347.936 58.9824 335.762 58.9825C326.764 58.9826 291.967 55.9596 281.617 66.7404Z" fill="#1C1E1B" stroke="black" stroke-width="2"/>
<path d="M279.669 76.4806C271.388 87.1971 270.901 89.6324 264.568 92.399C273.921 103.31 284.377 110.584 288.437 112.857C296.62 112.857 297.042 99.2185 296.23 92.399C302.465 70.1869 307.596 83.144 309.382 92.399C315.227 113.345 299.153 119.677 300.614 132.342C301.783 142.474 305.972 152.956 309.382 153.931C316.786 153.541 317.663 148.085 319.611 139.161C335.199 128.445 356.463 39.8136 336.26 54.9825C319.611 67.4824 293.795 56.5094 279.669 76.4806Z" fill="#36353B" stroke="black" stroke-width="2"/>
<path d="M218.841 83.2356C113.829 81.1681 105.078 172.54 113.829 218.484C100.057 280.853 173.795 297.307 212.816 296.015C317.14 293.603 324.858 242.174 315.246 218.484C329.018 103.738 256.715 80.5077 218.841 83.2356Z" fill="#36353B" stroke="black" stroke-width="2"/>
<ellipse cx="177.047" cy="189.757" rx="16.7835" ry="19.5157" fill="black"/>
<ellipse cx="182.122" cy="186.634" rx="5.46439" ry="7.80627" fill="#FEFFFF"/>
<ellipse cx="172.753" cy="199.515" rx="3.12251" ry="5.07408" fill="#4F515E"/>
<ellipse cx="252.207" cy="189.545" rx="16.7835" ry="19.5157" fill="black"/>
<ellipse cx="255.501" cy="199.515" rx="3.12251" ry="5.07408" fill="#4F515E"/>
<ellipse cx="246.353" cy="186.423" rx="5.46439" ry="7.80627" fill="#FEFFFF"/>
<path d="M166.354 150.36C171.385 155.291 182.51 163.291 186.757 155.843C187.708 150.685 184.958 142.368 166.354 150.36Z" fill="#24242C" stroke="black" stroke-width="2"/>
<path d="M264.346 147.223C260.872 153.352 252.39 164.114 246.251 158.129C243.912 153.434 244.258 144.681 264.346 147.223Z" fill="#24242C" stroke="black" stroke-width="2"/>
<path d="M215.264 243.03L189.283 220.53H241.244L215.264 243.03Z" fill="black"/>
<path d="M194.264 221.03C201.864 218.23 211.097 219.863 214.764 221.03C221.964 218.23 231.43 219.863 235.764 221.03C238.282 221.03 241.999 220.101 244.036 219.705C244.442 219.592 244.852 219.53 245.264 219.53C245.015 219.53 244.587 219.598 244.036 219.705C240.497 220.692 237.259 225.586 235.764 227.53C225.364 227.53 221.93 233.53 222.264 236.53L216.764 243.53H213.264L207.764 236.53C210.564 229.33 200.93 227.53 195.764 227.53C194.964 225.13 189.764 221.196 187.264 219.53L194.264 221.03Z" fill="#322E2E" stroke="black"/>
<path d="M254.376 244.35C255.144 243.203 256.698 242.896 257.845 243.665C258.992 244.433 259.299 245.987 258.53 247.134C249.555 260.531 240.481 268.846 231.572 273.282C222.61 277.744 213.96 278.204 206.068 276.137C190.482 272.052 178.181 258.222 171.607 247.007C170.909 245.816 171.309 244.283 172.5 243.585C173.691 242.887 175.223 243.286 175.922 244.477C182.21 255.205 193.614 267.705 207.336 271.301C214.099 273.073 221.504 272.71 229.344 268.806C237.236 264.877 245.711 257.284 254.376 244.35Z" fill="black"/>
<path d="M240.664 264.235L233.278 269.472L244.027 277.828C247.951 272.979 243.449 266.742 240.664 264.235Z" fill="#F6F5F3"/>
<path d="M189.297 264.209L197.059 268.872L186.974 278.018C182.694 273.48 186.71 266.919 189.297 264.209Z" fill="#F6F5F3"/>
</svg>
