<svg width="446" height="345" viewBox="0 0 446 345" fill="none" xmlns="http://www.w3.org/2000/svg">
<path d="M301.66 66.4688C271.161 42.4688 256.66 75.1355 254.66 94.4688C237.06 114.069 280.327 145.302 304.16 158.469C332.96 126.869 316.91 78.4688 301.66 66.4688Z" fill="#503D33" stroke="black" stroke-width="2"/>
<path d="M287.023 129.615L296.765 115.002C306.117 95.5175 292.868 82.528 285.074 78.4688C261.693 92.4974 276.631 118.411 287.023 129.615Z" fill="#272227" stroke="black" stroke-width="2"/>
<path d="M129.455 66.4688C159.955 42.4688 174.455 75.1355 176.455 94.4688C194.055 114.069 150.788 145.302 126.955 158.469C98.1548 126.869 114.205 78.4688 129.455 66.4688Z" fill="#503D33" stroke="black" stroke-width="2"/>
<path d="M144.093 129.615L134.351 115.002C124.998 95.5175 138.247 82.528 146.041 78.4688C169.422 92.4974 154.484 118.411 144.093 129.615Z" fill="#272227" stroke="black" stroke-width="2"/>
<path d="M219.578 83.4632C114.565 81.3957 105.814 172.767 114.565 218.712C100.793 281.081 174.531 297.535 213.552 296.242C317.876 293.83 325.594 242.401 315.982 218.712C329.755 103.966 257.451 80.7352 219.578 83.4632Z" fill="#503D33" stroke="black" stroke-width="2"/>
<path d="M254.611 238.275C255.38 237.128 256.933 236.821 258.08 237.59C259.227 238.358 259.534 239.911 258.765 241.058C249.79 254.455 240.717 262.771 231.807 267.207C222.846 271.669 214.195 272.129 206.304 270.061C190.717 265.977 178.417 252.146 171.843 240.931C171.144 239.74 171.544 238.208 172.735 237.51C173.926 236.811 175.459 237.211 176.157 238.402C182.445 249.13 193.849 261.63 207.571 265.225C214.334 266.998 221.739 266.635 229.579 262.731C237.472 258.802 245.946 251.209 254.611 238.275Z" fill="black"/>
<path d="M195.567 189.773C195.567 200.551 188.053 209.288 178.783 209.288C169.514 209.288 162 200.551 162 189.773C162 178.994 169.514 170.257 178.783 170.257C188.053 170.257 195.567 178.994 195.567 189.773Z" fill="black"/>
<path d="M189.322 186.65C189.322 190.961 186.876 194.456 183.858 194.456C180.84 194.456 178.394 190.961 178.394 186.65C178.394 182.339 180.84 178.844 183.858 178.844C186.876 178.844 189.322 182.339 189.322 186.65Z" fill="#FEFFFF"/>
<path d="M177.612 199.531C177.612 202.333 176.214 204.605 174.49 204.605C172.765 204.605 171.367 202.333 171.367 199.531C171.367 196.728 172.765 194.457 174.49 194.457C176.214 194.457 177.612 196.728 177.612 199.531Z" fill="#777675"/>
<path d="M269.727 189.773C269.727 200.551 262.213 209.288 252.944 209.288C243.674 209.288 236.16 200.551 236.16 189.773C236.16 178.994 243.674 170.257 252.944 170.257C262.213 170.257 269.727 178.994 269.727 189.773Z" fill="black"/>
<path d="M260.359 199.531C260.359 202.333 258.961 204.605 257.237 204.605C255.512 204.605 254.114 202.333 254.114 199.531C254.114 196.728 255.512 194.457 257.237 194.457C258.961 194.457 260.359 196.728 260.359 199.531Z" fill="#777675"/>
<path d="M252.554 186.65C252.554 190.961 250.107 194.456 247.089 194.456C244.071 194.456 241.625 190.961 241.625 186.65C241.625 182.339 244.071 178.844 247.089 178.844C250.107 178.844 252.554 182.339 252.554 186.65Z" fill="#FEFFFF"/>
<path d="M169 158.327C176.026 158.848 189.687 157.781 188.125 149.35C185.523 144.796 178.055 140.217 169 158.327Z" fill="#80685B" stroke="black" stroke-width="2"/>
<path d="M263.97 158.327C256.944 158.848 243.283 157.781 244.844 149.35C247.446 144.796 254.914 140.217 263.97 158.327Z" fill="#80685B" stroke="black" stroke-width="2"/>
<path d="M195 221.257C202.6 218.457 211.833 220.09 215.5 221.257C222.7 218.457 232.167 220.09 236.5 221.257C239.019 221.257 242.735 220.328 244.772 219.932C245.178 219.819 245.588 219.757 246 219.757C245.752 219.757 245.323 219.825 244.772 219.932C241.234 220.919 237.995 225.813 236.5 227.757C226.1 227.757 222.667 233.757 223 236.757L217.5 243.757H214L208.5 236.757C211.3 229.557 201.667 227.757 196.5 227.757C195.7 225.357 190.5 221.424 188 219.757L195 221.257Z" fill="#06020C"/>
<path d="M216 243.257L190.019 220.757H241.98L216 243.257Z" fill="#272227"/>
</svg>
