<svg width="446" height="345" viewBox="0 0 446 345" fill="none" xmlns="http://www.w3.org/2000/svg">
<path d="M31.0804 158.042C65.9539 265.669 173.218 192.562 173.218 149.277V107.747C98.3471 45.7453 10.3458 94.0508 31.0804 158.042Z" fill="#B9AEAA" stroke="black" stroke-width="2"/>
<path d="M50.2474 178.043C105.848 240.793 138.237 173.704 147.481 132.316C137.324 112.022 106.939 101.386 93.017 98.6046C33.4069 87.3897 33.5678 159.219 50.2474 178.043Z" fill="#EBE2DD" stroke="black" stroke-width="2"/>
<path d="M410.137 158.042C375.264 265.669 268 192.562 268 149.277V107.747C342.871 45.7453 430.872 94.0508 410.137 158.042Z" fill="#B9AEAA" stroke="black" stroke-width="2"/>
<path d="M390.97 178.043C335.37 240.793 302.981 173.704 293.736 132.316C303.894 112.022 334.278 101.386 348.201 98.6046C407.811 87.3897 407.65 159.219 390.97 178.043Z" fill="#EBE2DD" stroke="black" stroke-width="2"/>
<path d="M218.577 83.9993C113.564 81.9318 104.813 173.303 113.564 219.248C99.7922 281.617 173.53 298.071 212.551 296.779C316.875 294.366 324.593 242.938 314.981 219.248C328.754 104.502 256.45 81.2714 218.577 83.9993Z" fill="#B9AEAA" stroke="black" stroke-width="2"/>
<path d="M210 256.5C175.276 262 183.5 225.5 168 236.5C164 265.3 198 291.5 213 291.5C247.5 289.5 258.5 248.333 260.5 236.5C250 228 261.5 236.5 238 253C234 256.667 218 255.233 210 256.5Z" fill="#EBE2DD"/>
<path d="M253.61 238.811C254.379 237.664 255.932 237.357 257.079 238.126C258.226 238.894 258.533 240.447 257.765 241.595C248.789 254.991 239.716 263.307 230.806 267.743C221.845 272.205 213.194 272.665 205.303 270.598C189.716 266.513 177.416 252.683 170.842 241.468C170.143 240.277 170.543 238.744 171.734 238.046C172.925 237.348 174.458 237.747 175.156 238.938C181.445 249.666 192.848 262.166 206.57 265.762C213.333 267.534 220.738 267.171 228.578 263.267C236.471 259.338 244.945 251.745 253.61 238.811Z" fill="black"/>
<path d="M174.499 212.505C160.666 203.338 142.299 181.505 179.499 167.505C185.666 169.672 197.799 176.905 196.999 188.505C202.333 178.005 216.899 163.305 232.499 188.505C233.333 180.505 238.899 165.405 254.499 169.005C267.499 174.505 285.699 190.905 254.499 212.505C249.773 213.57 240.395 213.228 235.819 205.133C241.365 216.457 255.025 233.117 244.999 247.505C235.772 260.747 234.5 265 212.5 265C204.334 265 196.999 265 185.999 249.505C174.499 227.5 195.799 202.505 196.999 200.505C191.666 205.672 179.699 215.305 174.499 212.505Z" fill="#EBE2DD"/>
<path d="M201.999 196.866C201.999 217.003 178.411 246.759 214.205 246.759C250 246.759 228.037 215.182 226.351 196.866C226.351 169.504 201.999 171.005 201.999 196.866Z" fill="#171722" stroke="black"/>
<path d="M194.566 190.309C194.566 201.087 187.052 209.824 177.783 209.824C168.513 209.824 160.999 201.087 160.999 190.309C160.999 179.53 168.513 170.793 177.783 170.793C187.052 170.793 194.566 179.53 194.566 190.309Z" fill="black"/>
<path d="M188.321 187.186C188.321 191.497 185.875 194.992 182.857 194.992C179.839 194.992 177.393 191.497 177.393 187.186C177.393 182.875 179.839 179.38 182.857 179.38C185.875 179.38 188.321 182.875 188.321 187.186Z" fill="#FEFFFF"/>
<path d="M176.611 200.067C176.611 202.869 175.213 205.141 173.489 205.141C171.764 205.141 170.366 202.869 170.366 200.067C170.366 197.264 171.764 194.993 173.489 194.993C175.213 194.993 176.611 197.264 176.611 200.067Z" fill="#1A2325"/>
<path d="M268.725 190.309C268.725 201.087 261.211 209.824 251.942 209.824C242.672 209.824 235.158 201.087 235.158 190.309C235.158 179.53 242.672 170.793 251.942 170.793C261.211 170.793 268.725 179.53 268.725 190.309Z" fill="black"/>
<path d="M259.357 200.067C259.357 202.869 257.959 205.141 256.235 205.141C254.51 205.141 253.112 202.869 253.112 200.067C253.112 197.264 254.51 194.993 256.235 194.993C257.959 194.993 259.357 197.264 259.357 200.067Z" fill="#1A2325"/>
<path d="M251.552 187.186C251.552 191.497 249.105 194.992 246.087 194.992C243.07 194.992 240.623 191.497 240.623 187.186C240.623 182.875 243.07 179.38 246.087 179.38C249.105 179.38 251.552 182.875 251.552 187.186Z" fill="#FEFFFF"/>
<path d="M167.999 158.863C175.025 159.384 188.686 158.317 187.124 149.886C184.522 145.333 177.054 140.753 167.999 158.863Z" fill="#4A403F" stroke="black" stroke-width="2"/>
<path d="M262.969 158.863C255.943 159.384 242.282 158.317 243.843 149.886C246.445 145.333 253.913 140.753 262.969 158.863Z" fill="#4A403F" stroke="black" stroke-width="2"/>
</svg>
