<svg width="446" height="345" viewBox="0 0 446 345" fill="none" xmlns="http://www.w3.org/2000/svg">
<path d="M55.4623 164.018C37.344 30.3061 136.276 74.9477 168.245 108.069L147.482 257.333C109.464 284.636 91.6075 239.908 87.4314 214.131C70.5828 211.107 59.2064 177.842 55.4623 164.018Z" fill="#E56E8C" stroke="black" stroke-width="2"/>
<path d="M165.194 129.457C125.103 70.7026 75.0468 127.009 55.0301 162.722C38.7863 22.4032 124.009 67.1024 168.65 106.992L165.194 129.457Z" fill="#C2C6D2" stroke="black" stroke-width="2"/>
<path d="M389.538 170.068C407.656 36.3569 308.724 80.9985 276.755 114.12L297.518 263.384C335.536 290.687 353.392 245.959 357.569 220.182C374.417 217.158 385.794 183.893 389.538 170.068Z" fill="#E56E8C" stroke="black" stroke-width="2"/>
<path d="M279.806 135.507C319.897 76.7534 369.953 133.059 389.97 168.773C406.214 28.454 320.991 73.1532 276.35 113.043L279.806 135.507Z" fill="#C2C6D2" stroke="black" stroke-width="2"/>
<path d="M227.416 82.9761C121.8 80.8967 112.998 172.794 121.8 219.002C107.948 281.73 182.111 298.278 221.356 296.979C326.279 294.553 334.042 242.828 324.375 219.002C338.226 103.597 265.507 80.2325 227.416 82.9761Z" fill="#C2C6D2" stroke="black" stroke-width="2"/>
<path d="M163.285 152.533C171.061 153.109 186.182 151.929 184.454 142.597C181.574 137.557 173.308 132.488 163.285 152.533Z" fill="#212531" stroke="black" stroke-width="2"/>
<path d="M268.401 152.533C260.625 153.109 245.505 151.929 247.233 142.597C250.113 137.557 258.379 132.488 268.401 152.533Z" fill="#212531" stroke="black" stroke-width="2"/>
<ellipse cx="177.542" cy="184.724" rx="18.5767" ry="21.6008" fill="black"/>
<ellipse cx="183.159" cy="181.267" rx="6.04821" ry="8.64031" fill="#FEFFFF"/>
<ellipse cx="172.789" cy="195.524" rx="3.45612" ry="5.6162" fill="#4F515E"/>
<ellipse cx="259.625" cy="184.724" rx="18.5767" ry="21.6008" fill="black"/>
<ellipse cx="264.375" cy="195.524" rx="3.45612" ry="5.6162" fill="#4F515E"/>
<ellipse cx="253.143" cy="181.267" rx="6.04821" ry="8.64031" fill="#FEFFFF"/>
<path d="M192.208 219.06C180.839 248.269 187.483 255.141 223.343 267.479C192.208 256.767 171.16 253.853 152.26 258.622C152.454 261.575 153.658 267.479 156.921 267.479C156.144 269.448 155.056 273.502 156.921 273.975C158.642 274.411 161.316 277.423 164.475 273.975M167.991 267.479C166.772 270.722 165.593 272.754 164.475 273.975M164.475 273.975C192.061 301.728 319.783 295.948 250.196 219.06" stroke="black" stroke-width="2"/>
<rect x="195" y="210" width="57" height="9" fill="#C2C6D2"/>
</svg>
