<svg width="446" height="346" viewBox="0 0 446 346" fill="none" xmlns="http://www.w3.org/2000/svg">
<path d="M276.797 2.22607C251.066 63.5846 241.994 104.325 240.674 117.026C244.633 168.092 288.178 170.962 309.455 166.014C335.582 123.657 298.569 39.1731 276.797 2.22607Z" fill="#EF9B46" stroke="black" stroke-width="2"/>
<path d="M259.972 46.7607C275.807 37.6559 291.303 42.967 297.571 46.7607L288.672 24.9884L276.789 2.72119L267.395 25.4832L263.436 35.8746L259.972 46.7607Z" fill="#A1662C" stroke="black" stroke-width="2"/>
<path d="M268.269 124.943C273.019 146.715 285.753 150.839 291.526 150.179C305.975 159.284 303.154 151.004 299.938 145.726C306.667 142.163 302.742 139.623 299.938 138.798C314.585 121.776 290.536 52.8633 276.681 20.5347C264.805 53.787 266.125 103.995 268.269 124.943Z" fill="#FFA88D" stroke="black" stroke-width="2"/>
<path d="M155.645 2.22607C181.376 63.5846 190.448 104.325 191.767 117.026C187.809 168.092 144.264 170.962 122.986 166.014C96.8593 123.657 133.872 39.1731 155.645 2.22607Z" fill="#EF9B46" stroke="black" stroke-width="2"/>
<path d="M172.468 46.7597C156.634 37.6549 141.137 42.9661 134.869 46.7597L143.768 24.9874L155.652 2.72021L165.046 25.4822L169.004 35.8736L172.468 46.7597Z" fill="#A1662C" stroke="black" stroke-width="2"/>
<path d="M164.172 124.943C159.422 146.715 146.689 150.839 140.916 150.179C126.466 159.284 129.287 151.004 132.504 145.726C125.774 142.163 129.7 139.623 132.504 138.798C117.857 121.776 141.905 52.8633 155.76 20.5347C167.636 53.787 166.317 103.995 164.172 124.943Z" fill="#FFA88D" stroke="black" stroke-width="2"/>
<path d="M220.085 83.9108C115.554 81.8544 106.843 172.734 115.554 218.431C101.844 280.464 175.245 296.83 214.087 295.544C317.933 293.145 325.616 241.993 316.048 218.431C329.758 104.303 257.785 81.1975 220.085 83.9108Z" fill="#EF9B46" stroke="black" stroke-width="2"/>
<path d="M198.283 225.508C157.499 230.649 127.549 222.615 116.553 218.331C102.203 284.637 183.861 295.822 212.55 295.029C319.927 292.06 324.463 240.56 315.038 218.568C290.019 229.878 246.979 228.078 228.7 225.508H198.283Z" fill="white"/>
<path d="M232.58 224.78C221.613 220.667 206.019 223.066 199.593 224.78C195.823 231.635 201.877 233.348 204.733 233.348C206.019 237.632 205.59 242.773 209.018 244.487H221.87C226.668 244.144 227.153 236.918 227.439 233.348C234.636 233.006 234.294 227.493 232.58 224.78Z" fill="black" stroke="black" stroke-width="2"/>
<path d="M263.494 141.208C256.541 141.723 243.022 140.667 244.567 132.324C247.142 127.817 254.533 123.285 263.494 141.208Z" fill="#4C3C2D" stroke="black" stroke-width="2"/>
<path d="M169.507 141.208C176.46 141.723 189.979 140.667 188.434 132.324C185.859 127.817 178.468 123.285 169.507 141.208Z" fill="#4C3C2D" stroke="black" stroke-width="2"/>
<path d="M176.196 247.459C188.648 268.701 222.091 298.44 256.244 247.459" stroke="black" stroke-width="5" stroke-linecap="round"/>
<ellipse cx="252.574" cy="189.151" rx="16.6098" ry="19.3138" fill="black"/>
<ellipse cx="256.823" cy="198.808" rx="3.0902" ry="5.02158" fill="#4F515E"/>
<ellipse cx="246.78" cy="186.061" rx="5.40785" ry="7.7255" fill="#FEFFFF"/>
<ellipse cx="179.181" cy="189.151" rx="16.6098" ry="19.3138" fill="black"/>
<ellipse cx="184.203" cy="186.061" rx="5.40785" ry="7.7255" fill="#FEFFFF"/>
<ellipse cx="174.932" cy="198.808" rx="3.0902" ry="5.02158" fill="#4F515E"/>
</svg>
