<svg width="446" height="345" viewBox="0 0 446 345" fill="none" xmlns="http://www.w3.org/2000/svg">
<path d="M301.502 138.828L287.596 118.257C274.245 90.8281 293.158 72.5424 304.284 66.8281C337.66 86.5767 316.336 123.057 301.502 138.828Z" fill="#C3795F" stroke="black" stroke-width="2"/>
<path d="M312.004 153.828C319.604 150.228 320.837 142.995 320.504 139.828C332.904 89.4283 310.964 62.8284 307.004 58.3283C296.004 45.8284 277.67 87.495 278.004 99.8283C278.803 117.828 289.337 115.662 294.504 112.328C297.304 55.9283 305.337 72.1617 309.004 87.3283C317.004 113.328 307.67 123.162 302.004 124.828L312.004 153.828Z" fill="#E9E4DD" stroke="black" stroke-width="2"/>
<path d="M134.757 138.828L148.664 118.257C162.014 90.8281 143.101 72.5424 131.976 66.8281C98.6001 86.5767 119.924 123.057 134.757 138.828Z" fill="#C3795F" stroke="black" stroke-width="2"/>
<path d="M124.256 153.828C116.656 150.228 115.423 142.995 115.756 139.828C103.356 89.4283 125.296 62.8284 129.256 58.3283C140.256 45.8284 158.59 87.495 158.256 99.8283C157.456 117.828 146.923 115.662 141.756 112.328C138.956 55.9283 130.923 72.1617 127.256 87.3283C119.256 113.328 128.589 123.162 134.256 124.828L124.256 153.828Z" fill="#E9E4DD" stroke="black" stroke-width="2"/>
<path d="M261.015 24.8281C223.015 73.2281 221.515 126.661 225.515 147.328C232.715 163.328 252.181 153.995 261.015 147.328C250.615 132.928 265.348 69.6614 274.015 39.8281C284.415 1.82807 269.681 13.9947 261.015 24.8281Z" fill="#89776A" stroke="black" stroke-width="2"/>
<path d="M174.58 24.8281C212.58 73.2281 214.08 126.661 210.08 147.328C202.88 163.328 183.413 153.995 174.58 147.328C184.98 132.928 170.247 69.6614 161.58 39.8281C151.18 1.82807 165.913 13.9947 174.58 24.8281Z" fill="#89776A" stroke="black" stroke-width="2"/>
<path d="M197.364 318.328C194.864 332.328 191.364 299.828 193.864 292.828L212.844 294.777L239.364 291.828C240.864 300.828 238.728 305.147 238.364 308.328C236.364 325.828 229.864 330.328 229.364 321.328C228.864 312.328 226.065 317.87 225.364 323.828C224.364 332.328 218.696 352.379 215.844 339.828C208.844 321.828 212.844 317.328 210.364 320.328C206.384 325.144 208.864 348.828 202.364 323.828C202.364 338.328 197.507 317.526 197.364 318.328Z" fill="#E1DBD4" stroke="black" stroke-width="1.7"/>
<path d="M220.581 84.8235C115.568 82.756 106.817 174.128 115.568 220.072C101.796 282.441 175.534 298.895 214.555 297.603C318.879 295.191 326.597 243.762 316.985 220.072C330.757 105.326 258.454 82.0956 220.581 84.8235Z" fill="#E9E4DD" stroke="black" stroke-width="2"/>
<path d="M175.003 241.027C187.866 262.97 222.411 293.689 257.692 241.027" stroke="black" stroke-width="5" stroke-linecap="round"/>
<path d="M200.551 228.257C204.503 230.328 210.003 234.328 212.628 237.543H221.003C222.503 235.59 226.803 231 232.003 228.257C234.503 225.781 239.603 220.828 240.003 220.828C240.503 220.828 234.503 237.543 231.003 239.4C227.503 239.828 222.003 241.828 216.003 245.828C213.503 241.828 207.596 240.638 202.061 239.4C199.645 236.428 195.016 225.781 193.003 220.828C196.626 223.8 199.545 227.019 200.551 228.257Z" fill="#C4B0B0" stroke="black"/>
<ellipse cx="179.786" cy="191.133" rx="16.7835" ry="19.5157" fill="black"/>
<ellipse cx="184.861" cy="188.01" rx="5.46439" ry="7.80627" fill="#FEFFFF"/>
<ellipse cx="175.493" cy="200.89" rx="3.12251" ry="5.07408" fill="#A2B474"/>
<ellipse cx="253.946" cy="191.133" rx="16.7835" ry="19.5157" fill="black"/>
<ellipse cx="258.239" cy="200.89" rx="3.12251" ry="5.07408" fill="#A2B474"/>
<ellipse cx="248.091" cy="188.01" rx="5.46439" ry="7.80627" fill="#FEFFFF"/>
<path d="M170.003 159.688C177.029 160.208 190.69 159.141 189.128 150.71C186.526 146.157 179.058 141.577 170.003 159.688Z" fill="#212531" stroke="black" stroke-width="2"/>
<path d="M264.973 159.688C257.947 160.208 244.286 159.141 245.847 150.71C248.449 146.157 255.917 141.577 264.973 159.688Z" fill="#212531" stroke="black" stroke-width="2"/>
</svg>
