<svg width="446" height="345" viewBox="0 0 446 345" fill="none" xmlns="http://www.w3.org/2000/svg">
<path d="M147.913 298.358C91.8308 330.944 92.1646 276.402 99.3418 245.059L101.93 181.219C101.977 180.075 102.121 178.937 102.362 177.818L111.5 135.39C135.913 67.3903 290.5 36.3897 323 149.39C343.114 219.326 186.636 269.469 147.913 298.358Z" fill="#9A5F3D" stroke="black" stroke-width="2"/>
<path d="M217.578 87.5999C112.565 85.5324 103.814 176.904 112.565 222.848C98.7932 285.218 172.531 301.671 211.552 300.379C315.876 297.967 323.594 246.538 313.982 222.848C327.755 108.103 255.451 84.872 217.578 87.5999Z" fill="#BB856E"/>
<path d="M217.558 86.5996C236.698 85.2341 264.511 90.4143 285.831 110.442C307.181 130.498 321.842 165.27 315.003 222.713C319.835 234.858 320.21 253.902 306.253 270.242C292.22 286.672 263.87 300.168 211.583 301.378L211.584 301.379C191.96 302.029 163.578 298.225 141.782 286.365C130.873 280.429 121.559 272.444 115.855 261.934C110.165 251.45 108.119 238.543 111.545 222.836C107.182 199.734 107.205 165.278 121.516 136.771C128.701 122.458 139.492 109.639 155.133 100.535C170.764 91.4374 191.176 86.0858 217.558 86.5996ZM284.461 111.9C263.624 92.3272 236.38 87.2484 217.649 88.5976L217.603 88.6005L217.557 88.5996C191.451 88.0856 171.403 93.3794 156.139 102.264C140.878 111.146 130.338 123.654 123.303 137.668C109.214 165.734 109.197 199.82 113.547 222.661L113.585 222.863L113.541 223.063C110.144 238.449 112.155 250.922 117.613 260.979C123.08 271.055 132.058 278.797 142.739 284.608C164.124 296.245 192.122 300.022 211.519 299.38L211.529 299.379C263.56 298.176 291.229 284.752 304.732 268.943C318.219 253.152 317.744 234.782 313.055 223.225L312.958 222.985L312.989 222.729C319.848 165.579 305.257 131.435 284.461 111.9Z" fill="black"/>
<path d="M206.791 189.764C207.813 181.495 209.855 179.723 200.662 170.273C198.619 165.744 195.758 155.625 200.662 151.372C205.565 147.119 202.705 148.813 200.662 150.191C196.235 147.237 187.995 139.913 190.447 134.243C189.425 132.668 190.038 130.463 200.662 134.243C203.386 132.471 205.974 128.337 194.533 125.974C190.447 121.84 188.812 113.335 214.963 112.39C219.73 113.571 229.878 115.579 232.329 114.162C238.118 117.312 246.222 124.675 232.329 128.928C229.264 132.668 222.318 139.914 219.049 138.969C223.135 142.906 228.856 151.254 219.049 153.144C222.454 159.051 227.221 171.218 219.049 172.635C218.4 172.748 217.824 172.846 217.314 172.932C220.09 175.672 224.71 181.939 223.135 187.401C225.196 195.67 227.063 212.208 218.053 212.208C213.449 206.618 206.032 195.912 206.791 189.764Z" fill="#E1DFDE"/>
<path d="M282 266.446C282 292.984 251.332 314.498 213.5 314.498C175.668 314.498 145 292.984 145 266.446C145 239.907 175.668 218.394 213.5 218.394C251.332 218.394 282 239.907 282 266.446Z" fill="#816151"/>
<path d="M280 266.445C280 254.006 272.815 242.542 260.788 234.105C248.767 225.673 232.055 220.394 213.5 220.394C194.945 220.394 178.233 225.673 166.212 234.105C154.185 242.542 147 254.006 147 266.445C147 278.885 154.185 290.349 166.212 298.786C178.233 307.219 194.945 312.498 213.5 312.498V314.498L212.614 314.494C175.191 314.161 145 292.776 145 266.445C145 239.907 175.669 218.394 213.5 218.394C251.331 218.394 282 239.907 282 266.445C282 292.984 251.332 314.498 213.5 314.498V312.498C232.055 312.498 248.767 307.219 260.788 298.786C272.815 290.349 280 278.885 280 266.445Z" fill="black"/>
<path d="M252.612 265.002C253.381 263.855 254.934 263.548 256.081 264.316C257.228 265.085 257.535 266.638 256.766 267.785C247.791 281.182 238.717 289.498 229.808 293.933C220.847 298.395 212.196 298.856 204.305 296.788C188.718 292.704 176.418 278.873 169.844 267.658C169.145 266.467 169.545 264.934 170.736 264.236C171.927 263.538 173.46 263.938 174.158 265.129C180.446 275.856 191.85 288.356 205.572 291.952C212.335 293.724 219.74 293.361 227.58 289.458C235.473 285.528 243.947 277.936 252.612 265.002Z" fill="black"/>
<path d="M193.567 193.909C193.567 204.687 186.053 213.425 176.783 213.425C167.514 213.425 160 204.687 160 193.909C160 183.131 167.514 174.394 176.783 174.394C186.053 174.394 193.567 183.131 193.567 193.909Z" fill="black"/>
<path d="M187.321 190.787C187.321 195.098 184.875 198.593 181.857 198.593C178.839 198.593 176.393 195.098 176.393 190.787C176.393 186.475 178.839 182.98 181.857 182.98C184.875 182.98 187.321 186.475 187.321 190.787Z" fill="#FEFFFF"/>
<path d="M175.612 203.667C175.612 206.47 174.214 208.741 172.49 208.741C170.765 208.741 169.367 206.47 169.367 203.667C169.367 200.865 170.765 198.593 172.49 198.593C174.214 198.593 175.612 200.865 175.612 203.667Z" fill="#4F515E"/>
<path d="M267.727 193.909C267.727 204.687 260.213 213.425 250.944 213.425C241.674 213.425 234.16 204.687 234.16 193.909C234.16 183.131 241.674 174.394 250.944 174.394C260.213 174.394 267.727 183.131 267.727 193.909Z" fill="black"/>
<path d="M258.36 203.667C258.36 206.47 256.962 208.741 255.238 208.741C253.513 208.741 252.115 206.47 252.115 203.667C252.115 200.865 253.513 198.593 255.238 198.593C256.962 198.593 258.36 200.865 258.36 203.667Z" fill="#4F515E"/>
<path d="M250.554 190.787C250.554 195.098 248.107 198.593 245.089 198.593C242.071 198.593 239.625 195.098 239.625 190.787C239.625 186.475 242.071 182.98 245.089 182.98C248.107 182.98 250.554 186.475 250.554 190.787Z" fill="#FEFFFF"/>
<path d="M167 162.464C174.026 162.984 187.687 161.918 186.125 153.487C183.523 148.933 176.055 144.353 167 162.464Z" fill="#212531"/>
<path d="M178.818 148.49C182.748 147.84 185.601 150.556 186.992 152.99L187.077 153.138L187.107 153.305C187.554 155.718 186.905 157.684 185.52 159.195C184.177 160.659 182.204 161.636 180.075 162.288C175.811 163.594 170.5 163.726 166.925 163.461L165.438 163.352L166.104 162.017C170.654 152.918 174.982 149.125 178.818 148.49ZM185.168 153.839C183.941 151.781 181.801 150.024 179.145 150.463C176.48 150.904 172.808 153.596 168.596 161.547C171.901 161.661 176.103 161.413 179.489 160.376C181.458 159.773 183.046 158.934 184.046 157.844C184.972 156.833 185.442 155.555 185.168 153.839Z" fill="black"/>
<path d="M261.969 162.464C254.943 162.984 241.282 161.918 242.843 153.487C245.445 148.933 252.913 144.353 261.969 162.464Z" fill="#212531"/>
<path d="M250.15 148.49C246.221 147.84 243.368 150.556 241.977 152.99L241.892 153.138L241.861 153.305C241.414 155.718 242.064 157.684 243.449 159.195C244.791 160.659 246.764 161.636 248.894 162.288C253.158 163.594 258.469 163.726 262.044 163.461L263.531 163.352L262.864 162.017C258.315 152.918 253.987 149.125 250.15 148.49ZM243.801 153.839C245.028 151.781 247.168 150.024 249.824 150.463C252.489 150.904 256.161 153.596 260.373 161.547C257.068 161.661 252.865 161.413 249.479 160.376C247.511 159.773 245.923 158.934 244.923 157.844C243.996 156.833 243.527 155.555 243.801 153.839Z" fill="black"/>
<path d="M186.356 239.397C193.469 244.067 206.272 253.966 200.582 256.208C192.521 257.141 178.39 255.087 186.356 239.397Z" fill="#5B584E"/>
<path d="M186.631 238.979C190.198 241.321 195.209 244.984 198.622 248.357C200.317 250.032 201.674 251.689 202.226 253.111C202.505 253.828 202.604 254.551 202.366 255.205C202.122 255.872 201.565 256.357 200.765 256.672L200.704 256.697L200.639 256.705C198.59 256.942 196.154 256.99 193.773 256.677C191.397 256.365 189.041 255.69 187.181 254.453C185.307 253.206 183.942 251.388 183.59 248.842C183.24 246.319 183.894 243.142 185.91 239.17L186.164 238.672L186.631 238.979ZM186.552 240.13C184.789 243.757 184.282 246.559 184.58 248.706C184.888 250.929 186.066 252.508 187.736 253.62C189.421 254.741 191.611 255.385 193.903 255.686C196.164 255.983 198.489 255.94 200.456 255.717C201.039 255.476 201.313 255.172 201.426 254.862C201.549 254.526 201.526 254.072 201.294 253.473C200.824 252.263 199.602 250.733 197.919 249.069C194.721 245.908 190.054 242.461 186.552 240.13Z" fill="black"/>
<path d="M241.644 239.394C234.531 244.063 221.728 253.963 227.418 256.204C235.479 257.138 249.61 255.083 241.644 239.394Z" fill="#5B584E"/>
<path d="M241.369 238.976C237.802 241.318 232.791 244.981 229.378 248.354C227.683 250.028 226.326 251.685 225.774 253.107C225.495 253.824 225.396 254.548 225.634 255.201C225.878 255.869 226.435 256.354 227.235 256.669L227.296 256.693L227.361 256.701C229.41 256.939 231.846 256.986 234.227 256.674C236.603 256.362 238.959 255.686 240.819 254.449C242.693 253.202 244.058 251.385 244.41 248.839C244.76 246.315 244.106 243.138 242.09 239.167L241.836 238.669L241.369 238.976ZM241.448 240.127C243.211 243.754 243.718 246.556 243.42 248.702C243.112 250.925 241.934 252.505 240.264 253.616C238.579 254.737 236.389 255.382 234.097 255.683C231.836 255.979 229.511 255.937 227.544 255.714C226.961 255.472 226.687 255.169 226.574 254.858C226.451 254.523 226.474 254.069 226.706 253.47C227.176 252.26 228.398 250.729 230.081 249.065C233.279 245.905 237.946 242.458 241.448 240.127Z" fill="black"/>
<path d="M275.955 95.276C262.64 103.494 265.404 118.054 270.583 122.756C281.442 116.727 279.461 121.962 283.972 111.367C298.068 114.123 306.566 101.848 309.053 95.3659L312.457 52.9936L284.84 86.314L275.955 95.276Z" fill="#BB856E"/>
<path d="M284.101 85.6401L275.325 94.4931C268.461 98.7731 265.68 104.732 265.337 110.273C264.996 115.772 267.057 120.905 269.912 123.496L270.443 123.978L271.07 123.63C273.738 122.149 275.604 121.367 276.97 120.861C277.668 120.602 278.216 120.423 278.735 120.24C279.235 120.064 279.704 119.886 280.134 119.655C281.064 119.153 281.697 118.459 282.375 117.261C282.965 116.218 283.631 114.711 284.581 112.489C291.617 113.611 297.293 111.147 301.511 107.595C305.861 103.932 308.696 99.0916 309.988 95.7246L310.039 95.5893L310.05 95.4462L313.709 49.9177L284.101 85.6401ZM308.071 95.1319C306.853 98.2423 304.213 102.705 300.223 106.066C296.205 109.449 290.855 111.693 284.165 110.386L283.369 110.23L283.053 110.975C281.916 113.644 281.218 115.244 280.634 116.277C280.076 117.264 279.681 117.626 279.185 117.894C278.902 118.047 278.558 118.182 278.071 118.354C277.604 118.518 276.989 118.721 276.276 118.985C274.938 119.48 273.178 120.218 270.762 121.521C268.67 119.253 267.045 115.047 267.334 110.397C267.64 105.457 270.108 100.061 276.481 96.1271L276.582 96.0642L276.666 95.9801L285.551 87.0182L285.582 86.9864L285.61 86.9522L311.209 56.068L308.071 95.1319Z" fill="black"/>
<path d="M278.955 101.064C271.09 106.529 271.681 116.361 274.235 119.56C280.606 115.557 279.179 119.075 282.343 111.958C289.936 113.895 295.406 105.668 297.191 101.312L301.779 72.7653L284.425 95.0725L278.955 101.064Z" fill="#68403B"/>
<path d="M283.663 94.4243L278.286 100.314C274.163 103.222 272.245 107.274 271.699 111.017C271.158 114.728 271.949 118.297 273.454 120.183L274.012 120.882L274.768 120.407C276.315 119.435 277.373 118.928 278.136 118.604C278.534 118.436 278.831 118.325 279.142 118.2C279.433 118.082 279.731 117.953 280.014 117.78C280.634 117.401 281.056 116.886 281.51 116.074C281.884 115.406 282.322 114.46 282.929 113.103C286.815 113.77 290.122 112.054 292.627 109.728C295.299 107.246 297.185 103.966 298.117 101.691L298.16 101.585L298.179 101.471L302.768 72.9237L300.991 72.1519L283.663 94.4243ZM296.224 101.034C295.356 103.111 293.633 106.063 291.265 108.263C288.867 110.49 285.938 111.843 282.591 110.989L281.774 110.78L281.431 111.552C280.632 113.348 280.149 114.413 279.766 115.097C279.399 115.752 279.185 115.943 278.971 116.074C278.836 116.156 278.666 116.234 278.392 116.345C278.137 116.448 277.769 116.588 277.355 116.763C276.651 117.062 275.752 117.49 274.55 118.199C273.758 116.685 273.264 114.147 273.678 111.306C274.161 107.997 275.854 104.438 279.526 101.886L279.618 101.822L279.694 101.738L285.164 95.7466L285.191 95.7181L285.215 95.6869L300.174 76.4596L296.224 101.034Z" fill="black"/>
<path d="M141.201 97.276C154.516 105.494 151.752 120.054 146.573 124.756C135.715 118.727 137.695 123.962 133.185 113.367C119.088 116.123 110.59 103.848 108.104 97.3659L104.699 54.9936L132.317 88.314L141.201 97.276Z" fill="#BB856E"/>
<path d="M133.056 87.6401L141.831 96.4931C148.695 100.773 151.476 106.732 151.82 112.273C152.16 117.772 150.099 122.905 147.244 125.496L146.713 125.978L146.086 125.63C143.418 124.149 141.553 123.367 140.186 122.861C139.488 122.602 138.941 122.423 138.421 122.24C137.922 122.064 137.452 121.886 137.022 121.655C136.093 121.153 135.459 120.459 134.781 119.261C134.191 118.218 133.525 116.711 132.576 114.489C125.539 115.611 119.863 113.147 115.645 109.595C111.295 105.932 108.46 101.092 107.169 97.7246L107.117 97.5893L107.106 97.4462L103.447 51.9177L133.056 87.6401ZM109.086 97.1319C110.303 100.242 112.943 104.705 116.934 108.066C120.952 111.449 126.301 113.693 132.991 112.386L133.787 112.23L134.104 112.975C135.24 115.644 135.938 117.244 136.522 118.277C137.081 119.264 137.475 119.626 137.972 119.894C138.255 120.047 138.598 120.182 139.085 120.354C139.553 120.518 140.167 120.721 140.88 120.985C142.218 121.48 143.978 122.218 146.394 123.521C148.486 121.253 150.111 117.047 149.823 112.397C149.516 107.457 147.048 102.061 140.675 98.1271L140.574 98.0642L140.49 97.9801L131.606 89.0182L131.574 88.9864L131.546 88.9522L105.947 58.068L109.086 97.1319Z" fill="black"/>
<path d="M138.202 103.064C146.066 108.529 145.475 118.361 142.921 121.56C136.551 117.557 137.977 121.075 134.813 113.958C127.22 115.895 121.751 107.668 119.965 103.312L115.377 74.7653L132.731 97.0725L138.202 103.064Z" fill="#68403B"/>
<path d="M133.493 96.4243L138.87 102.314C142.993 105.222 144.912 109.274 145.457 113.017C145.998 116.728 145.207 120.297 143.702 122.183L143.145 122.882L142.388 122.407C140.841 121.435 139.783 120.928 139.02 120.604C138.622 120.436 138.326 120.325 138.015 120.2C137.723 120.082 137.425 119.953 137.143 119.78C136.522 119.401 136.1 118.886 135.646 118.074C135.272 117.406 134.834 116.46 134.228 115.103C130.342 115.77 127.034 114.054 124.53 111.728C121.858 109.246 119.972 105.966 119.039 103.691L118.996 103.585L118.977 103.471L114.388 74.9237L116.165 74.1519L133.493 96.4243ZM120.932 103.034C121.8 105.111 123.523 108.063 125.891 110.263C128.289 112.49 131.219 113.843 134.565 112.989L135.383 112.78L135.726 113.552C136.524 115.348 137.007 116.413 137.39 117.097C137.757 117.752 137.971 117.943 138.186 118.074C138.32 118.156 138.49 118.234 138.764 118.345C139.019 118.448 139.387 118.588 139.801 118.763C140.505 119.062 141.404 119.49 142.606 120.199C143.398 118.685 143.892 116.147 143.478 113.306C142.996 109.997 141.303 106.438 137.63 103.886L137.538 103.822L137.463 103.738L131.992 97.7466L131.966 97.7181L131.941 97.6869L116.982 78.4596L120.932 103.034Z" fill="black"/>
<path d="M192.912 129.621C150.112 148.421 146.999 106.89 155.412 90.6207C219.498 57.3895 265.998 80.8896 270.912 99.1207C273.712 115.921 258.079 126.454 249.912 129.621C248.712 142.821 225.079 156.121 213.412 161.121C200.212 166.721 194.246 142.454 192.912 129.621Z" fill="#9A5F3D"/>
<path d="M154.952 89.7333C187.171 73.0264 215.048 70.5416 235.546 74.5907C245.789 76.6142 254.199 80.2716 260.379 84.6093C266.346 88.7976 270.313 93.6784 271.747 98.4032L271.878 98.8603L271.891 98.9081L271.899 98.956C273.361 107.734 269.992 114.861 265.271 120.149C260.773 125.187 255.005 128.61 250.837 130.324C250.37 133.684 248.602 136.962 246.122 140.036C243.484 143.305 239.982 146.419 236.185 149.248C228.59 154.906 219.692 159.517 213.806 162.04L213.803 162.041C210.182 163.577 206.972 163.068 204.259 161.188C201.613 159.355 199.494 156.262 197.809 152.712C194.659 146.075 192.845 137.45 192.069 131.068C181.85 135.357 173.797 136.232 167.577 134.718C161.069 133.134 156.713 128.973 154.065 123.722C151.429 118.496 150.477 112.188 150.704 106.184C150.931 100.181 152.34 94.3846 154.525 90.1611L154.67 89.8788L154.952 89.7333ZM235.158 76.5536C215.216 72.6144 187.903 74.9708 156.157 91.3622C154.214 95.2529 152.916 100.625 152.703 106.26C152.485 112.031 153.409 117.98 155.851 122.821C158.279 127.636 162.2 131.35 168.05 132.774C173.938 134.207 181.923 133.356 192.511 128.705L193.766 128.154L193.907 129.517C194.568 135.88 196.376 145.028 199.615 151.854C201.239 155.275 203.171 158.001 205.398 159.544C207.556 161.04 210.041 161.463 213.019 160.201L214.136 159.713C219.888 157.153 228.017 152.839 234.99 147.643C238.709 144.873 242.07 141.873 244.566 138.78C247.068 135.679 248.641 132.556 248.916 129.53L248.973 128.912L249.551 128.688C253.517 127.15 259.324 123.806 263.778 118.817C268.206 113.857 271.249 107.335 269.933 99.3349C268.773 95.0975 265.152 90.4036 259.23 86.247C253.306 82.0896 245.164 78.5302 235.158 76.5536Z" fill="black"/>
</svg>
