<svg width="446" height="347" viewBox="0 0 446 347" fill="none" xmlns="http://www.w3.org/2000/svg">
<path d="M209.439 51.8742C209.993 6.66461 291 6.46484 291 48.1489C312.5 14.1487 395.335 64.2557 336.547 86.6492C372.835 72.8263 417.147 118.449 367.547 153.649C402.046 146.62 415.497 208.324 365.614 206.561C400.509 213.8 390.558 267.277 359.047 260.649C387.835 276.256 373.335 329.149 332.547 311.149C336.451 344.443 308.242 351.234 281.966 313.956C291.761 332.516 256.431 362.978 237.046 329.149C228.713 339.316 210.046 353.549 202.046 329.149C194.38 341.816 175.646 359.549 162.046 329.149C151.335 355.756 101.546 349.256 121.546 315.649C105.335 335.756 75.545 326.256 101.546 295.649C64.3352 311.149 44.8458 287.749 70.0459 248.149C44.8369 264.756 12.3369 211.256 70.0459 201.149C26.1368 201.149 16.5643 156.032 68.8039 153.713C25.0928 151.394 9.62992 95.6275 75.5451 81.1492C54.3352 63.7558 76.5448 2.04925 134.546 39.6493C132.371 16.1464 206.997 -1.23498 209.439 51.8742Z" fill="#A44D17" stroke="black" stroke-width="2"/>
<path d="M208.925 66.6181C209.456 27.6704 280.015 21.753 280.015 57.4397C297.923 28.3413 365.809 82.6865 316.841 101.852C347.067 90.0215 383.976 129.067 342.662 159.192C371.398 153.177 382.602 205.985 341.052 204.475C370.118 210.671 361.829 256.438 335.582 250.766C359.562 264.123 347.484 309.39 313.509 293.985C316.761 322.48 293.264 328.291 271.377 296.388C279.537 312.272 250.109 338.342 233.962 309.39C227.021 318.091 211.472 330.273 204.809 309.39C198.423 320.231 182.819 335.408 171.491 309.39C162.569 332.161 121.097 326.598 137.756 297.837C124.253 315.044 99.4397 306.914 121.097 280.72C90.1025 293.985 73.8688 273.959 94.8592 240.068C73.8614 254.28 46.7905 208.494 94.8592 199.844C58.2851 199.844 50.3118 161.232 93.8247 159.246C57.4155 157.262 44.5357 109.535 99.4397 97.1445C81.773 82.2587 100.272 29.4484 148.584 61.6276C146.773 41.5089 206.981 21.3022 208.925 66.6181Z" fill="#BE5818" stroke="black" stroke-width="2"/>
<path d="M285.268 50.2558C270.868 34.6558 226.837 61.2559 239.768 82.7558C237.768 92.7556 277.602 111.922 297.768 120.256C301.368 117.456 299.268 109.756 297.768 106.256C304.968 79.4559 292.435 57.7558 285.268 50.2558Z" fill="#E4AA51" stroke="black" stroke-width="2"/>
<path d="M239.336 103.843C252.339 71.8433 290.184 30.8436 290.182 123.62L239.336 103.843Z" fill="#DFB6B6" stroke="black" stroke-width="2"/>
<path d="M142.863 52.2558C157.263 36.6558 201.837 62.2559 188.363 84.7557C190.363 94.7556 150.53 113.922 130.363 122.256C126.763 119.456 128.863 111.756 130.363 108.256C123.163 81.4559 135.697 59.7558 142.863 52.2558Z" fill="#E4AA51" stroke="black" stroke-width="2"/>
<path d="M188.025 104.447C183.065 72.4478 137.177 31.4482 137.18 124.225L188.025 104.447Z" fill="#DFB6B6" stroke="black" stroke-width="2"/>
<path d="M217.914 82.9627C112.901 80.8952 104.15 172.267 112.901 218.211C99.1291 280.58 172.867 297.034 211.888 295.742C316.212 293.33 323.93 241.901 314.318 218.211C328.09 103.465 255.787 80.2347 217.914 82.9627Z" fill="#E4AA51" stroke="black" stroke-width="2"/>
<ellipse cx="214.836" cy="253.756" rx="58.5" ry="34" fill="#F3CB83"/>
<path d="M172.336 239.167C185.199 261.109 219.744 291.828 255.025 239.167" stroke="black" stroke-width="5" stroke-linecap="round"/>
<ellipse cx="177.119" cy="189.272" rx="16.7835" ry="19.5157" fill="black"/>
<ellipse cx="182.193" cy="186.15" rx="5.46439" ry="7.80627" fill="#FEFFFF"/>
<ellipse cx="172.826" cy="199.03" rx="3.12251" ry="5.07408" fill="#4F515E"/>
<ellipse cx="251.28" cy="189.272" rx="16.7835" ry="19.5157" fill="black"/>
<ellipse cx="255.574" cy="199.03" rx="3.12251" ry="5.07408" fill="#4F515E"/>
<ellipse cx="245.425" cy="186.15" rx="5.46439" ry="7.80627" fill="#FEFFFF"/>
<path d="M167.336 157.827C174.362 158.347 188.023 157.28 186.461 148.85C183.859 144.296 176.391 139.716 167.336 157.827Z" fill="#DB9441" stroke="black" stroke-width="2"/>
<path d="M262.305 157.827C255.279 158.347 241.618 157.28 243.179 148.85C245.781 144.296 253.249 139.716 262.305 157.827Z" fill="#DB9441" stroke="black" stroke-width="2"/>
<path d="M240.336 222.585C237.936 220.185 222.503 219.585 213.836 220.585C210.636 218.585 195.336 220.585 189.336 222.585C191.336 224.756 193.669 226.085 194.836 227.085C206.836 227.085 207.836 233.085 206.836 236.085L212.336 243.085H215.836L221.336 236.085C222.536 228.485 231.169 226.918 235.336 227.085C236.536 225.885 238.336 224.251 240.336 222.585Z" fill="#5F4434" stroke="black"/>
</svg>
