<svg width="446" height="345" viewBox="0 0 446 345" fill="none" xmlns="http://www.w3.org/2000/svg">
<path d="M299.66 70.4688C269.161 46.4688 254.66 79.1355 252.66 98.4688C235.06 118.069 278.327 149.302 302.16 162.469C330.96 130.869 314.91 82.4688 299.66 70.4688Z" fill="#221E1D" stroke="black" stroke-width="2"/>
<path d="M285.023 133.615L294.765 119.002C304.117 99.5175 290.868 86.528 283.074 82.4688C259.693 96.4974 274.631 122.411 285.023 133.615Z" fill="#342B23" stroke="black" stroke-width="2"/>
<path d="M127.455 70.4688C157.955 46.4688 172.455 79.1355 174.455 98.4688C192.055 118.069 148.788 149.302 124.955 162.469C96.1548 130.869 112.205 82.4688 127.455 70.4688Z" fill="#221E1D" stroke="black" stroke-width="2"/>
<path d="M142.093 133.615L132.351 119.002C122.998 99.5175 136.247 86.528 144.041 82.4688C167.422 96.4974 152.484 122.411 142.093 133.615Z" fill="#342B23" stroke="black" stroke-width="2"/>
<path d="M217.579 87.4632C112.566 85.3957 103.815 176.767 112.566 222.712C98.7942 285.081 172.532 301.535 211.553 300.242C315.877 297.83 323.595 246.401 313.983 222.712C327.755 107.966 255.452 84.7352 217.579 87.4632Z" fill="#221E1D" stroke="black" stroke-width="2"/>
<path d="M144.001 234.469C152.501 278.969 190.501 286.469 214.001 286.469C262.508 286.469 283.667 253.469 283.501 234.469C311.001 171.469 261.501 155.469 228.501 175.469C214.101 200.669 202.667 183.469 196.001 171.469C130.001 148.469 131.501 215.469 144.001 234.469Z" fill="#F19848"/>
<path d="M252.612 242.275C253.381 241.128 254.934 240.821 256.081 241.59C257.228 242.358 257.535 243.911 256.766 245.058C247.791 258.455 238.717 266.771 229.808 271.207C220.847 275.669 212.196 276.129 204.305 274.061C188.718 269.977 176.418 256.146 169.844 244.931C169.145 243.74 169.545 242.208 170.736 241.51C171.927 240.811 173.46 241.211 174.158 242.402C180.446 253.13 191.85 265.63 205.572 269.225C212.335 270.998 219.74 270.635 227.58 266.731C235.473 262.802 243.947 255.209 252.612 242.275Z" fill="black"/>
<path d="M193.568 193.773C193.568 204.551 186.054 213.288 176.784 213.288C167.515 213.288 160.001 204.551 160.001 193.773C160.001 182.994 167.515 174.257 176.784 174.257C186.054 174.257 193.568 182.994 193.568 193.773Z" fill="black"/>
<path d="M187.323 190.65C187.323 194.961 184.877 198.456 181.859 198.456C178.841 198.456 176.395 194.961 176.395 190.65C176.395 186.339 178.841 182.844 181.859 182.844C184.877 182.844 187.323 186.339 187.323 190.65Z" fill="#FEFFFF"/>
<path d="M175.613 203.531C175.613 206.333 174.215 208.605 172.491 208.605C170.766 208.605 169.368 206.333 169.368 203.531C169.368 200.728 170.766 198.457 172.491 198.457C174.215 198.457 175.613 200.728 175.613 203.531Z" fill="#565648"/>
<path d="M267.727 193.773C267.727 204.551 260.213 213.288 250.944 213.288C241.674 213.288 234.16 204.551 234.16 193.773C234.16 182.994 241.674 174.257 250.944 174.257C260.213 174.257 267.727 182.994 267.727 193.773Z" fill="black"/>
<path d="M258.359 203.531C258.359 206.333 256.961 208.605 255.237 208.605C253.512 208.605 252.114 206.333 252.114 203.531C252.114 200.728 253.512 198.457 255.237 198.457C256.961 198.457 258.359 200.728 258.359 203.531Z" fill="#565648"/>
<path d="M250.554 190.65C250.554 194.961 248.107 198.456 245.089 198.456C242.071 198.456 239.625 194.961 239.625 190.65C239.625 186.339 242.071 182.844 245.089 182.844C248.107 182.844 250.554 186.339 250.554 190.65Z" fill="#FEFFFF"/>
<path d="M167.001 162.327C174.027 162.848 187.688 161.781 186.126 153.35C183.524 148.796 176.056 144.217 167.001 162.327Z" fill="#292520" stroke="black" stroke-width="2"/>
<path d="M261.971 162.327C254.945 162.848 241.284 161.781 242.845 153.35C245.447 148.796 252.915 144.217 261.971 162.327Z" fill="#292520" stroke="black" stroke-width="2"/>
<path d="M214.001 247.257L188.02 224.757H239.981L214.001 247.257Z" fill="#3C3535"/>
<path d="M193.001 225.257C200.601 222.457 209.834 224.09 213.501 225.257C220.701 222.457 230.168 224.09 234.501 225.257C237.02 225.257 240.736 224.328 242.773 223.932C243.179 223.819 243.589 223.757 244.001 223.757C243.753 223.757 243.324 223.825 242.773 223.932C239.235 224.919 235.996 229.813 234.501 231.757C224.101 231.757 220.668 237.757 221.001 240.757L215.501 247.757H212.001L206.501 240.757C209.301 233.557 199.668 231.757 194.501 231.757C193.701 229.357 188.501 225.424 186.001 223.757L193.001 225.257Z" fill="#06020C"/>
</svg>
