<svg width="446" height="345" viewBox="0 0 446 345" fill="none" xmlns="http://www.w3.org/2000/svg">
<path d="M336.983 132C356.63 132 372.967 152.785 372.967 179C372.967 205.215 356.63 226 336.983 226C317.337 226 301 205.215 301 179C301 152.785 317.337 132 336.983 132Z" fill="#EBA345" stroke="black" stroke-width="2"/>
<path d="M341.383 157.239C353.335 159.734 360.796 174.341 357.465 190.3C354.134 206.259 341.452 216.661 329.501 214.167C317.549 211.672 310.087 197.065 313.418 181.106C316.75 165.147 329.431 154.744 341.383 157.239Z" fill="#F3D3A5" stroke="black" stroke-width="2"/>
<path d="M96.9834 127C77.337 127 61 147.785 61 174C61 200.215 77.337 221 96.9834 221C116.63 221 132.967 200.215 132.967 174C132.967 147.785 116.63 127 96.9834 127Z" fill="#EBA345" stroke="black" stroke-width="2"/>
<path d="M92.5829 152.239C80.6311 154.734 73.1697 169.341 76.5007 185.3C79.8318 201.259 92.5134 211.661 104.465 209.167C116.417 206.672 123.879 192.065 120.547 176.106C117.216 160.147 104.535 149.744 92.5829 152.239Z" fill="#F3D3A5" stroke="black" stroke-width="2"/>
<path d="M218.576 83.2063C113.563 81.1388 104.812 172.51 113.563 218.455C99.7912 280.824 173.529 297.278 212.55 295.986C316.874 293.573 324.592 242.145 314.98 218.455C328.753 103.709 256.449 80.4784 218.576 83.2063Z" fill="#EBA344" stroke="black" stroke-width="2"/>
<path d="M130.63 215.153C133.62 127.265 195.22 147.593 214.956 178.085C263.398 118.895 305.262 176.291 295.095 215.153C325.128 283.498 239.128 292.498 214.956 292.498C157.128 292.498 117.129 257.498 130.63 215.153Z" fill="#F5D3A5" stroke="black" stroke-width="2"/>
<path d="M172.998 239.41C185.861 261.353 220.406 292.072 255.687 239.41" stroke="black" stroke-width="5" stroke-linecap="round"/>
<ellipse cx="177.782" cy="189.516" rx="16.7835" ry="19.5157" fill="black"/>
<ellipse cx="182.856" cy="186.393" rx="5.46439" ry="7.80627" fill="#FEFFFF"/>
<ellipse cx="173.488" cy="199.274" rx="3.12251" ry="5.07408" fill="#4F515E"/>
<ellipse cx="251.942" cy="189.516" rx="16.7835" ry="19.5157" fill="black"/>
<ellipse cx="256.235" cy="199.274" rx="3.12251" ry="5.07408" fill="#4F515E"/>
<ellipse cx="246.087" cy="186.393" rx="5.46439" ry="7.80627" fill="#FEFFFF"/>
<path d="M167.998 158.07C175.024 158.591 188.685 157.524 187.123 149.093C184.521 144.54 177.053 139.96 167.998 158.07Z" fill="#212531" stroke="black" stroke-width="2"/>
<path d="M262.968 158.07C255.942 158.591 242.281 157.524 243.842 149.093C246.444 144.54 253.912 139.96 262.968 158.07Z" fill="#212531" stroke="black" stroke-width="2"/>
</svg>
