<svg width="446" height="345" viewBox="0 0 446 345" fill="none" xmlns="http://www.w3.org/2000/svg">
<path d="M219.997 83.4144C116.528 81.3458 107.905 172.768 116.528 218.737C102.958 281.141 175.613 297.603 214.061 296.311C316.852 293.897 324.457 242.44 314.986 218.737C328.556 103.928 256.406 84.1422 219.997 83.4144Z" fill="#E49449" stroke="black" stroke-width="2"/>
<path d="M134 217.391C136.954 126.917 197.811 147.843 217.31 179.232C265.168 118.301 306.528 177.385 296.483 217.391C287.03 286.323 220.855 252.473 217.31 217.391C178.55 288.785 139.317 247.549 134 217.391Z" fill="#F1D4A5" stroke="black"/>
<path d="M232 234.605C220.492 197.975 205.205 219.343 199 234.605L217.615 258.38L232 234.605Z" fill="#F3953C" stroke="black"/>
<path d="M275.187 231.188C270.704 224.835 258.088 214.035 243.486 221.658C246.048 234.047 255.974 253.296 275.187 231.188Z" fill="#E39F90"/>
<path d="M154.327 231.188C158.81 224.835 171.426 214.035 186.028 221.658C183.466 234.047 173.54 253.296 154.327 231.188Z" fill="#E39F90"/>
<ellipse cx="255.458" cy="193.126" rx="18.2979" ry="21.7314" fill="black"/>
<ellipse cx="260.14" cy="203.991" rx="3.40425" ry="5.65016" fill="#4F515E"/>
<ellipse cx="249.076" cy="189.649" rx="5.95744" ry="8.69255" fill="#FEFFFF"/>
<ellipse cx="174.606" cy="193.126" rx="18.2979" ry="21.7314" fill="black"/>
<ellipse cx="180.139" cy="189.648" rx="5.95744" ry="8.69255" fill="#FEFFFF"/>
<ellipse cx="169.926" cy="203.992" rx="3.40425" ry="5.65016" fill="#4F515E"/>
<path d="M216.989 179.38C215.497 163.225 154.661 144.658 123 139.274C152.183 59.3222 287.71 69.379 307 142.529C282.334 127.99 228.427 160.699 216.989 179.38Z" fill="#B5683D" stroke="black" stroke-linecap="round"/>
<path d="M222.682 171.986C236.313 160.549 336.552 140.806 347.038 117.076C347.309 116.462 346.818 115.834 346.144 115.889C332.985 116.97 318.52 132.321 328.262 83.346C328.471 82.2994 327.059 81.6489 326.393 82.4829C279.85 140.761 211.922 144.529 222.682 171.986Z" fill="#B5683D" stroke="black" stroke-width="2"/>
<path d="M211.318 171.654C197.686 160.218 97.4469 140.475 86.9607 116.745C86.6896 116.131 87.1814 115.503 87.8546 115.558C101.014 116.639 115.479 131.99 105.737 83.015C105.528 81.9683 106.94 81.3178 107.606 82.1518C154.149 140.43 222.077 144.198 211.318 171.654Z" fill="#B5683D" stroke="black" stroke-width="2"/>
<path d="M200.888 123.924C202.18 120.87 205.971 116.594 210.795 123.924" stroke="#D4A072" stroke-width="2" stroke-linecap="round"/>
<path d="M223.673 123.924C224.965 120.87 228.755 116.594 233.579 123.924" stroke="#D4A072" stroke-width="2" stroke-linecap="round"/>
<path d="M189 110.771C190.163 107.716 193.574 103.44 197.916 110.771" stroke="#D4A072" stroke-width="2" stroke-linecap="round"/>
<path d="M211.785 110.771C212.948 107.716 216.359 103.44 220.701 110.771" stroke="#D4A072" stroke-width="2" stroke-linecap="round"/>
<path d="M233.58 110.771C234.743 107.716 238.154 103.44 242.495 110.771" stroke="#D4A072" stroke-width="2" stroke-linecap="round"/>
</svg>
