<svg width="446" height="345" viewBox="0 0 446 345" fill="none" xmlns="http://www.w3.org/2000/svg">
<path d="M300.66 67.4688C270.161 43.4688 255.66 76.1355 253.66 95.4688C236.06 115.069 279.327 146.302 303.16 159.469C331.96 127.869 315.91 79.4688 300.66 67.4688Z" fill="#312C2C" stroke="black" stroke-width="2"/>
<path d="M286.023 130.615L295.765 116.002C305.117 96.5175 291.868 83.528 284.074 79.4688C260.693 93.4974 275.631 119.411 286.023 130.615Z" fill="#261D19" stroke="black" stroke-width="2"/>
<path d="M128.455 67.4688C158.955 43.4688 173.455 76.1355 175.455 95.4688C193.055 115.069 149.788 146.302 125.955 159.469C97.1548 127.869 113.205 79.4688 128.455 67.4688Z" fill="#312C2C" stroke="black" stroke-width="2"/>
<path d="M143.093 130.615L133.351 116.002C123.998 96.5175 137.247 83.528 145.041 79.4688C168.422 93.4974 153.484 119.411 143.093 130.615Z" fill="#261D19" stroke="black" stroke-width="2"/>
<path d="M219.578 84.4632C114.565 82.3957 105.814 173.767 114.565 219.712C100.793 282.081 174.531 298.535 213.552 297.242C317.876 294.83 325.594 243.401 315.982 219.712C329.755 104.966 257.451 81.7352 219.578 84.4632Z" fill="#FFF4EE" stroke="black" stroke-width="2"/>
<path d="M254.611 239.275C255.38 238.128 256.933 237.821 258.08 238.59C259.227 239.358 259.534 240.911 258.765 242.058C249.79 255.455 240.717 263.771 231.807 268.207C222.846 272.669 214.195 273.129 206.304 271.061C190.717 266.977 178.417 253.146 171.843 241.931C171.144 240.74 171.544 239.208 172.735 238.51C173.926 237.811 175.459 238.211 176.157 239.402C182.445 250.13 193.849 262.63 207.571 266.225C214.334 267.998 221.739 267.635 229.579 263.731C237.472 259.802 245.946 252.209 254.611 239.275Z" fill="black"/>
<path d="M201.974 194.478C175.996 238.51 155.647 228.496 150 217.911C140.964 194.201 156.352 179.645 166 175.411C192.542 132.508 214.697 172.911 201.974 194.478Z" fill="#312D2D"/>
<path d="M195.567 190.773C195.567 201.551 188.053 210.288 178.783 210.288C169.514 210.288 162 201.551 162 190.773C162 179.994 169.514 171.257 178.783 171.257C188.053 171.257 195.567 179.994 195.567 190.773Z" fill="black"/>
<path d="M189.322 187.65C189.322 191.961 186.876 195.456 183.858 195.456C180.84 195.456 178.394 191.961 178.394 187.65C178.394 183.339 180.84 179.844 183.858 179.844C186.876 179.844 189.322 183.339 189.322 187.65Z" fill="#FEFFFF"/>
<path d="M177.612 200.531C177.612 203.333 176.214 205.605 174.49 205.605C172.765 205.605 171.367 203.333 171.367 200.531C171.367 197.728 172.765 195.457 174.49 195.457C176.214 195.457 177.612 197.728 177.612 200.531Z" fill="#A2B474"/>
<path d="M229.689 194.478C255.666 238.51 276.015 228.496 281.662 217.911C290.698 194.201 275.31 179.645 265.662 175.411C239.12 132.508 216.965 172.911 229.689 194.478Z" fill="#312D2D"/>
<path d="M269.727 190.773C269.727 201.551 262.213 210.288 252.944 210.288C243.674 210.288 236.16 201.551 236.16 190.773C236.16 179.994 243.674 171.257 252.944 171.257C262.213 171.257 269.727 179.994 269.727 190.773Z" fill="black"/>
<path d="M260.36 200.531C260.36 203.333 258.962 205.605 257.238 205.605C255.513 205.605 254.115 203.333 254.115 200.531C254.115 197.728 255.513 195.457 257.238 195.457C258.962 195.457 260.36 197.728 260.36 200.531Z" fill="#A2B474"/>
<path d="M252.554 187.65C252.554 191.961 250.107 195.456 247.089 195.456C244.071 195.456 241.625 191.961 241.625 187.65C241.625 183.339 244.071 179.844 247.089 179.844C250.107 179.844 252.554 183.339 252.554 187.65Z" fill="#FEFFFF"/>
<path d="M169 159.327C176.026 159.848 189.687 158.781 188.125 150.35C185.523 145.796 178.055 141.217 169 159.327Z" fill="#312C2C" stroke="black" stroke-width="2"/>
<path d="M263.97 159.327C256.944 159.848 243.283 158.781 244.844 150.35C247.446 145.796 254.914 141.217 263.97 159.327Z" fill="#312C2C" stroke="black" stroke-width="2"/>
<path d="M195 222.257C202.6 219.457 211.833 221.09 215.5 222.257C222.7 219.457 232.167 221.09 236.5 222.257C239.019 222.257 242.735 221.328 244.772 220.932C245.178 220.819 245.588 220.757 246 220.757C245.752 220.757 245.323 220.825 244.772 220.932C241.234 221.919 237.995 226.813 236.5 228.757C226.1 228.757 222.667 234.757 223 237.757L217.5 244.757H214L208.5 237.757C211.3 230.557 201.667 228.757 196.5 228.757C195.7 226.357 190.5 222.424 188 220.757L195 222.257Z" fill="#06020C"/>
<path d="M216 244.257L190.019 221.757H241.98L216 244.257Z" fill="#3C3535"/>
</svg>
