<svg width="446" height="345" viewBox="0 0 446 345" fill="none" xmlns="http://www.w3.org/2000/svg">
<path d="M64.4391 233.773C95.4086 248.427 144.994 147.412 165.915 95.0726L181.458 150.197C118.647 288.528 77.274 263.552 64.4391 233.773Z" fill="#08A1B9" stroke="black"/>
<path d="M68.734 265.887C99.7035 280.54 149.289 179.525 170.21 127.186L185.753 182.31C122.942 320.641 81.569 295.666 68.734 265.887Z" fill="#08A1B9" stroke="black"/>
<path d="M220.135 83.2064C114.844 81.1351 106.069 172.675 114.844 218.704C101.035 281.189 174.969 297.673 214.094 296.378C318.694 293.962 326.433 242.438 316.796 218.704C330.604 103.747 257.5 83.2062 220.135 83.2064Z" fill="#FF9D08" stroke="black" stroke-width="2"/>
<path d="M132.031 216.8C135.058 127.816 197.426 148.397 217.408 179.269C266.454 119.342 308.84 177.453 298.546 216.8C288.858 284.598 221.041 251.304 217.408 216.8C177.687 287.019 137.481 246.462 132.031 216.8Z" fill="#FFFFFD" stroke="black"/>
<path d="M233.781 233.348C217.893 283.079 212.519 261.191 198.345 233.348L216.569 252.707L233.781 233.348Z" fill="#47484C" stroke="black"/>
<path d="M242.387 217.284C223.321 157.446 197.994 192.351 187.714 217.284L217.48 259.167L242.387 217.284Z" fill="#47484C" stroke="black"/>
<path d="M276.812 230.827C272.23 224.47 259.336 213.663 244.413 221.292C247.031 233.688 257.176 252.949 276.812 230.827Z" fill="#E39F90"/>
<path d="M153.291 230.827C157.873 224.47 170.767 213.663 185.69 221.292C183.072 233.688 172.927 252.949 153.291 230.827Z" fill="#E39F90"/>
<ellipse cx="256.649" cy="192.742" rx="18.7007" ry="21.745" fill="black"/>
<ellipse cx="261.431" cy="203.615" rx="3.4792" ry="5.6537" fill="#AA6C55"/>
<ellipse cx="250.125" cy="189.262" rx="6.0886" ry="8.698" fill="#FEFFFF"/>
<ellipse cx="174.018" cy="192.742" rx="18.7007" ry="21.745" fill="black"/>
<ellipse cx="179.672" cy="189.262" rx="6.0886" ry="8.698" fill="#FEFFFF"/>
<ellipse cx="169.234" cy="203.615" rx="3.4792" ry="5.6537" fill="#AA6C55"/>
<path d="M262.5 153.001C247.5 153.501 235.5 157.501 217.5 179.502C201.5 158 181.5 153.001 168 153.001L117 154C134.5 94.9992 180 83.5001 217.5 83.5006C282 82.5 310 131 314 154L262.5 153.001Z" fill="#037830" stroke="black" stroke-width="2"/>
<path d="M217.5 117.5C217.5 117.5 167 153 118 153C132.5 110.499 161 84.1993 217.184 84.1992C266.011 84.1992 299.971 107.398 313 153C264 153 217.5 117.5 217.5 117.5Z" fill="#0BA2AD"/>
</svg>
