<svg width="446" height="345" viewBox="0 0 446 345" fill="none" xmlns="http://www.w3.org/2000/svg">
<path d="M220.997 84.1575C117.528 82.0905 108.905 173.439 117.528 219.371C103.958 281.724 176.613 298.174 215.061 296.882C317.852 294.47 325.457 243.055 315.986 219.371C329.556 104.655 258.314 81.4302 220.997 84.1575Z" fill="#434343" stroke="black" stroke-width="2"/>
<path d="M134.416 217.472C137.391 128.675 198.679 149.213 218.316 180.02C266.514 120.218 308.166 178.208 298.05 217.472C327.932 286.523 242.366 295.616 218.316 295.616C160.78 295.616 120.983 260.255 134.416 217.472Z" fill="#FFFEFE" stroke="black"/>
<path d="M232.914 234.254C221.465 198.086 206.255 219.184 200.081 234.254L218.602 257.728L232.914 234.254Z" fill="#F2BA44" stroke="black"/>
<path d="M276.692 231.469C272.19 225.126 259.519 214.341 244.854 221.954C247.427 234.324 257.396 253.545 276.692 231.469Z" fill="#E39F90"/>
<path d="M155.308 231.469C159.811 225.126 172.482 214.341 187.147 221.954C184.574 234.324 174.604 253.545 155.308 231.469Z" fill="#E39F90"/>
<ellipse cx="256.879" cy="193.464" rx="18.3772" ry="21.6994" fill="black"/>
<ellipse cx="261.58" cy="204.314" rx="3.41902" ry="5.64184" fill="#4F515E"/>
<ellipse cx="250.468" cy="189.992" rx="5.98328" ry="8.67976" fill="#FEFFFF"/>
<ellipse cx="175.676" cy="193.464" rx="18.3772" ry="21.6994" fill="black"/>
<ellipse cx="181.233" cy="189.992" rx="5.98328" ry="8.67976" fill="#FEFFFF"/>
<ellipse cx="170.975" cy="204.314" rx="3.41902" ry="5.64184" fill="#4F515E"/>
</svg>
