<svg width="446" height="345" viewBox="0 0 446 345" fill="none" xmlns="http://www.w3.org/2000/svg">
<path d="M218.578 84.2058C113.565 82.1384 104.814 173.51 113.565 219.454C99.7932 281.823 173.531 298.277 212.552 296.985C316.876 294.573 324.594 243.144 314.982 219.454C328.755 104.708 256.451 81.4779 218.578 84.2058Z" fill="#FFA9C9"/>
<path d="M218.558 83.2055C237.698 81.8401 265.511 87.0203 286.831 107.048C308.181 127.104 322.842 161.876 316.003 219.319C320.835 231.464 321.21 250.508 307.253 266.848C293.22 283.278 264.87 296.774 212.583 297.984L212.584 297.985C192.96 298.635 164.578 294.831 142.782 282.971C131.873 277.035 122.559 269.05 116.855 258.54C111.165 248.056 109.119 235.149 112.545 219.442C108.182 196.34 108.205 161.884 122.516 133.377C129.701 119.064 140.492 106.245 156.133 97.1411C171.764 88.0433 192.176 82.6917 218.558 83.2055ZM285.461 108.506C264.624 88.9331 237.38 83.8544 218.649 85.2036L218.603 85.2065L218.557 85.2055C192.451 84.6916 172.403 89.9854 157.139 98.8696C141.878 107.752 131.338 120.26 124.303 134.274C110.214 162.34 110.197 196.426 114.547 219.267L114.585 219.469L114.541 219.669C111.144 235.055 113.155 247.528 118.613 257.585C124.08 267.661 133.058 275.402 143.739 281.214C165.124 292.851 193.122 296.628 212.519 295.986L212.529 295.985C264.56 294.782 292.229 281.358 305.732 265.549C319.219 249.758 318.744 231.388 314.055 219.831L313.958 219.591L313.989 219.335C320.848 162.185 306.257 128.041 285.461 108.506Z" fill="black"/>
<path d="M254.612 239.608C255.381 238.461 256.934 238.154 258.081 238.922C259.228 239.691 259.535 241.244 258.766 242.391C249.791 255.788 240.717 264.104 231.808 268.539C222.847 273.001 214.196 273.462 206.305 271.394C190.718 267.31 178.418 253.479 171.844 242.264C171.145 241.073 171.545 239.54 172.736 238.842C173.927 238.144 175.46 238.544 176.158 239.735C182.446 250.462 193.85 262.962 207.572 266.558C214.335 268.33 221.74 267.967 229.58 264.064C237.473 260.134 245.947 252.542 254.612 239.608Z" fill="black"/>
<path d="M249 232.5C249 245.478 234.002 256 215.5 256C196.998 256 182 245.478 182 232.5C182 219.521 196.998 209 215.5 209C234.002 209 249 219.521 249 232.5Z" fill="#EE95B5"/>
<path d="M247 232.5C247 226.84 243.732 221.514 238.039 217.52C232.352 213.531 224.39 211 215.5 211C206.61 211 198.648 213.531 192.961 217.52C187.268 221.514 184 226.84 184 232.5C184 238.159 187.268 243.485 192.961 247.479C198.648 251.468 206.61 254 215.5 254V256C196.998 256 182 245.478 182 232.5C182 219.521 196.998 209 215.5 209C234.002 209 249 219.521 249 232.5C249 245.478 234.002 256 215.5 256V254C224.39 254 232.352 251.468 238.039 247.479C243.732 243.485 247 238.159 247 232.5Z" fill="black"/>
<path d="M235 233.5C235 237.642 231.642 241 227.5 241C223.358 241 220 237.642 220 233.5C220 229.357 223.358 226 227.5 226C231.642 226 235 229.357 235 233.5Z" fill="#C77090"/>
<path d="M234 233.5C234 229.91 231.09 227 227.5 227C223.91 227 221 229.91 221 233.5C221 237.089 223.91 240 227.5 240V241C223.358 241 220 237.642 220 233.5C220 229.357 223.358 226 227.5 226C231.642 226 235 229.357 235 233.5C235 237.642 231.642 241 227.5 241V240C231.09 240 234 237.089 234 233.5Z" fill="black"/>
<path d="M210 233.5C210 237.642 206.642 241 202.5 241C198.358 241 195 237.642 195 233.5C195 229.357 198.358 226 202.5 226C206.642 226 210 229.357 210 233.5Z" fill="#C77090"/>
<path d="M209 233.5C209 229.91 206.09 227 202.5 227C198.91 227 196 229.91 196 233.5C196 237.089 198.91 240 202.5 240V241C198.358 241 195 237.642 195 233.5C195 229.357 198.358 226 202.5 226C206.642 226 210 229.357 210 233.5C210 237.642 206.642 241 202.5 241V240C206.09 240 209 237.089 209 233.5Z" fill="black"/>
<path d="M194.567 190.515C194.567 201.293 187.053 210.031 177.783 210.031C168.514 210.031 161 201.293 161 190.515C161 179.737 168.514 171 177.783 171C187.053 171 194.567 179.737 194.567 190.515Z" fill="black"/>
<path d="M188.321 187.393C188.321 191.704 185.875 195.199 182.857 195.199C179.839 195.199 177.393 191.704 177.393 187.393C177.393 183.081 179.839 179.586 182.857 179.586C185.875 179.586 188.321 183.081 188.321 187.393Z" fill="#FEFFFF"/>
<path d="M176.612 200.273C176.612 203.076 175.214 205.347 173.49 205.347C171.765 205.347 170.367 203.076 170.367 200.273C170.367 197.471 171.765 195.199 173.49 195.199C175.214 195.199 176.612 197.471 176.612 200.273Z" fill="#4F515E"/>
<path d="M268.727 190.515C268.727 201.293 261.213 210.031 251.944 210.031C242.674 210.031 235.16 201.293 235.16 190.515C235.16 179.737 242.674 171 251.944 171C261.213 171 268.727 179.737 268.727 190.515Z" fill="black"/>
<path d="M259.36 200.273C259.36 203.076 257.962 205.347 256.238 205.347C254.513 205.347 253.115 203.076 253.115 200.273C253.115 197.471 254.513 195.199 256.238 195.199C257.962 195.199 259.36 197.471 259.36 200.273Z" fill="#4F515E"/>
<path d="M251.554 187.393C251.554 191.704 249.107 195.199 246.089 195.199C243.071 195.199 240.625 191.704 240.625 187.393C240.625 183.081 243.071 179.586 246.089 179.586C249.107 179.586 251.554 183.081 251.554 187.393Z" fill="#FEFFFF"/>
<path d="M168 159.07C175.026 159.59 188.687 158.524 187.125 150.093C184.523 145.539 177.055 140.959 168 159.07Z" fill="#212531"/>
<path d="M179.818 145.096C183.748 144.446 186.601 147.162 187.992 149.596L188.077 149.744L188.107 149.911C188.554 152.324 187.905 154.29 186.52 155.801C185.177 157.265 183.204 158.242 181.075 158.894C176.811 160.2 171.5 160.332 167.925 160.067L166.438 159.958L167.104 158.623C171.654 149.524 175.982 145.731 179.818 145.096ZM186.168 150.445C184.941 148.387 182.801 146.63 180.145 147.069C177.48 147.51 173.808 150.202 169.596 158.153C172.901 158.267 177.103 158.019 180.489 156.982C182.458 156.379 184.046 155.54 185.046 154.45C185.972 153.439 186.442 152.161 186.168 150.445Z" fill="black"/>
<path d="M262.969 159.07C255.943 159.59 242.282 158.524 243.843 150.093C246.445 145.539 253.913 140.959 262.969 159.07Z" fill="#212531"/>
<path d="M251.15 145.096C247.221 144.446 244.368 147.162 242.977 149.596L242.892 149.744L242.861 149.911C242.414 152.324 243.064 154.29 244.449 155.801C245.791 157.265 247.764 158.242 249.894 158.894C254.158 160.2 259.469 160.332 263.044 160.067L264.531 159.958L263.864 158.623C259.315 149.524 254.987 145.731 251.15 145.096ZM244.801 150.445C246.028 148.387 248.168 146.63 250.824 147.069C253.489 147.51 257.161 150.202 261.373 158.153C258.068 158.267 253.865 158.019 250.479 156.982C248.511 156.379 246.923 155.54 245.923 154.45C244.996 153.439 244.527 152.161 244.801 150.445Z" fill="black"/>
<path d="M282.501 50.5108C269.001 60.0108 251.168 76.8328 247.001 86.4995C261.001 88.4995 283.168 104.346 292.501 112.512L297.501 110.512C307.901 107.312 306.835 60.1818 304.502 41.0151C292.102 40.6151 288.001 48.0156 282.501 50.5108Z" fill="#FFA9C9"/>
<path d="M304.534 40.0161C298.096 39.8085 293.773 41.6347 290.37 43.8374C288.695 44.922 287.232 46.1065 285.906 47.1255C284.725 48.0329 283.653 48.8096 282.558 49.3726L282.088 49.6001L282.003 49.6392L281.926 49.6929C275.126 54.4776 267.251 61.0948 260.548 67.732C253.878 74.3364 248.25 81.0766 246.083 86.104L245.565 87.3042L246.859 87.4898C253.639 88.4582 262.529 92.819 270.974 98.0435C279.387 103.247 287.218 109.218 291.843 113.265L292.304 113.668L297.865 111.444C299.471 110.923 300.738 109.611 301.745 107.901C302.773 106.155 303.605 103.877 304.279 101.248C305.63 95.9842 306.403 89.1165 306.775 81.8023C307.52 67.164 306.667 50.5318 305.494 40.8941L305.391 40.0435L304.534 40.0161ZM303.608 42.0005C304.715 51.6412 305.494 67.6118 304.777 81.7007C304.408 88.9647 303.643 95.6781 302.342 100.751C301.69 103.289 300.917 105.367 300.022 106.886C299.177 108.321 298.286 109.153 297.387 109.495L297.207 109.556L297.168 109.569L297.13 109.584L292.695 111.357C287.941 107.253 280.258 101.435 272.027 96.3433C264.068 91.4196 255.471 87.095 248.472 85.7349C250.798 81.2042 255.83 75.2174 261.955 69.1528C268.563 62.6095 276.324 56.0881 283.01 51.3765C284.462 50.7019 285.8 49.729 287.125 48.7114C288.502 47.6537 289.87 46.5445 291.457 45.5171C294.427 43.5947 298.125 41.9878 303.608 42.0005Z" fill="black"/>
<path d="M284.588 83.2329C279.284 90.9845 279.661 100.374 280.514 104.125L281.488 103.905C280.674 100.323 280.318 91.2455 285.414 83.7974L284.588 83.2329Z" fill="black"/>
<path d="M147.001 50.9951C160.501 60.4951 178.333 77.8328 182.5 87.4995C169.3 87.4995 146.334 104.83 137.001 112.997L132.001 110.997C121.601 107.797 122.667 60.6662 125 41.4995C137.4 41.0995 141.501 48.5 147.001 50.9951Z" fill="#FFA9C9"/>
<path d="M124.968 40.5005C131.406 40.2928 135.729 42.1191 139.132 44.3218C140.807 45.4063 142.27 46.5909 143.596 47.6099C144.777 48.5172 145.849 49.2939 146.943 49.857L147.414 50.0845L147.499 50.1236L147.576 50.1773C154.381 54.966 162.259 61.7151 168.961 68.481C175.632 75.2154 181.254 82.0822 183.418 87.104L184.02 88.4995H182.5C179.395 88.4995 175.628 89.5252 171.524 91.2564C167.434 92.9811 163.083 95.374 158.831 98.0337C150.327 103.354 142.294 109.694 137.659 113.75L137.198 114.153L131.637 111.928C130.031 111.408 128.764 110.095 127.757 108.385C126.729 106.64 125.897 104.361 125.223 101.732C123.872 96.4686 123.099 89.6008 122.727 82.2866C121.982 67.6484 122.835 51.0162 124.008 41.3784L124.111 40.5278L124.968 40.5005ZM125.894 42.4849C124.787 52.1256 124.008 68.0961 124.725 82.1851C125.094 89.4491 125.859 96.1625 127.16 101.235C127.812 103.773 128.585 105.852 129.48 107.371C130.325 108.805 131.216 109.637 132.115 109.979L132.295 110.041L132.334 110.053L132.372 110.068L136.806 111.841C141.563 107.723 149.435 101.551 157.771 96.3374C162.077 93.6438 166.526 91.1935 170.746 89.4136C174.343 87.8968 177.829 86.845 180.949 86.5718C178.585 82.0354 173.593 75.9989 167.54 69.8882C160.931 63.2158 153.171 56.5694 146.491 51.8609C145.039 51.1863 143.701 50.2132 142.377 49.1958C141 48.1381 139.632 47.0288 138.045 46.0015C135.075 44.0791 131.377 42.4722 125.894 42.4849Z" fill="black"/>
<path d="M144.912 81.7173C150.216 89.4688 149.839 98.8581 148.986 102.61L148.012 102.389C148.826 98.8074 149.182 89.7299 144.086 82.2817L144.912 81.7173Z" fill="black"/>
</svg>
