<svg width="446" height="345" viewBox="0 0 446 345" fill="none" xmlns="http://www.w3.org/2000/svg">
<path d="M300.66 66.4688C270.161 42.4688 255.66 75.1355 253.66 94.4688C236.06 114.069 279.327 145.302 303.16 158.469C331.96 126.869 315.91 78.4688 300.66 66.4688Z" fill="#FFF4EE" stroke="black" stroke-width="2"/>
<path d="M286.023 129.615L295.765 115.002C305.117 95.5175 291.868 82.528 284.074 78.4688C260.693 92.4974 275.631 118.411 286.023 129.615Z" fill="#141C27" stroke="black" stroke-width="2"/>
<path d="M128.455 66.4688C158.955 42.4688 173.455 75.1355 175.455 94.4688C193.055 114.069 149.788 145.302 125.955 158.469C97.1548 126.869 113.205 78.4688 128.455 66.4688Z" fill="#FFF4EE" stroke="black" stroke-width="2"/>
<path d="M143.093 129.615L133.351 115.002C123.998 95.5175 137.247 82.528 145.041 78.4688C168.422 92.4974 153.484 118.411 143.093 129.615Z" fill="#141C27" stroke="black" stroke-width="2"/>
<path d="M218.578 83.4632C113.565 81.3957 104.814 172.767 113.565 218.712C99.7932 281.081 173.531 297.535 212.552 296.242C316.876 293.83 324.594 242.401 314.982 218.712C328.755 103.966 256.451 80.7352 218.578 83.4632Z" fill="#FFF4EE" stroke="black" stroke-width="2"/>
<path d="M253.611 238.275C254.38 237.128 255.933 236.821 257.08 237.59C258.227 238.358 258.534 239.911 257.765 241.058C248.79 254.455 239.717 262.771 230.807 267.207C221.846 271.669 213.195 272.129 205.304 270.061C189.717 265.977 177.417 252.146 170.843 240.931C170.144 239.74 170.544 238.208 171.735 237.51C172.926 236.811 174.459 237.211 175.157 238.402C181.445 249.13 192.849 261.63 206.571 265.225C213.334 266.998 220.739 266.635 228.579 262.731C236.472 258.802 244.946 251.209 253.611 238.275Z" fill="black"/>
<path d="M194.567 189.773C194.567 200.551 187.053 209.288 177.783 209.288C168.514 209.288 161 200.551 161 189.773C161 178.994 168.514 170.257 177.783 170.257C187.053 170.257 194.567 178.994 194.567 189.773Z" fill="black"/>
<path d="M188.322 186.65C188.322 190.961 185.876 194.456 182.858 194.456C179.84 194.456 177.394 190.961 177.394 186.65C177.394 182.339 179.84 178.844 182.858 178.844C185.876 178.844 188.322 182.339 188.322 186.65Z" fill="#FEFFFF"/>
<path d="M176.612 199.531C176.612 202.333 175.214 204.605 173.49 204.605C171.765 204.605 170.367 202.333 170.367 199.531C170.367 196.728 171.765 194.457 173.49 194.457C175.214 194.457 176.612 196.728 176.612 199.531Z" fill="#74A8B4"/>
<path d="M268.727 189.773C268.727 200.551 261.213 209.288 251.944 209.288C242.674 209.288 235.16 200.551 235.16 189.773C235.16 178.994 242.674 170.257 251.944 170.257C261.213 170.257 268.727 178.994 268.727 189.773Z" fill="black"/>
<path d="M259.359 199.531C259.359 202.333 257.961 204.605 256.237 204.605C254.512 204.605 253.114 202.333 253.114 199.531C253.114 196.728 254.512 194.457 256.237 194.457C257.961 194.457 259.359 196.728 259.359 199.531Z" fill="#74A8B4"/>
<path d="M251.554 186.65C251.554 190.961 249.107 194.456 246.089 194.456C243.071 194.456 240.625 190.961 240.625 186.65C240.625 182.339 243.071 178.844 246.089 178.844C249.107 178.844 251.554 182.339 251.554 186.65Z" fill="#FEFFFF"/>
<path d="M168 158.327C175.026 158.848 188.687 157.781 187.125 149.35C184.523 144.796 177.055 140.217 168 158.327Z" fill="white" stroke="black" stroke-width="2"/>
<path d="M262.97 158.327C255.944 158.848 242.283 157.781 243.844 149.35C246.446 144.796 253.914 140.217 262.97 158.327Z" fill="white" stroke="black" stroke-width="2"/>
<path d="M215 243.257L189.019 220.757H240.98L215 243.257Z" fill="#3C3535"/>
<path d="M194 221.257C201.6 218.457 210.833 220.09 214.5 221.257C221.7 218.457 231.167 220.09 235.5 221.257C238.019 221.257 241.735 220.328 243.772 219.932C244.178 219.819 244.588 219.757 245 219.757C244.752 219.757 244.323 219.825 243.772 219.932C240.234 220.919 236.995 225.813 235.5 227.757C225.1 227.757 221.667 233.757 222 236.757L216.5 243.757H213L207.5 236.757C210.3 229.557 200.667 227.757 195.5 227.757C194.7 225.357 189.5 221.424 187 219.757L194 221.257Z" fill="#06020C"/>
</svg>
