<svg width="446" height="345" viewBox="0 0 446 345" fill="none" xmlns="http://www.w3.org/2000/svg">
<path d="M219.578 83.2024C114.565 81.1349 105.814 172.507 114.565 218.451C100.793 280.82 174.531 297.274 213.552 295.982C317.876 293.57 325.594 242.141 315.982 218.451C329.755 103.705 257.451 80.4745 219.578 83.2024Z" fill="#BF8FD7" stroke="black" stroke-width="2"/>
<path d="M174 258.996C186.863 280.939 221.408 311.658 256.689 258.996" stroke="black" stroke-width="5" stroke-linecap="round"/>
<ellipse cx="178.783" cy="189.512" rx="16.7835" ry="19.5157" fill="black"/>
<ellipse cx="183.858" cy="186.389" rx="5.46439" ry="7.80627" fill="#FEFFFF"/>
<ellipse cx="174.49" cy="199.269" rx="3.12251" ry="5.07408" fill="#4F515E"/>
<ellipse cx="252.944" cy="189.512" rx="16.7835" ry="19.5157" fill="black"/>
<ellipse cx="257.238" cy="199.269" rx="3.12251" ry="5.07408" fill="#4F515E"/>
<ellipse cx="247.089" cy="186.389" rx="5.46439" ry="7.80627" fill="#FEFFFF"/>
<path d="M169 158.067C176.026 158.587 189.687 157.52 188.125 149.089C185.523 144.536 178.055 139.956 169 158.067Z" fill="#212531" stroke="black" stroke-width="2"/>
<path d="M263.97 158.067C256.944 158.587 243.283 157.52 244.844 149.089C247.446 144.536 254.914 139.956 263.97 158.067Z" fill="#212531" stroke="black" stroke-width="2"/>
<path d="M189.356 228C196.469 232.67 209.272 242.569 203.582 244.811C195.521 245.745 181.39 243.69 189.356 228Z" fill="#925286" stroke="black"/>
<path d="M244.644 227.996C237.531 232.666 224.728 242.565 230.418 244.807C238.479 245.741 252.61 243.686 244.644 227.996Z" fill="#925286" stroke="black"/>
<path d="M126.901 110.434C140.216 118.652 133.186 130.109 128.007 134.81C121.374 155.782 110.695 139.834 106.185 129.239C92.0878 131.995 83.5902 119.72 81.1035 113.238L77.6989 70.8656L119.441 90.9879L126.901 110.434Z" fill="#BF8FD7" stroke="black" stroke-width="2"/>
<path d="M114.201 113.148C127.516 121.366 124.752 135.927 119.573 140.628C108.715 134.599 110.695 139.834 106.185 129.239C92.0878 131.995 83.5902 119.72 81.1035 113.238L77.6989 70.8656L105.317 104.186L114.201 113.148Z" fill="#925286" stroke="black" stroke-width="2"/>
<path d="M297.692 110.434C284.377 118.652 291.407 130.109 296.586 134.81C303.219 155.782 313.898 139.834 318.408 129.239C332.505 131.995 341.003 119.72 343.489 113.238L346.894 70.8656L305.152 90.9879L297.692 110.434Z" fill="#BF8FD7" stroke="black" stroke-width="2"/>
<path d="M310.392 113.148C297.077 121.366 299.841 135.927 305.02 140.628C315.878 134.599 313.898 139.834 318.408 129.239C332.505 131.995 341.003 119.72 343.489 113.238L346.894 70.8656L319.276 104.186L310.392 113.148Z" fill="#925286" stroke="black" stroke-width="2"/>
<path d="M201.368 148.174C210.37 184.683 227.066 164.909 234.289 150.458L217.326 125.991L201.368 148.174Z" fill="#E4E4E6" stroke="black"/>
<path d="M201.752 200.357C212 259.709 228.216 225.598 235.042 201.123L217.869 159.349L201.752 200.357Z" fill="#E4E4E6" stroke="black"/>
</svg>
