<svg width="446" height="345" viewBox="0 0 446 345" fill="none" xmlns="http://www.w3.org/2000/svg">
<path d="M218.578 84.2063C113.565 82.1388 104.814 173.51 113.565 219.455C99.7932 281.824 173.531 298.278 212.552 296.986C316.876 294.573 324.594 243.145 314.982 219.455C328.755 104.709 256.451 81.4784 218.578 84.2063Z" fill="white" stroke="black" stroke-width="2"/>
<path d="M174 248.41C186.863 270.353 221.408 301.072 256.689 248.41" stroke="black" stroke-width="5" stroke-linecap="round"/>
<ellipse cx="178.783" cy="198.516" rx="16.7835" ry="19.5157" fill="black"/>
<ellipse cx="183.858" cy="195.393" rx="5.46439" ry="7.80627" fill="#FEFFFF"/>
<ellipse cx="174.49" cy="208.273" rx="3.12251" ry="5.07408" fill="#4F515E"/>
<ellipse cx="252.944" cy="198.516" rx="16.7835" ry="19.5157" fill="black"/>
<ellipse cx="257.237" cy="208.273" rx="3.12251" ry="5.07408" fill="#4F515E"/>
<ellipse cx="247.089" cy="195.393" rx="5.46439" ry="7.80627" fill="#FEFFFF"/>
<path d="M169 167.07C176.026 167.591 189.687 166.524 188.125 158.093C185.523 153.54 178.055 148.96 169 167.07Z" fill="#212531" stroke="black" stroke-width="2"/>
<path d="M263.97 167.07C256.944 167.591 243.283 166.524 244.844 158.093C247.446 153.54 254.914 148.96 263.97 167.07Z" fill="#212531" stroke="black" stroke-width="2"/>
</svg>
