<svg width="446" height="345" viewBox="0 0 446 345" fill="none" xmlns="http://www.w3.org/2000/svg">
<path d="M219.578 83.2063C114.565 81.1388 105.814 172.51 114.565 218.455C100.793 280.824 174.531 297.278 213.552 295.986C317.876 293.573 325.594 242.145 315.982 218.455C329.755 103.709 257.451 80.4784 219.578 83.2063Z" fill="#A8C894" stroke="black" stroke-width="2"/>
<path d="M175.245 236.536C188.108 258.479 222.653 289.198 257.934 236.536" stroke="black" stroke-width="5" stroke-linecap="round"/>
<ellipse cx="175.989" cy="184.373" rx="18.4705" ry="21.4773" fill="black"/>
<ellipse cx="181.573" cy="180.937" rx="6.01364" ry="8.59092" fill="#FEFFFF"/>
<ellipse cx="171.264" cy="195.111" rx="3.43637" ry="5.5841" fill="#4F515E"/>
<ellipse cx="251.603" cy="184.373" rx="18.4705" ry="21.4773" fill="black"/>
<ellipse cx="256.329" cy="195.111" rx="3.43637" ry="5.5841" fill="#4F515E"/>
<ellipse cx="245.16" cy="180.937" rx="6.01364" ry="8.59092" fill="#FEFFFF"/>
<path d="M188.013 97.2249C172.939 97.7638 171.124 94.0056 172.245 91.5357C195.245 83.0358 228.324 83.2396 237.745 85.0359C249.589 99.0467 224.35 102.165 212.238 102.614C193.934 132.252 186.218 118.556 184.648 108.002C191.647 103.153 189.807 98.7966 188.013 97.2249Z" fill="#80A86C" stroke="#54744C"/>
<path d="M167.345 105.242C156.657 106.856 157.245 101.277 157.245 99.0352C132.126 110.87 116.359 150.448 115.245 167.035C120.59 169.187 132.161 161.056 135.279 157.694C141.158 140.479 151.535 141.107 155.988 143.572C169.884 157.559 170.686 147.607 169.35 140.882C183.245 134.427 177.812 130.123 173.358 128.778C156.79 131.468 157.993 126.313 160.665 123.399C177.767 120.709 172.245 110.174 167.345 105.242Z" fill="#80A86C" stroke="#54744C"/>
<path d="M267.525 113.314C263.742 106.857 272.966 101.605 277.245 100.035C308.745 121.535 316.245 160.535 316.245 177.535C298.409 186.144 294.775 177.883 297.252 172.502C291.307 174.116 285.316 167.794 283.064 164.431C289.01 135.375 270.228 140.666 260.093 146.944C242.257 138.873 252.662 130.129 260.093 126.766C254.148 110.624 262.571 111.072 267.525 113.314Z" fill="#80A86C" stroke="#54744C"/>
<path d="M215.245 116.513C217.023 111.713 222.712 104.386 231.245 113.481C229.213 120.05 223.169 129.853 215.245 116.513Z" fill="#80A86C" stroke="#54744C"/>
<path d="M159.813 152.367C167.545 152.939 182.579 151.765 180.861 142.487C177.998 137.476 169.779 132.436 159.813 152.367Z" fill="#212531" stroke="black" stroke-width="2"/>
<path d="M260.329 152.367C252.597 152.939 237.563 151.765 239.281 142.487C242.145 137.476 250.364 132.436 260.329 152.367Z" fill="#212531" stroke="black" stroke-width="2"/>
</svg>
