<svg width="123" height="110" viewBox="0 0 123 110" fill="none" xmlns="http://www.w3.org/2000/svg">
<path d="M62.5924 6.09512C14.1826 5.14202 10.1484 47.2635 14.1826 68.4434C7.83375 97.1952 41.8264 104.78 59.8147 104.185C107.907 103.073 111.465 79.3643 107.034 68.4434C113.383 15.5467 80.0516 4.83756 62.5924 6.09512Z" fill="white" stroke="black" stroke-width="3"/>
<path d="M41.5813 78.1035C47.5109 88.2188 63.436 102.38 79.7 78.1035" stroke="black" stroke-width="5" stroke-linecap="round"/>
<ellipse cx="43.7866" cy="55.102" rx="7.73704" ry="8.99656" fill="black"/>
<ellipse cx="46.126" cy="53.6631" rx="2.51904" ry="3.59863" fill="#FEFFFF"/>
<ellipse cx="41.8074" cy="59.5998" rx="1.43945" ry="2.33911" fill="#4F515E"/>
<ellipse cx="77.9736" cy="55.102" rx="7.73704" ry="8.99656" fill="black"/>
<ellipse cx="79.9529" cy="59.5998" rx="1.43945" ry="2.33911" fill="#4F515E"/>
<ellipse cx="75.2747" cy="53.6631" rx="2.51904" ry="3.59863" fill="#FEFFFF"/>
<path d="M39.2764 40.6064C42.5151 40.8463 48.8127 40.3545 48.093 36.468C46.8935 34.3688 43.4508 32.2576 39.2764 40.6064Z" fill="#212531" stroke="black" stroke-width="2"/>
<path d="M83.0564 40.6064C79.8176 40.8463 73.52 40.3545 74.2398 36.468C75.4393 34.3688 78.882 32.2576 83.0564 40.6064Z" fill="#212531" stroke="black" stroke-width="2"/>
</svg>




