<svg width="226" height="64" viewBox="0 0 226 64" fill="none" xmlns="http://www.w3.org/2000/svg">
<path d="M205.088 56.7439V16.8759C205.088 13.3638 202.241 10.5166 198.728 10.5166C195.216 10.5166 192.369 13.3638 192.369 16.8759V56.7439C192.369 60.256 195.216 63.1032 198.728 63.1032C202.241 63.1032 205.088 60.256 205.088 56.7439Z" fill="#1E2C47"/>
<path d="M226 56.988V17.1201C226 13.6079 223.153 10.7607 219.641 10.7607C216.128 10.7607 213.281 13.6079 213.281 17.1201V56.988C213.281 60.5002 216.128 63.3473 219.641 63.3473C223.153 63.3473 226 60.5001 226 56.988Z" fill="#1E2C47"/>
<path d="M174.011 10.2969L183.855 24.7891C183.911 24.8718 183.941 24.9694 183.941 25.0693V56.5913C183.941 60.4301 180.829 63.542 176.991 63.542C173.152 63.542 170.04 60.4301 170.04 56.5913V49.8965C170.04 47.6059 168.183 45.749 165.893 45.749C163.602 45.749 161.745 47.6059 161.745 49.8965V56.6216C161.745 60.4436 158.647 63.542 154.825 63.542C151.003 63.542 147.904 60.4436 147.904 56.6216V25.0703C147.904 24.9692 147.935 24.8704 147.992 24.7871L157.959 10.2949C158.053 10.1592 158.207 10.0781 158.372 10.0781H173.596C173.762 10.0781 173.917 10.16 174.011 10.2969ZM165.648 21.5234C158.861 21.5234 159.595 26.9649 159.595 29.5674C159.962 35.8924 161.245 36.8161 165.648 36.9932C172.253 37.2586 171.708 32.9573 172.068 29.5674C172.319 22.2571 169.195 21.5235 165.648 21.5234Z" fill="#1E2C47"/>
<path d="M139.293 56.7141V26.0182C139.293 22.5229 136.46 19.6895 132.964 19.6895C129.469 19.6895 126.636 22.5229 126.636 26.0182V56.7141C126.636 60.2093 129.469 63.0428 132.964 63.0428C136.46 63.0428 139.293 60.2093 139.293 56.7141Z" fill="#1E2C47"/>
<path d="M130.359 4.55343C131.451 2.57511 134.295 2.57511 135.387 4.55343L135.439 4.64778C135.848 5.38853 136.585 5.89039 137.425 5.99938L137.844 6.05391C139.955 6.32798 140.752 8.96501 139.148 10.3628C138.485 10.9401 138.182 11.8384 138.348 12.7014C138.743 14.7628 136.642 16.4462 134.742 15.5535L134.115 15.259C133.328 14.8893 132.418 14.8893 131.631 15.259L131.004 15.5535C129.105 16.4462 127.003 14.7628 127.398 12.7014C127.564 11.8384 127.261 10.9401 126.598 10.3628C124.994 8.96501 125.792 6.32798 127.902 6.05391L128.322 5.99938C129.161 5.89039 129.898 5.38853 130.307 4.64778L130.359 4.55343Z" fill="#FECF45"/>
<path d="M84.9941 35.8032V56.8356C84.9941 60.2971 87.8002 63.1032 91.2617 63.1032C94.7232 63.1032 97.5293 60.2971 97.5293 56.8356V34.9144C97.5293 31.875 99.9932 29.4111 103.033 29.4111C104.598 29.46 105.03 30.206 105.05 30.5729V56.9579C105.05 60.3519 107.802 63.1032 111.196 63.1032C114.59 63.1032 117.341 60.3519 117.341 56.9579V35.5903C117.341 31.25 115.58 27.0954 112.462 24.0767C109.473 21.1838 105.452 19.5664 101.292 19.5664C92.3251 19.5664 84.9941 26.8359 84.9941 35.8032Z" fill="#1E2C47"/>
<path d="M61.1338 19.75C65.2546 19.75 69.2083 21.3801 72.1318 24.2842L73.1318 25.2773C75.4409 27.5711 76.7392 30.6915 76.7393 33.9463V35.1855C76.7393 41.2497 71.8229 46.166 65.7588 46.166H58.3105C56.6759 46.1662 55.3254 47.4413 55.2305 49.0732C55.1499 50.4616 56.0073 51.7326 57.3252 52.1768L59.9189 53.0508C60.45 53.2297 61.0016 53.3408 61.5605 53.3818L67.2236 53.7979C69.6578 53.9766 71.542 56.0036 71.542 58.4443C71.542 61.0175 69.4559 63.1035 66.8828 63.1035H62.4238C61.5766 63.1035 60.7335 62.9857 59.9189 62.7529L58.3984 62.3184C49.6377 59.8152 43.5977 51.8077 43.5977 42.6963V35.4082C43.5977 31.2193 45.2761 27.2049 48.2578 24.2627C51.188 21.3713 55.1393 19.75 59.2559 19.75H61.1338ZM65.1211 34.4258C65.2678 28.9959 61.9212 28.0863 60.2295 28.3105C56.1695 28.4574 55.8886 32.4691 55.8887 34.4258C55.8888 39.0115 58.7008 40.0914 60.2295 40.0508C64.2406 40.3443 65.1618 36.4233 65.1211 34.4258Z" fill="#1E2C47"/>
<path d="M15.8665 10.5166H29.3732C32.2312 10.5166 34.5482 12.8335 34.5482 15.6916C34.5482 18.5434 32.2411 20.8577 29.3893 20.8665L14.9199 20.9116C13.4641 20.8483 13.1466 22.6888 13.1466 24.146V51.0572C13.1466 52.4269 14.125 52.8916 14.6142 52.9527H18.0996C21.2065 52.9527 23.7251 50.4341 23.7251 47.3272V44.8507C23.7251 43.1116 22.3152 41.7017 20.576 41.7017C18.8368 41.7017 17.4269 40.2918 17.4269 38.5526V36.8099C17.4269 34.1082 19.6171 31.9181 22.3187 31.9181H26.385C31.3324 31.9181 35.3431 35.9288 35.3431 40.8762V47.6557C35.3431 51.7578 33.7234 55.7163 30.8611 58.6548C27.8744 61.7212 23.7566 63.4701 19.476 63.4701H15.971C11.6991 63.4701 7.60516 61.7586 4.60423 58.7182C1.65413 55.7293 0 51.6987 0 47.4991V26.3831C0 22.175 1.67164 18.1393 4.64719 15.1638C7.62273 12.1882 11.6584 10.5166 15.8665 10.5166Z" fill="#1E2C47"/>
</svg>
