<svg width="446" height="345" viewBox="0 0 446 345" fill="none" xmlns="http://www.w3.org/2000/svg">
<path d="M219.578 83.2063C114.565 81.1388 105.814 172.51 114.565 218.455C100.793 280.824 174.531 297.278 213.552 295.986C317.876 293.573 325.594 242.145 315.982 218.455C329.755 103.709 257.451 80.4784 219.578 83.2063Z" fill="white" stroke="black" stroke-width="2"/>
<path d="M174 239.41C186.863 261.353 221.408 292.072 256.689 239.41" stroke="black" stroke-width="5" stroke-linecap="round"/>
<ellipse cx="178.783" cy="189.516" rx="16.7835" ry="19.5157" fill="black"/>
<ellipse cx="183.858" cy="186.393" rx="5.46439" ry="7.80627" fill="#FEFFFF"/>
<ellipse cx="174.49" cy="199.274" rx="3.12251" ry="5.07408" fill="#4F515E"/>
<ellipse cx="252.944" cy="189.516" rx="16.7835" ry="19.5157" fill="black"/>
<ellipse cx="257.237" cy="199.274" rx="3.12251" ry="5.07408" fill="#4F515E"/>
<ellipse cx="247.089" cy="186.393" rx="5.46439" ry="7.80627" fill="#FEFFFF"/>
<path d="M169 158.07C176.026 158.591 189.687 157.524 188.125 149.093C185.523 144.54 178.055 139.96 169 158.07Z" fill="#212531" stroke="black" stroke-width="2"/>
<path d="M263.97 158.07C256.944 158.591 243.283 157.524 244.844 149.093C247.446 144.54 254.914 139.96 263.97 158.07Z" fill="#212531" stroke="black" stroke-width="2"/>
</svg>
